<svg width="414" height="736" viewBox="0 0 414 736" fill="none" xmlns="http://www.w3.org/2000/svg">
    <g clip-path="url(#clip0_142_4479)">
        <path d="M-330 824.1C-325 842.6 -321.1 858.3 -318.5 874.7L-318.4 875.1L-318.1 875.3C-316.6 876.3 -316.6 877.9 -316.7 879.8C-316.7 881.3 -316.8 882.8 -316.1 884.2C-312.5 891.5 -311.1 899.4 -309.6 907.7L-309.3 909.3L-309.2 909.6C-306.2 914.7 -305.2 920.8 -304.7 925.4V925.6L-304.6 925.7C-301.6 930.9 -300.6 936.9 -300.1 941.5V941.7C-297.5 949.2 -294.9 956.7 -292.3 964.2C-283.9 988.6 -275.2 1013.9 -265.6 1038.5C-244.8 1087.4 -210.5 1129.3 -177.2 1169.8C-164.3 1185.5 -151.2 1201.5 -138.8 1218H-136.8C-149.4 1201.1 -162.8 1184.8 -176 1168.8C-209.2 1128.3 -243.5 1086.5 -264.1 1037.9C-273.7 1013.4 -282.4 988.1 -290.8 963.7C-293.4 956.2 -296 948.7 -298.6 941.3C-299.1 936.5 -300.2 930.4 -303.2 925.1C-303.8 920.4 -304.8 914.3 -307.8 908.9L-308.1 907.4C-309.6 899.3 -311.1 890.9 -314.8 883.5C-315.3 882.5 -315.3 881.2 -315.2 879.9C-315.2 877.9 -315.1 875.7 -317 874.2C-319.6 857.9 -323.5 842.2 -328.5 823.9C-329.6 815.8 -331 807.5 -332.4 798.6C-343 732.4 -356.3 650 -294.7 609.2C-288.5 607.6 -281.1 605.5 -274.1 602.3C-193.7 592.5 -129.6 636.6 -67.6001 679.3C-30.4001 704.9 8.0999 731.4 49.8999 746.2L51.7999 746.5C57.6999 747.5 63.1999 748.5 68.2999 750.8L68.4999 750.9C111.6 758.8 150.8 744.5 185.2 708.4C220.8 671.1 239.8 622.1 248 596.2C249.9 585.4 252.1 576.6 254.9 568.7V568.6C262.8 522.7 262.4 483 253.8 450.8C240.6 390.1 208.1 336.3 176.6 284.4C146.9 235.4 116.2 184.7 101.9 128.3L101.8 128.1C101.1 126.8 101.2 125.1 101.3 123.4C101.4 121 101.6 118.3 99.3999 116.4C98.6999 114.8 98.8999 112.8 98.9999 110.8C99.1999 107.9 99.3998 105 97.1998 102.7C96.0998 88.7001 95.4999 75.3 100.5 64.3C101.2 62.9 101.2 61.4001 101.1 59.9001C101.1 58.0001 101 56.4001 102.5 55.4001L102.7 55.2001L102.8 54.9001C108.2 37.7001 119.9 21.0001 135.7 7.90005C163.3 -14.9999 197.8 -31.4999 231.2 -47.3999C264.5 -63.2999 298.9 -79.6999 326.7 -102.6C339.9 -110.1 350.9 -121.5 361.5 -132.7C367 -138.5 372.7 -144.5 378.7 -149.8L378.8 -149.9C387.6 -161.4 394.2 -174.4 400.5 -187C403.2 -192.3 405.9 -197.8 408.8 -203L408.9 -203.1V-203.3C409.4 -207.5 410.9 -211.3 413.3 -214.4L413.4 -214.5V-214.7C436.9 -301.9 423.5 -393.2 409 -481.8H407.4C421.9 -393.3 435.3 -302.2 412 -215.3C409.4 -212 407.9 -208.1 407.4 -203.7C404.5 -198.4 401.8 -193 399.1 -187.7C392.8 -175.2 386.3 -162.3 377.6 -151C371.6 -145.6 365.9 -139.7 360.4 -133.9C349.8 -122.9 338.9 -111.4 325.9 -104.1L325.8 -104C298.1 -81.1999 263.8 -64.7999 230.6 -48.9999C197.1 -32.9999 162.6 -16.4999 134.8 6.50006C118.9 19.7001 107.1 36.6001 101.5 54.0001C99.4999 55.5001 99.5999 57.8 99.5999 59.8C99.5999 61.1 99.6999 62.4001 99.0999 63.4001C93.8999 74.9001 94.4999 88.7001 95.5999 103V103.3L95.7999 103.5C97.6999 105.2 97.4999 107.8 97.2999 110.5C97.0999 112.7 96.9999 115 97.8999 117.1L97.9999 117.3L98.1998 117.4C99.8998 118.7 99.7998 120.8 99.6998 123.1C99.5998 124.9 99.4999 126.8 100.3 128.5C114.6 185.1 145.4 235.9 175.1 285C206.5 336.8 239 390.5 252.1 451C260.7 483 261 522.4 253.2 568.1C250.4 576.1 248.2 584.9 246.3 595.7C238.2 621.4 219.2 670.1 183.9 707.2C150 742.8 111.2 757 68.7999 749.3C63.5999 747 57.6999 746 51.9999 745L50.2999 744.7C8.69993 729.9 -29.6001 703.5 -66.7001 678C-129 635.1 -193.4 590.8 -274.5 600.7L-274.7 600.8C-281.7 604 -289 606.1 -295.3 607.7L-295.6 607.8C-358.2 649.1 -344.8 732.1 -334.1 798.9C-332.5 807.6 -331.1 815.9 -330 824.1Z" fill="url(#paint0_linear_142_4479)" fill-opacity="0.44"/>
        <path d="M1384 541C1242.9 502.6 1133.5 393.3 1099.2 252.2C1078 158.8 1129.6 85.8001 1179.5 15.1001C1204.8 -20.6999 1230.9 -57.6999 1247.5 -96.9999L1247.9 -99.2999C1248.9 -105.1 1249.8 -110.5 1252 -115.4L1252.1 -115.8C1268.6 -211.3 1163.5 -259.8 1099.4 -280.3L1097.4 -280.7C1091.6 -281.7 1086.1 -282.6 1081.2 -284.9C1079.3 -285.8 1077.2 -285.7 1075.3 -285.6C1072.8 -285.5 1071.3 -285.4 1070.3 -286.7L1069.9 -287.2L1069.3 -287.3C1042.8 -293.1 1021.6 -286.2 1004.3 -266.4C989.4 -249.3 979.3 -224.6 970.5 -202.7C966.3 -192.2 962.3 -182.4 958 -173.7L957.9 -173.4V-173.1C957.3 -167.5 954.3 -162.6 951.4 -157.9L951.1 -157.4V-157C950.5 -151.4 947.5 -146.5 944.6 -141.8L944.3 -141.4C915.5 -72.7999 876.6 -17.5999 828.8 22.8001C812.5 35.7001 795.2 47.6001 778.4 59.2001C758.3 73.0001 737.6 87.4001 718.3 103.4C695.5 119 675.8 140.5 656.7 161.3C652.2 166.2 647.6 171.2 643.1 176L643 176.1C598.3 233.2 566.1 296.3 536.9 356.1L536.8 356.3C531.8 370.5 527.6 381.1 523.1 390.7L523 391C521.1 398.9 518.9 405.6 516.2 411.4L516.1 411.6V411.9C515.4 418.1 513.4 424.1 511.5 429.8C510.7 432.1 509.9 434.5 509.3 436.9L508.9 439.9C507.9 447 507 453.6 504.8 459.8L504.7 460.1C496.8 505.7 498 554 499.1 600.7C500.3 648.1 501.5 697.1 493.2 743.4V743.5C492.3 752.4 490.2 761.6 486.4 773.1L486.3 773.3C471.4 856.2 393.4 908.6 325.3 930.1C323.4 930.8 321.4 931.4 319.5 932C311.4 934.7 303.1 937.4 295.4 941.6C290.9 942.1 287 943.7 283.6 946.3C212.1 969.8 174.7 1032 138.5 1092.2C120.9 1121.5 102.7 1151.8 80.9002 1176.8C76.1002 1179.6 71.5001 1182.9 67.1001 1186C62.8001 1189.1 58.4002 1192.3 53.8002 1195H53.5002C51.1002 1195.3 48.6002 1195.7 46.9002 1197.1C44.3002 1196.8 41.8001 1197.8 39.6001 1198.7C36.3001 1200 34.4002 1200.7 32.4002 1198.9L32.0002 1198.5H31.4002C24.4002 1197.9 18.7001 1197.2 13.7001 1194.1L13.5002 1194C-24.8998 1177 -57.5998 1147.6 -89.2999 1119.2C-94.6999 1114.4 -100.3 1109.4 -105.8 1104.5L-105.9 1104.4C-151.8 1069.5 -191.5 1021.3 -224.1 961.3C-226.5 952.5 -230.4 944.4 -234.2 936.5L-235.5 933.7C-237.2 926.3 -240 919.3 -242.7 912.6C-244.2 909 -245.7 905.3 -247 901.6C-249.4 889.5 -252.4 878.9 -256.2 869.3C-262.6 838.1 -269.1 802.1 -265.9 769.7C-262.1 730.4 -245.1 706.8 -214 697.3L-212.5 697.1C-202.6 696.1 -191.5 695 -182.7 698.3L-182.5 698.4C-130.8 711.4 -87.0999 743.7 -44.9999 775C-4.49986 805 37.3002 836 86.5002 850.4C88.0002 851.1 89.7001 851.1 91.1001 851C93.3001 850.9 94.3002 851 94.9002 852.1L95.4002 852.8H96.3002C100.5 852.9 104.7 853.1 109.2 853.3C122.1 853.9 135.4 854.5 147.3 851.7L147.5 851.6C176.2 841.2 200.8 821.8 222.6 792.3C242.1 765.9 257 734.4 269.5 707C284.3 674.3 298.3 638.6 311 600.9L311.1 600.6C311.6 596 312.6 590.1 315.5 585C316.3 583.4 316.2 581.7 316.2 580.2C316.2 578 316.2 577.1 317.3 576.4L317.8 576L317.9 575.4C326 537.2 328 499.6 323.7 466.6C316.1 403.9 284.3 349.5 253.5 297C228.6 254.4 202.8 210.4 190.2 162.3L190.1 162C189.5 160.9 189.6 159.3 189.7 157.7C189.8 155.4 190 152.6 187.9 150.5C187.9 146.4 187.1 142.2 186.2 138.1C184.7 130.8 183.3 123.8 186.5 117.3C187.5 115.1 187.4 112.7 187.2 110.3C187 107.7 186.8 105.4 188.4 104L188.8 103.6L188.9 103C189.4 98.4001 190.4 92.5001 193.3 87.5001L193.4 87.2001C202 62.4001 220.1 40.4001 249 19.9001C270.2 4.80009 293.9 -8.69992 316.7 -21.6999C377 -56.0999 439.4 -91.5999 467.2 -161.5L467.3 -161.7C469.9 -171.7 472.9 -180.7 476.4 -189.1L476.5 -189.4C494.8 -279.9 489.7 -377.3 484.8 -471.5C484.6 -475 484.4 -478.5 484.3 -481.9H481C481.2 -478.4 481.4 -474.8 481.5 -471.3C486.4 -377.3 491.5 -280.2 473.3 -190.1C469.7 -181.6 466.7 -172.6 464.1 -162.5C436.6 -93.6999 374.8 -58.4999 315 -24.3999C292.1 -11.2999 268.4 2.20009 247 17.4001C217.7 38.2001 199.1 60.7001 190.3 86.2001C187.3 91.5001 186.2 97.5001 185.6 102.3C183.3 104.8 183.6 108 183.8 110.8C183.9 112.8 184.1 114.7 183.4 116.1C179.8 123.6 181.3 131.4 182.9 138.9C183.7 143 184.6 147.3 184.5 151.3V152.1L185.1 152.6C186.4 153.6 186.4 155.2 186.2 157.6C186.1 159.4 186 161.5 186.8 163.4C199.6 211.9 225.4 256 250.4 298.7C281 351 312.7 405.1 320.2 467.1C324.4 499.5 322.4 536.6 314.5 574.2C312.5 575.9 312.5 578.4 312.6 580.4C312.6 581.6 312.7 582.8 312.3 583.5C309.2 589 308.1 595.2 307.5 600.1C294.9 637.7 281 673.2 266.2 705.7C238.8 765.9 207 826.6 146.2 848.6C134.8 851.2 121.7 850.6 109.1 850.1C105 849.9 100.9 849.7 96.8002 849.7C95.1002 847.8 92.7001 847.9 90.7001 847.9C89.5001 847.9 88.3002 848 87.5002 847.5L87.2001 847.4C38.5001 833.2 -3.19989 802.3 -43.3999 772.5C-85.7999 741.1 -129.7 708.6 -182 695.4C-191.5 691.9 -203 693.1 -213.2 694.1L-214.9 694.3L-215.2 694.4C-247.4 704.1 -265.7 729.5 -269.6 769.7C-272.8 802.7 -266.2 839 -259.8 870.5L-259.7 870.8C-255.9 880.3 -252.9 890.8 -250.6 902.8L-250.5 903C-249.2 906.8 -247.6 910.6 -246.2 914.3C-243.5 921 -240.7 927.9 -239.1 935.1L-237.6 938.4C-233.8 946.2 -229.9 954.3 -227.6 962.8L-227.5 963.1C-194.7 1023.6 -154.6 1072.2 -108.4 1107.4C-102.9 1112.2 -97.3999 1117.2 -91.9999 1122C-60.1999 1150.6 -27.2999 1180.1 11.6001 1197.3C17.4001 1200.8 24.4001 1201.5 30.1001 1202C31.5001 1203.2 33.0002 1203.6 34.5002 1203.6C36.5002 1203.6 38.5002 1202.8 40.3002 1202.1C42.5002 1201.2 44.6002 1200.4 46.5002 1200.8L47.5002 1201L48.1001 1200.2C48.9001 1199.2 51.3002 1198.9 53.4002 1198.6L54.3002 1198.5L54.6001 1198.3C59.4001 1195.5 64.0002 1192.2 68.5002 1189C72.9002 1185.8 77.5001 1182.6 82.2001 1179.8L82.4002 1179.7L82.6001 1179.5C104.7 1154.2 123 1123.7 140.8 1094.2C176.7 1034.5 213.9 972.7 284.4 949.6L284.7 949.5L284.9 949.3C287.9 946.9 291.5 945.5 295.6 945H295.9L296.2 944.8C303.7 940.7 311.6 938.1 320 935.3C322 934.7 323.9 934 325.8 933.4C365.5 920.9 401.4 900.9 429.5 875.6C462 846.3 482 812.2 488.9 774.2C492.8 762.5 494.9 753.2 495.8 744.1C504.2 697.5 503 648.3 501.8 600.8C500.6 554.3 499.5 506.2 507.3 461C509.7 454.5 510.6 447.4 511.6 440.6L512 437.9C512.7 435.6 513.4 433.3 514.2 431C516.1 425.2 518.1 419.1 518.9 412.7C521.6 406.8 523.8 400 525.8 392.1C530.4 382.4 534.6 371.8 539.6 357.6C568.7 298 600.8 235.1 645.3 178.3C649.8 173.5 654.4 168.5 658.8 163.6C677.7 142.9 697.3 121.5 719.9 106.1L720 106C739.2 90.0001 759.9 75.7001 779.9 61.9001C796.7 50.3001 814 38.4001 830.5 25.4001C878.8 -15.2999 917.9 -70.9999 946.9 -140L947 -140.1C950 -145.1 953.2 -150.2 954 -156.3C957 -161.3 960.1 -166.4 960.9 -172.5C965.2 -181.2 969.2 -191 973.4 -201.4C991.4 -245.7 1011.8 -296 1068 -284.1C1070.1 -281.9 1073 -282 1075.4 -282.2C1077 -282.3 1078.5 -282.4 1079.7 -281.8C1085.1 -279.4 1091 -278.4 1096.8 -277.4L1098.4 -277.1C1161.5 -257 1264.7 -209.4 1248.8 -116.5C1246.5 -111.3 1245.5 -105.4 1244.5 -99.7999L1244.2 -98.0999C1227.8 -59.1999 1201.8 -22.3999 1176.6 13.2001C1151.5 48.7001 1125.5 85.5001 1109 124.4C1090.4 168.2 1086.1 210.3 1095.8 252.8C1114.8 330.9 1157 400.7 1217.9 454.7C1265.7 497.1 1322.4 527.5 1383.8 544.2V541H1384Z" fill="url(#paint1_linear_142_4479)" fill-opacity="0.44"/>
        <path d="M414.9 373.5L414.7 373.4C413.4 373.1 412.2 372.7 411 372.3C408.2 371.4 405.7 370.6 402.6 370.6H402.2L402 370.5C401.6 370.3 401.4 369.8 401.6 369.4C401.8 369.1 402.1 368.9 402.4 369H402.5C405.8 369 408.7 369.9 411.4 370.8C412.5 371.2 413.6 371.5 414.8 371.8C415.2 371.7 415.6 371.9 415.8 372.4C415.9 372.8 415.7 373.3 415.3 373.4L414.9 373.5ZM427.4 369.2C427.1 369.2 426.8 369 426.6 368.7C426.4 368.3 426.6 367.8 427.1 367.6C431.4 365.9 434.8 364.2 437.8 362.1L438.2 361.7C438.5 361.4 439 361.3 439.4 361.7C439.7 362 439.7 362.5 439.5 362.9L438.9 363.5C435.7 365.7 432.2 367.5 427.8 369.3C427.6 369.2 427.5 369.2 427.4 369.2ZM391.2 363.8C391 363.8 390.9 363.8 390.7 363.7C387.4 361.3 384 358.6 380.5 355.4C380.1 355.1 380.1 354.6 380.4 354.2C380.7 353.9 381.2 353.8 381.6 354.1C385.1 357.2 388.4 359.9 391.7 362.2C392.1 362.5 392.2 363 391.9 363.3C391.7 363.7 391.4 363.8 391.2 363.8ZM447.5 353.3C447.3 353.3 447.1 353.2 447 353.1C446.7 352.8 446.6 352.3 446.9 351.9C449.7 348.6 452.5 345.2 455.2 341.8C455.5 341.5 456 341.4 456.4 341.7C456.8 342 456.8 342.5 456.5 342.8C453.8 346.2 451 349.6 448.1 352.9C447.9 353.2 447.7 353.3 447.5 353.3ZM371.6 346.6C371.4 346.6 371.2 346.5 371 346.4C368.3 343.7 365.6 340.9 363 338.2L361.9 337.1C361.6 336.8 361.6 336.3 361.9 335.9C362.2 335.6 362.7 335.6 363.1 335.9L364.2 337C366.8 339.7 369.5 342.5 372.2 345.2C372.5 345.5 372.5 346 372.2 346.4C372 346.5 371.8 346.6 371.6 346.6ZM463.8 332.8C463.6 332.8 463.4 332.8 463.3 332.6C462.9 332.3 462.8 331.8 463.1 331.5C465.7 328.1 468.3 324.5 470.8 320.9C471.1 320.5 471.6 320.4 471.9 320.7C472.3 321 472.4 321.5 472.1 321.8C469.6 325.4 467 329 464.4 332.4C464.3 332.7 464.1 332.8 463.8 332.8ZM354.5 326.9C354.2 326.9 354 326.8 353.8 326.6C351.2 323.1 348.5 319.7 345.9 316.2C345.6 315.8 345.7 315.3 346.1 315C346.5 314.7 347 314.8 347.3 315.2C349.9 318.7 352.6 322.2 355.2 325.6C355.5 326 355.4 326.5 355 326.7C354.8 326.8 354.7 326.9 354.5 326.9ZM478.8 311.4C478.6 311.4 478.5 311.4 478.4 311.3C478 311 477.9 310.5 478.2 310.2C480.6 306.6 482.9 302.9 485.2 299.2C485.4 298.8 485.9 298.7 486.3 298.9C486.7 299.1 486.8 299.6 486.6 300C484.3 303.7 481.9 307.4 479.6 311C479.4 311.3 479.1 311.4 478.8 311.4ZM338.7 306C338.4 306 338.2 305.9 338.1 305.7C335.3 302 332.8 298.5 330.4 295.1C330.1 294.7 330.2 294.2 330.6 294C331 293.7 331.5 293.8 331.8 294.2C334.2 297.6 336.8 301 339.5 304.7C339.8 305.1 339.7 305.6 339.3 305.8C339.1 306 338.9 306 338.7 306ZM492.6 289.2C492.5 289.2 492.3 289.2 492.2 289.1C491.8 288.9 491.7 288.4 491.9 288C494.1 284.3 496.2 280.5 498.4 276.7C498.6 276.3 499.1 276.2 499.5 276.4C499.9 276.6 500 277.1 499.8 277.5C497.7 281.4 495.5 285.2 493.3 288.9C493.2 289 492.9 289.2 492.6 289.2ZM323.5 284.8C323.2 284.8 323 284.7 322.8 284.4C320.2 280.7 317.8 277.1 315.4 273.6C315.1 273.2 315.2 272.7 315.6 272.5C316 272.2 316.5 272.4 316.7 272.7C319 276.2 321.5 279.8 324 283.5C324.3 283.9 324.2 284.4 323.8 284.6C323.8 284.8 323.6 284.8 323.5 284.8ZM505.3 266.3C505.2 266.3 505 266.3 504.9 266.2C504.5 266 504.4 265.5 504.5 265.1C506.5 261.3 508.5 257.4 510.5 253.5C510.7 253.1 511.2 252.9 511.6 253.1C512 253.3 512.2 253.8 512 254.2C510 258.2 508 262.1 506 265.8C505.9 266.2 505.6 266.3 505.3 266.3ZM309 263C308.7 263 308.5 262.9 308.3 262.6C305.9 258.8 303.7 255.1 301.5 251.4C301.3 251 301.4 250.5 301.8 250.3C302.2 250.1 302.7 250.2 302.9 250.6C305 254.2 307.3 258 309.7 261.8C309.9 262.2 309.8 262.7 309.4 262.9C309.3 263 309.2 263 309 263ZM517 243C516.9 243 516.7 243 516.6 242.9C516.2 242.7 516 242.2 516.2 241.8C518 238 519.9 234 521.8 230C522 229.6 522.5 229.4 522.9 229.6C523.3 229.8 523.5 230.3 523.3 230.7C521.4 234.7 519.5 238.7 517.7 242.5C517.6 242.8 517.3 243 517 243ZM295.8 240.4C295.5 240.4 295.2 240.3 295.1 240C293 236.1 291 232.2 289.1 228.4C288.9 228 289.1 227.5 289.5 227.3C289.9 227.1 290.4 227.3 290.6 227.7C292.5 231.5 294.5 235.4 296.6 239.3C296.8 239.7 296.7 240.2 296.3 240.4C296.1 240.4 295.9 240.4 295.8 240.4ZM528 219.2C527.9 219.2 527.8 219.2 527.7 219.1C527.3 218.9 527.1 218.4 527.3 218C529.1 214 530.9 210 532.6 206.1C532.8 205.7 533.3 205.5 533.7 205.7C534.1 205.9 534.3 206.4 534.1 206.8C532.3 210.8 530.6 214.8 528.8 218.8C528.6 219.1 528.4 219.2 528 219.2ZM284.3 217C284 217 283.7 216.8 283.5 216.5C281.7 212.4 280.1 208.4 278.6 204.4C278.4 204 278.7 203.5 279.1 203.4C279.5 203.2 280 203.4 280.2 203.9C281.7 207.9 283.4 211.9 285.1 216C285.3 216.4 285.1 216.9 284.7 217.1C284.5 216.9 284.4 217 284.3 217ZM538.5 195.3C538.4 195.3 538.3 195.3 538.2 195.2C537.8 195 537.6 194.5 537.8 194.1C539.5 190.1 541.2 186.1 542.9 182.1C543.1 181.7 543.6 181.5 544 181.7C544.4 181.9 544.6 182.4 544.5 182.8C542.8 186.8 541.1 190.8 539.4 194.8C539.1 195.1 538.8 195.3 538.5 195.3ZM275.1 192.5C274.7 192.5 274.4 192.3 274.3 191.9C273 187.7 271.8 183.5 270.7 179.3C270.6 178.9 270.9 178.4 271.3 178.3C271.7 178.2 272.2 178.5 272.3 178.9C273.4 183 274.6 187.3 275.9 191.4C276 191.8 275.8 192.3 275.4 192.4C275.2 192.5 275.2 192.5 275.1 192.5ZM548.6 171.2C548.5 171.2 548.4 171.2 548.3 171.1C547.9 170.9 547.7 170.5 547.9 170C549.6 166 551.2 162 552.9 157.9C553.1 157.5 553.5 157.3 554 157.4C554.4 157.6 554.6 158.1 554.4 158.5C552.7 162.5 551.1 166.5 549.4 170.6C549.3 171 549 171.2 548.6 171.2ZM268.6 167.2C268.2 167.2 267.9 166.9 267.8 166.5C267 162.2 266.3 157.8 265.8 153.5C265.7 153.1 266.1 152.6 266.5 152.6C266.9 152.5 267.3 152.9 267.4 153.3C267.9 157.6 268.6 161.9 269.4 166.2C269.5 166.7 269.2 167.1 268.8 167.2C268.8 167.2 268.7 167.2 268.6 167.2ZM558.7 147C558.6 147 558.5 147 558.4 146.9C558 146.7 557.8 146.2 557.9 145.8C559.6 141.8 561.2 137.8 562.9 133.7C563.1 133.3 563.5 133.1 564 133.3C564.4 133.5 564.6 134 564.4 134.4C562.7 138.4 561 142.4 559.4 146.5C559.3 146.9 559 147 558.7 147ZM267.8 141.5H267.7C267.3 141.4 266.9 141 267 140.6C267.6 136.3 268.5 132 269.6 127.7C269.7 127.3 270.1 127 270.6 127.1C271 127.2 271.3 127.7 271.2 128.1C270.1 132.3 269.2 136.6 268.6 140.8C268.5 141.2 268.2 141.5 267.8 141.5ZM568.8 122.9C568.7 122.9 568.6 122.9 568.5 122.8C568.1 122.6 567.9 122.1 568.1 121.7C569.8 117.7 571.5 113.7 573.2 109.7C573.4 109.3 573.9 109.1 574.3 109.3C574.7 109.5 574.9 110 574.7 110.4C573 114.4 571.3 118.4 569.6 122.4C569.4 122.7 569.1 122.9 568.8 122.9ZM274.4 116.3C274.3 116.3 274.2 116.3 274.1 116.2C273.7 116 273.5 115.6 273.6 115.1C275.1 111.1 276.9 107 278.9 103.1C279.1 102.7 279.6 102.5 280 102.7C280.4 102.9 280.6 103.4 280.4 103.8C278.4 107.7 276.7 111.7 275.2 115.7C275 116.1 274.7 116.3 274.4 116.3ZM579.1 98.9001C579 98.9001 578.9 98.9001 578.8 98.8001C578.4 98.6001 578.2 98.1001 578.4 97.7001C580.2 93.6001 582 89.6001 583.8 85.8001C584 85.4001 584.5 85.2001 584.9 85.4001C585.3 85.6001 585.5 86.1001 585.3 86.5001C583.6 90.3001 581.7 94.3001 579.9 98.4001C579.7 98.7001 579.4 98.9001 579.1 98.9001ZM286 92.9001C285.9 92.9001 285.7 92.9001 285.6 92.8001C285.2 92.6001 285.1 92.1001 285.3 91.7001C287.2 88.6001 289.3 85.4001 291.6 82.3001C292.1 81.8001 292.5 81.3001 292.9 80.9001C293.2 80.6001 293.7 80.5001 294.1 80.9001C294.4 81.2001 294.4 81.7001 294.1 82.1001C293.7 82.5001 293.3 83.0001 292.9 83.5001C290.8 86.5001 288.7 89.6001 286.7 92.7001C286.5 92.8001 286.3 92.9001 286 92.9001ZM590 75.1001C589.9 75.1001 589.8 75.1001 589.6 75.0001C589.2 74.8001 589 74.3001 589.2 73.9001C591.1 69.9001 593 65.9001 594.9 62.1001C595.1 61.7001 595.6 61.5001 596 61.7001C596.4 61.9001 596.6 62.4001 596.4 62.8001C594.5 66.6001 592.6 70.5001 590.7 74.6001C590.6 74.9001 590.3 75.1001 590 75.1001ZM302.7 73.0001C302.5 73.0001 302.3 72.9001 302.1 72.7001C301.8 72.4001 301.8 71.9001 302.1 71.5001C305.2 68.6001 308.6 65.7001 312 62.9001C312.4 62.6001 312.9 62.7001 313.1 63.0001C313.4 63.4001 313.3 63.9001 313 64.2001C309.6 66.9001 306.3 69.8001 303.2 72.7001C303.1 72.9001 302.9 73.0001 302.7 73.0001ZM322.9 56.5001C322.6 56.5001 322.4 56.4001 322.2 56.2001C321.9 55.8001 322 55.3001 322.4 55.1001C325.9 52.6001 329.5 50.2001 333.3 47.8001C333.7 47.6001 334.2 47.7001 334.4 48.1001C334.6 48.5001 334.5 49.0001 334.1 49.2001C330.4 51.6001 326.8 54.0001 323.3 56.4001C323.3 56.4001 323.1 56.5001 322.9 56.5001ZM601.5 51.7001C601.4 51.7001 601.2 51.7001 601.1 51.6001C600.7 51.4001 600.5 50.9001 600.7 50.5001L601.5 48.9001C603.8 45.9001 606.2 42.9001 608.7 40.0001C609 39.7001 609.5 39.6001 609.9 39.9001C610.2 40.2001 610.3 40.7001 610 41.1001C607.5 43.9001 605.2 46.9001 602.9 49.9001L602.2 51.3001C602.1 51.5001 601.8 51.7001 601.5 51.7001ZM345 42.5001C344.7 42.5001 344.5 42.4001 344.3 42.1001C344.1 41.7001 344.2 41.2001 344.6 41.0001C348.2 38.9001 352.1 36.8001 356.1 34.8001C356.5 34.6001 357 34.8001 357.2 35.2001C357.4 35.6001 357.2 36.1001 356.8 36.3001C352.8 38.4001 349 40.4001 345.3 42.5001C345.2 42.5001 345.1 42.5001 345 42.5001ZM618.3 31.7001C618.1 31.7001 617.9 31.6001 617.7 31.5001C617.4 31.2001 617.4 30.7001 617.7 30.3001C620.7 27.3001 624 24.2001 627.3 21.3001C627.7 21.0001 628.2 21.0001 628.5 21.4001C628.8 21.7001 628.8 22.3001 628.4 22.6001C625.1 25.5001 621.9 28.5001 618.9 31.5001C618.7 31.7001 618.5 31.7001 618.3 31.7001ZM368.2 30.5001C367.9 30.5001 367.6 30.3001 367.5 30.0001C367.3 29.6001 367.5 29.1001 367.9 28.9001C371.6 27.1001 375.5 25.3001 379.8 23.4001C380.2 23.2001 380.7 23.4001 380.9 23.8001C381.1 24.2001 380.9 24.7001 380.5 24.9001C376.3 26.8001 372.4 28.6001 368.6 30.4001C368.4 30.5001 368.3 30.5001 368.2 30.5001ZM392 19.8001C391.7 19.8001 391.4 19.6001 391.2 19.3001C391 18.9001 391.2 18.4001 391.6 18.2001C395.6 16.5001 399.6 14.8001 403.7 13.1001C404.1 12.9001 404.6 13.1001 404.8 13.5001C405 13.9001 404.8 14.4001 404.4 14.6001C400.4 16.3001 396.4 18.0001 392.4 19.7001C392.2 19.8001 392.1 19.8001 392 19.8001ZM637.9 14.5001C637.6 14.5001 637.4 14.4001 637.3 14.2001C637 13.8001 637.1 13.3001 637.4 13.1001C640.7 10.5001 644.3 7.90008 648 5.30008C648.4 5.00008 648.9 5.10009 649.1 5.50009C649.4 5.90009 649.3 6.4001 648.9 6.6001C645.3 9.1001 641.7 11.7001 638.4 14.3001C638.3 14.4001 638.1 14.5001 637.9 14.5001ZM416.1 9.7001C415.8 9.7001 415.5 9.5001 415.4 9.2001C415.2 8.8001 415.4 8.3001 415.8 8.1001C419.8 6.4001 423.8 4.70009 427.8 3.00009C428.2 2.80009 428.7 3.00009 428.9 3.40009C429.1 3.80009 428.9 4.30009 428.5 4.50009C424.5 6.20009 420.5 7.9001 416.4 9.6001C416.3 9.7001 416.2 9.7001 416.1 9.7001ZM659.3 -0.499908C659 -0.499908 658.8 -0.599902 658.6 -0.899902C658.3 -1.2999 658.5 -1.79991 658.8 -1.99991C662.4 -4.29991 666 -6.4999 670 -8.8999C670.4 -9.0999 670.9 -8.99991 671.1 -8.59991C671.3 -8.19991 671.2 -7.69991 670.8 -7.49991C666.9 -5.19991 663.2 -2.89992 659.7 -0.699921C659.6 -0.499921 659.5 -0.499908 659.3 -0.499908ZM440.1 -0.699921C439.8 -0.699921 439.5 -0.899921 439.4 -1.19992C439.2 -1.59992 439.4 -2.0999 439.8 -2.2999C444 -4.1999 447.9 -5.9999 451.6 -7.7999C452 -7.9999 452.5 -7.7999 452.7 -7.3999C452.9 -6.9999 452.7 -6.4999 452.3 -6.2999C448.5 -4.4999 444.7 -2.6999 440.4 -0.799896C440.3 -0.699896 440.2 -0.699921 440.1 -0.699921ZM463.6 -11.9999C463.3 -11.9999 463 -12.1999 462.9 -12.3999C462.7 -12.7999 462.9 -13.2999 463.3 -13.4999C467.3 -15.5999 471.1 -17.6999 474.7 -19.7999C475.1 -19.9999 475.6 -19.8999 475.8 -19.4999C476 -19.0999 475.9 -18.5999 475.5 -18.3999C471.9 -16.2999 468 -14.1999 464 -12.0999C463.9 -11.9999 463.7 -11.9999 463.6 -11.9999ZM681.8 -13.8999C681.5 -13.8999 681.2 -13.9999 681.1 -14.2999C680.9 -14.6999 681 -15.1999 681.4 -15.3999C684.8 -17.2999 688.5 -19.2999 692.8 -21.6999C693.2 -21.8999 693.7 -21.7999 693.9 -21.3999C694.1 -20.9999 694 -20.4999 693.6 -20.2999C689.2 -17.8999 685.6 -15.8999 682.2 -13.9999C682 -13.8999 681.9 -13.8999 681.8 -13.8999ZM486.2 -25.0999C485.9 -25.0999 485.7 -25.1999 485.5 -25.4999C485.2 -25.8999 485.4 -26.3999 485.7 -26.5999C489.4 -28.9999 493 -31.4999 496.4 -33.9999C496.8 -34.2999 497.3 -34.1999 497.5 -33.7999C497.8 -33.3999 497.7 -32.8999 497.3 -32.6999C493.9 -30.1999 490.2 -27.6999 486.5 -25.1999C486.5 -25.1999 486.4 -25.0999 486.2 -25.0999ZM704.7 -26.3999C704.4 -26.3999 704.1 -26.5999 704 -26.7999C703.8 -27.1999 703.9 -27.6999 704.3 -27.8999C708.1 -29.9999 712 -31.9999 715.8 -34.0999C716.2 -34.2999 716.7 -34.1999 716.9 -33.7999C717.1 -33.3999 717 -32.8999 716.6 -32.6999C712.8 -30.5999 708.9 -28.4999 705.1 -26.4999C704.9 -26.4999 704.8 -26.3999 704.7 -26.3999ZM727.6 -38.9999C727.3 -38.9999 727 -39.0999 726.9 -39.3999C726.7 -39.7999 726.8 -40.2999 727.2 -40.4999C731.3 -42.7999 735 -44.9999 738.5 -47.0999C738.9 -47.2999 739.4 -47.1999 739.6 -46.7999C739.8 -46.3999 739.7 -45.8999 739.3 -45.6999C735.8 -43.5999 732.1 -41.3999 728 -39.0999C727.9 -38.9999 727.7 -38.9999 727.6 -38.9999ZM507.2 -40.5999C507 -40.5999 506.7 -40.6999 506.6 -40.8999C506.3 -41.2999 506.3 -41.7999 506.7 -42.0999C510 -44.8999 513.3 -47.7999 516.4 -50.7999C516.7 -51.0999 517.2 -51.0999 517.6 -50.7999C517.9 -50.4999 517.9 -49.9999 517.6 -49.5999C514.5 -46.5999 511.2 -43.6999 507.9 -40.7999C507.6 -40.6999 507.4 -40.5999 507.2 -40.5999ZM750 -52.4999C749.7 -52.4999 749.5 -52.5999 749.3 -52.8999C749 -53.2999 749.2 -53.7999 749.5 -53.9999C753.3 -56.3999 756.9 -58.8999 760.3 -61.2999C760.7 -61.5999 761.2 -61.4999 761.4 -61.0999C761.7 -60.6999 761.6 -60.1999 761.2 -59.9999C757.8 -57.5999 754.1 -55.0999 750.3 -52.6999C750.3 -52.4999 750.1 -52.4999 750 -52.4999ZM525.5 -59.0999C525.4 -59.0999 525.2 -59.0999 525.1 -59.1999C524.7 -59.3999 524.6 -59.8999 524.8 -60.2999C526.9 -63.9999 528.9 -67.8999 530.8 -71.7999C531 -72.1999 531.5 -72.3999 531.9 -72.1999C532.3 -71.9999 532.5 -71.4999 532.3 -71.0999C530.4 -67.0999 528.4 -63.1999 526.2 -59.4999C526 -59.1999 525.8 -59.0999 525.5 -59.0999ZM771.3 -67.4999C771.1 -67.4999 770.8 -67.5999 770.7 -67.7999C770.4 -68.1999 770.5 -68.6999 770.8 -68.8999C774.3 -71.5999 777.7 -74.3999 780.8 -77.1999C781.2 -77.4999 781.7 -77.4999 782 -77.0999C782.3 -76.7999 782.3 -76.1999 781.9 -75.8999C778.7 -73.0999 775.3 -70.2999 771.8 -67.4999C771.7 -67.5999 771.5 -67.4999 771.3 -67.4999ZM536.7 -82.6999C536.6 -82.6999 536.5 -82.6999 536.4 -82.6999C536 -82.8999 535.8 -83.2999 535.9 -83.7999C537.4 -87.6999 538.9 -91.8999 540.2 -96.0999C540.3 -96.4999 540.8 -96.7999 541.2 -96.5999C541.6 -96.4999 541.9 -95.9999 541.7 -95.5999C540.4 -91.3999 538.9 -87.1999 537.4 -83.1999C537.3 -82.8999 537 -82.6999 536.7 -82.6999ZM790.9 -84.7999C790.7 -84.7999 790.5 -84.8999 790.3 -84.9999C790 -85.2999 790 -85.7999 790.3 -86.1999C793.4 -89.2999 796.4 -92.4999 799.1 -95.6999C799.4 -95.9999 799.9 -96.0999 800.3 -95.7999C800.7 -95.4999 800.7 -94.9999 800.4 -94.5999C797.6 -91.2999 794.6 -88.0999 791.5 -84.9999C791.3 -84.7999 791.1 -84.7999 790.9 -84.7999ZM807.7 -104.7C807.5 -104.7 807.4 -104.7 807.2 -104.8C806.8 -105.1 806.7 -105.6 807 -105.9C809.5 -109.4 812.1 -113 814.6 -116.5C814.9 -116.9 815.4 -117 815.8 -116.7C816.2 -116.4 816.2 -115.9 816 -115.6C813.5 -112 810.9 -108.5 808.4 -105C808.2 -104.8 808 -104.7 807.7 -104.7ZM544.5 -107.6C544.4 -107.6 544.4 -107.6 544.3 -107.6C543.9 -107.7 543.6 -108.2 543.7 -108.6C544.7 -112.7 545.7 -117 546.5 -121.3C546.6 -121.8 547 -122 547.5 -121.9C547.9 -121.8 548.2 -121.4 548.1 -120.9C547.2 -116.5 546.3 -112.2 545.2 -108.1C545.2 -107.8 544.9 -107.6 544.5 -107.6ZM822.8 -126.1C822.6 -126.1 822.5 -126.1 822.4 -126.2C822 -126.5 821.9 -127 822.2 -127.3C824.8 -131.2 827.1 -134.8 829.2 -138.3C829.4 -138.7 829.9 -138.8 830.3 -138.6C830.7 -138.4 830.8 -137.9 830.6 -137.5C828.5 -134 826.2 -130.3 823.6 -126.4C823.3 -126.2 823 -126.1 822.8 -126.1ZM549.6 -133.2H549.5C549.1 -133.3 548.7 -133.7 548.8 -134.1C549.4 -138.2 550 -142.6 550.6 -147C550.7 -147.5 551.1 -147.8 551.5 -147.7C551.9 -147.6 552.3 -147.2 552.2 -146.8C551.7 -142.3 551.1 -137.9 550.4 -133.8C550.3 -133.5 550 -133.2 549.6 -133.2ZM835.1 -149C835 -149 834.9 -149 834.8 -149.1C834.4 -149.3 834.2 -149.7 834.4 -150.2C836.2 -154.9 837.7 -158.8 839 -162.4C839.2 -162.8 839.6 -163 840.1 -162.9C840.5 -162.7 840.7 -162.3 840.6 -161.9C839.3 -158.3 837.8 -154.4 836 -149.6C835.7 -149.2 835.4 -149 835.1 -149ZM552.7 -159.2C552.2 -159.3 551.8 -159.7 551.9 -160.1C552.3 -164.2 552.6 -168.4 553 -173.1C553 -173.6 553.4 -173.9 553.9 -173.9C554.4 -173.9 554.7 -173.5 554.7 -173C554.3 -168.3 554 -164 553.6 -159.9C553.5 -159.6 553.2 -159.2 552.7 -159.2ZM843.9 -173.6C843.8 -173.6 843.7 -173.6 843.7 -173.6C843.3 -173.7 843 -174.2 843.2 -174.6C844.5 -179 845.7 -183.1 846.6 -187.2C846.7 -187.6 847.1 -187.9 847.6 -187.8C848 -187.7 848.3 -187.3 848.2 -186.8C847.3 -182.7 846.1 -178.6 844.8 -174.1C844.6 -173.9 844.2 -173.6 843.9 -173.6ZM554.8 -185.3C554.8 -185.3 554.7 -185.3 554.8 -185.3C554.3 -185.3 553.9 -185.7 554 -186.2C554.3 -190.4 554.5 -194.6 554.8 -198.7V-199.2C554.8 -199.6 555.2 -200 555.7 -200C556.1 -200 556.5 -199.6 556.5 -199.1V-198.6C556.2 -194.4 556 -190.2 555.7 -186.1C555.6 -185.7 555.2 -185.3 554.8 -185.3ZM849.7 -199.1C849.7 -199.1 849.6 -199.1 849.7 -199.1C849.2 -199.2 848.8 -199.6 848.9 -200C849.5 -204.4 849.9 -208.7 850 -212.9C850 -213.3 850.4 -213.7 850.8 -213.7C851.3 -213.7 851.6 -213.3 851.6 -212.9C851.5 -208.6 851.1 -204.2 850.5 -199.8C850.4 -199.4 850.1 -199.1 849.7 -199.1ZM556.4 -211.4C556.4 -211.4 556.4 -211.5 556.4 -211.4C555.9 -211.4 555.6 -211.8 555.6 -212.3C555.9 -216.7 556.2 -221 556.5 -225.3C556.5 -225.7 557 -226.1 557.4 -226.1C557.8 -226.1 558.2 -225.7 558.2 -225.2C557.9 -220.9 557.6 -216.5 557.3 -212.2C557.2 -211.8 556.9 -211.4 556.4 -211.4ZM849 -225C848.6 -225 848.3 -225.3 848.2 -225.6L847.4 -228.9C846.7 -232 845.9 -235.2 845.1 -238.3C845 -238.7 845.3 -239.2 845.7 -239.3C846.1 -239.4 846.6 -239.1 846.7 -238.7C847.5 -235.6 848.2 -232.4 849 -229.3L849.8 -226C849.9 -225.6 849.6 -225.1 849.2 -225C849.1 -225 849 -225 849 -225ZM558.5 -237.5C558 -237.5 557.6 -237.9 557.7 -238.4C558.1 -243 558.6 -247.2 559.1 -251.4C559.2 -251.8 559.6 -252.2 560 -252.1C560.4 -252 560.8 -251.6 560.7 -251.2C560.2 -247.1 559.7 -242.8 559.3 -238.2C559.3 -237.8 558.9 -237.5 558.5 -237.5ZM842.5 -250.3C842.1 -250.3 841.8 -250.5 841.7 -250.9C841.4 -252 841.1 -253.1 840.7 -254.2C839.1 -256.5 837.3 -259 835.3 -261.8C835 -262.2 835.1 -262.7 835.5 -262.9C835.9 -263.2 836.4 -263.1 836.7 -262.7C838.7 -259.8 840.5 -257.3 842.1 -255L842.2 -254.8C842.6 -253.6 842.9 -252.5 843.3 -251.3C843.4 -250.9 843.2 -250.4 842.7 -250.3C842.7 -250.3 842.6 -250.3 842.5 -250.3ZM561.7 -263.4H561.6C561.2 -263.5 560.9 -263.9 560.9 -264.3C561.6 -268.7 562.4 -273.1 563.2 -277.2C563.3 -277.6 563.7 -277.9 564.2 -277.8C564.7 -277.7 564.9 -277.3 564.8 -276.8C564 -272.7 563.2 -268.4 562.5 -264C562.5 -263.7 562.1 -263.4 561.7 -263.4ZM828.6 -272.3C828.3 -272.3 828.1 -272.4 827.9 -272.7C825.6 -276.1 823.1 -279.8 820.4 -283.4C820.1 -283.8 820.2 -284.3 820.6 -284.5C821 -284.8 821.5 -284.7 821.7 -284.3C824.3 -280.6 826.8 -277 829.2 -273.6C829.5 -273.2 829.4 -272.7 829 -272.5C829 -272.3 828.8 -272.3 828.6 -272.3ZM566.9 -289C566.8 -289 566.8 -289 566.7 -289C566.3 -289.1 566 -289.6 566.1 -290C567.2 -294.3 568.4 -298.6 569.7 -302.6C569.8 -303 570.3 -303.3 570.7 -303.1C571.1 -302.9 571.4 -302.5 571.2 -302.1C569.9 -298.1 568.7 -293.9 567.6 -289.6C567.6 -289.3 567.3 -289 566.9 -289ZM811.7 -291.9C811.5 -291.9 811.3 -291.9 811.2 -292.1C807.8 -294.8 804.3 -297.4 800.8 -299.9C800.4 -300.2 800.4 -300.7 800.6 -301C800.9 -301.4 801.4 -301.4 801.8 -301.2C805.3 -298.7 808.9 -296 812.3 -293.4C812.7 -293.1 812.7 -292.6 812.4 -292.3C812.2 -292 812 -291.9 811.7 -291.9ZM790.4 -307.1C790.2 -307.1 790.1 -307.1 790 -307.2C786.4 -309.5 782.7 -311.8 778.9 -314C778.5 -314.2 778.4 -314.7 778.6 -315.1C778.8 -315.5 779.3 -315.6 779.7 -315.4C783.5 -313.2 787.2 -310.9 790.9 -308.5C791.3 -308.3 791.4 -307.7 791.1 -307.4C791 -307.2 790.7 -307.1 790.4 -307.1ZM574.9 -313.9C574.8 -313.9 574.7 -313.9 574.6 -314C574.2 -314.2 574 -314.6 574.1 -315.1C575.7 -319.2 577.5 -323.3 579.4 -327.1C579.6 -327.5 580.1 -327.7 580.5 -327.5C580.9 -327.3 581.1 -326.8 580.9 -326.4C579 -322.6 577.3 -318.6 575.7 -314.5C575.5 -314.1 575.2 -313.9 574.9 -313.9ZM767.9 -320.3C767.8 -320.3 767.6 -320.3 767.5 -320.4C763.7 -322.4 759.8 -324.4 755.9 -326.3C755.5 -326.5 755.3 -327 755.5 -327.4C755.7 -327.8 756.2 -328 756.6 -327.8C760.5 -325.9 764.5 -323.9 768.3 -321.9C768.7 -321.7 768.8 -321.2 768.6 -320.8C768.5 -320.5 768.2 -320.3 767.9 -320.3ZM744.4 -331.7C744.3 -331.7 744.2 -331.7 744.1 -331.8C740.2 -333.5 736.1 -335.2 732 -336.8C731.6 -337 731.4 -337.4 731.6 -337.9C731.8 -338.3 732.2 -338.5 732.7 -338.4C736.8 -336.8 740.8 -335.1 744.8 -333.4C745.2 -333.2 745.4 -332.7 745.2 -332.3C745 -331.8 744.7 -331.7 744.4 -331.7ZM586.3 -337.3C586.2 -337.3 586 -337.3 585.9 -337.4C585.5 -337.6 585.4 -338.1 585.6 -338.5C586.8 -340.6 588.1 -342.6 589.4 -344.7L589.6 -344.9C591.1 -346.1 592.7 -347.3 594.3 -348.4C594.7 -348.7 595.2 -348.6 595.4 -348.2C595.7 -347.8 595.6 -347.3 595.2 -347.1C593.7 -346 592.1 -344.9 590.7 -343.7C589.4 -341.7 588.2 -339.7 587 -337.7C586.9 -337.5 586.6 -337.3 586.3 -337.3ZM720.1 -341.2C720 -341.2 719.9 -341.2 719.8 -341.2C715.8 -342.6 711.6 -344 707.4 -345.3C707 -345.4 706.7 -345.9 706.9 -346.3C707 -346.7 707.5 -347 707.9 -346.8C712.1 -345.5 716.3 -344.1 720.3 -342.7C720.7 -342.6 720.9 -342.1 720.8 -341.7C720.7 -341.4 720.4 -341.2 720.1 -341.2ZM695.1 -348.9C695 -348.9 694.9 -348.9 694.9 -348.9C690.8 -350.1 686.5 -351.1 682.3 -352.2C681.9 -352.3 681.6 -352.7 681.7 -353.2C681.8 -353.6 682.3 -353.9 682.7 -353.8C687 -352.8 691.2 -351.7 695.4 -350.5C695.8 -350.4 696.1 -349.9 696 -349.5C695.8 -349.2 695.5 -348.9 695.1 -348.9ZM606.2 -353.3C605.9 -353.3 605.6 -353.5 605.5 -353.8C605.3 -354.2 605.5 -354.7 605.9 -354.9C609.7 -356.6 613.8 -358.1 618.3 -359.5C618.7 -359.6 619.2 -359.4 619.3 -358.9C619.4 -358.5 619.2 -358 618.8 -357.9C614.4 -356.6 610.4 -355.1 606.7 -353.4C606.4 -353.3 606.3 -353.3 606.2 -353.3ZM669.7 -355.1C669.6 -355.1 669.6 -355.1 669.5 -355.1C665.3 -356 661 -356.8 656.7 -357.6C656.3 -357.7 656 -358.1 656.1 -358.6C656.2 -359 656.6 -359.3 657 -359.3C661.3 -358.5 665.6 -357.7 669.9 -356.8C670.3 -356.7 670.6 -356.3 670.5 -355.8C670.5 -355.4 670.1 -355.1 669.7 -355.1ZM644 -359.8H643.9C640.4 -360.3 636.8 -360.9 633.3 -361.3C632.6 -361.2 632 -361 631.3 -360.9C630.9 -360.8 630.4 -361.1 630.3 -361.5C630.2 -361.9 630.5 -362.4 630.9 -362.5C631.6 -362.6 632.3 -362.8 633.1 -362.9H633.2H633.3C636.9 -362.4 640.5 -361.9 644.1 -361.3C644.5 -361.2 644.8 -360.8 644.8 -360.4C644.8 -360.1 644.4 -359.8 644 -359.8Z" fill="url(#paint2_linear_142_4479)" fill-opacity="0.44"/>
        <path d="M155.7 345.1C155.9 345.4 156.1 345.5 156.4 345.5C156.5 345.5 156.7 345.5 156.8 345.4C157.2 345.2 157.3 344.7 157.1 344.3C155 340.7 152.8 337 150.3 333.1C150.1 332.7 149.6 332.6 149.2 332.8C148.8 333 148.7 333.5 148.9 333.9C151.3 337.9 153.5 341.6 155.7 345.1Z" fill="url(#paint3_linear_142_4479)" fill-opacity="0.44"/>
        <path d="M85.5998 234.8C85.6998 235.1 85.9998 235.2 86.2998 235.2C86.3998 235.2 86.5998 235.2 86.6998 235.1C87.0998 234.9 87.1998 234.4 86.9998 234C84.7998 230.3 82.4998 226.5 80.2998 222.8C80.0998 222.4 79.5998 222.3 79.1998 222.5C78.7998 222.7 78.6998 223.2 78.8998 223.6C81.1998 227.3 83.3998 231 85.5998 234.8Z" fill="url(#paint4_linear_142_4479)" fill-opacity="0.44"/>
        <path d="M208.5 491.8C208.6 491.8 208.6 491.8 208.5 491.8C209 491.8 209.3 491.4 209.3 490.9C209 486.4 208.5 482 208 477.8C207.9 477.4 207.5 477.1 207.1 477.1C206.7 477.2 206.4 477.6 206.4 478C207 482.2 207.4 486.5 207.7 491C207.7 491.5 208.1 491.8 208.5 491.8Z" fill="url(#paint5_linear_142_4479)" fill-opacity="0.44"/>
        <path d="M59.3002 189.6C59.5002 189.9 59.7002 190 60.0002 190C60.1002 190 60.3002 190 60.4002 189.9C60.8002 189.7 60.9001 189.2 60.7001 188.8C58.5001 185 56.4001 181.2 54.2001 177.5C54.0001 177.1 53.5001 177 53.1001 177.2C52.7001 177.4 52.6002 177.9 52.8002 178.3C54.9002 182.1 57.1002 185.8 59.3002 189.6Z" fill="url(#paint6_linear_142_4479)" fill-opacity="0.44"/>
        <path d="M33.2 144.3C33.3 144.6 33.6 144.7 33.9 144.7C34 144.7 34.2001 144.7 34.3001 144.6C34.7001 144.4 34.8 143.9 34.6 143.5C32.4 139.7 30.2 136 28 132.2C27.8 131.8 27.3 131.7 26.9 131.9C26.5 132.1 26.4 132.6 26.6 133C28.8 136.8 31 140.5 33.2 144.3Z" fill="url(#paint7_linear_142_4479)" fill-opacity="0.44"/>
        <path d="M67.2001 200.1C67.0001 199.7 66.5001 199.6 66.1001 199.8C65.7001 200 65.6002 200.5 65.8002 200.9C68.0002 204.7 70.2002 208.4 72.4002 212.2C72.6002 212.5 72.8001 212.6 73.1001 212.6C73.2001 212.6 73.4002 212.6 73.5002 212.5C73.9002 212.3 74.0002 211.8 73.8002 211.4C71.6002 207.7 69.4001 203.9 67.2001 200.1Z" fill="url(#paint8_linear_142_4479)" fill-opacity="0.44"/>
        <path d="M41.1001 154.8C40.9001 154.4 40.4001 154.3 40.0001 154.5C39.6001 154.7 39.5001 155.2 39.7001 155.6C41.9001 159.4 44.0001 163.2 46.2001 166.9C46.3001 167.2 46.6002 167.3 46.9002 167.3C47.0002 167.3 47.2002 167.3 47.3002 167.2C47.7002 167 47.8001 166.5 47.6001 166.1C45.5001 162.4 43.3001 158.6 41.1001 154.8Z" fill="url(#paint9_linear_142_4479)" fill-opacity="0.44"/>
        <path d="M62.4999 681.5C58.2999 680.9 53.9999 680 49.7999 678.9C49.3999 678.8 48.8999 679 48.7999 679.5C48.6999 679.9 48.8999 680.4 49.3999 680.5C53.6999 681.7 57.9999 682.6 62.2999 683.2H62.3999C62.7999 683.2 63.1998 682.9 63.1998 682.5C63.1998 681.9 62.8999 681.5 62.4999 681.5Z" fill="url(#paint10_linear_142_4479)" fill-opacity="0.44"/>
        <path d="M37.5998 674.6C33.5998 673 29.5998 671.4 25.5998 669.6C25.1998 669.4 24.6998 669.6 24.4998 670C24.2998 670.4 24.4999 670.9 24.8999 671.1C28.8999 672.9 32.9998 674.5 36.9998 676.1C37.0998 676.1 37.1999 676.2 37.2999 676.2C37.5999 676.2 37.8998 676 38.0998 675.7C38.1998 675.2 37.9998 674.7 37.5998 674.6Z" fill="url(#paint11_linear_142_4479)" fill-opacity="0.44"/>
        <path d="M88.3002 681.8C84.0002 682.3 79.7001 682.5 75.4001 682.5C75.0001 682.5 74.6001 682.9 74.6001 683.3C74.6001 683.7 75.0001 684.1 75.4001 684.1C75.9001 684.1 76.4001 684.1 76.9001 684.1C80.8001 684.1 84.7001 683.9 88.5001 683.4C88.9001 683.3 89.3001 682.9 89.2001 682.5C89.2001 682.1 88.8002 681.8 88.3002 681.8Z" fill="url(#paint12_linear_142_4479)" fill-opacity="0.44"/>
        <path d="M14.6001 109.7C14.4001 109.3 13.9001 109.2 13.5001 109.4C13.1001 109.6 13.0001 110.1 13.2001 110.5C15.4001 114.2 17.7002 118 19.9002 121.7C20.1002 122 20.3001 122.1 20.6001 122.1C20.7001 122.1 20.9001 122.1 21.0001 122C21.4001 121.8 21.5002 121.3 21.3002 120.9C19.1002 117.2 16.9001 113.4 14.6001 109.7Z" fill="url(#paint13_linear_142_4479)" fill-opacity="0.44"/>
        <path d="M113.4 675.6C109.4 677.2 105.2 678.5 101.1 679.5C100.7 679.6 100.4 680.1 100.5 680.5C100.6 680.9 100.9 681.1 101.3 681.1C101.4 681.1 101.4 681.1 101.5 681.1C105.7 680 109.9 678.7 114 677.1C114.4 676.9 114.6 676.5 114.5 676C114.3 675.6 113.8 675.4 113.4 675.6Z" fill="url(#paint14_linear_142_4479)" fill-opacity="0.44"/>
        <path d="M107.6 267.3C107.4 266.9 106.9 266.8 106.5 267C106.1 267.2 106 267.8 106.2 268.1C108.6 271.8 110.9 275.5 113.3 279.1C113.5 279.3 113.7 279.5 114 279.5C114.1 279.5 114.3 279.5 114.4 279.4C114.8 279.2 114.9 278.6 114.6 278.3C112.3 274.7 109.9 271 107.6 267.3Z" fill="url(#paint15_linear_142_4479)" fill-opacity="0.44"/>
        <path d="M100.6 256.3C98.2998 252.6 95.9998 248.9 93.7998 245.2C93.5998 244.8 93.0998 244.7 92.6998 244.9C92.2998 245.1 92.1998 245.6 92.3998 246C94.6998 249.7 96.8998 253.4 99.1998 257.1C99.3998 257.4 99.5998 257.5 99.8998 257.5C99.9998 257.5 100.2 257.5 100.3 257.4C100.8 257.2 100.9 256.6 100.6 256.3Z" fill="url(#paint16_linear_142_4479)" fill-opacity="0.44"/>
        <path d="M13.6997 664.1C9.89968 662.3 5.89973 660.3 1.99973 658.3C1.59973 658.1 1.09976 658.3 0.899757 658.7C0.699757 659.1 0.89972 659.6 1.29972 659.8C5.19972 661.8 9.19973 663.8 12.9997 665.6C13.0997 665.7 13.1998 665.7 13.3998 665.7C13.6998 665.7 13.9997 665.5 14.0997 665.2C14.2997 664.8 14.0997 664.3 13.6997 664.1Z" fill="url(#paint17_linear_142_4479)" fill-opacity="0.44"/>
        <path d="M7.09988 99.8001C7.19988 99.8001 7.39991 99.7001 7.49991 99.7001C7.89991 99.5001 7.99989 99.0001 7.79989 98.6001C5.49989 94.9001 3.19993 91.2001 0.89993 87.5001C0.69993 87.1001 0.199893 87.0001 -0.200107 87.2001C-0.600107 87.4001 -0.700094 87.9001 -0.500094 88.3001C1.79991 92.0001 4.09993 95.7001 6.39993 99.4001C6.59993 99.6001 6.89988 99.8001 7.09988 99.8001Z" fill="url(#paint18_linear_142_4479)" fill-opacity="0.44"/>
        <path d="M204.9 555.3C204.5 555.2 204 555.5 203.9 555.9C203.1 560.1 202.1 564.4 201 568.6C200.9 569.1 201.1 569.5 201.6 569.6C201.7 569.6 201.7 569.6 201.8 569.6C202.2 569.6 202.5 569.4 202.6 569C203.8 564.7 204.7 560.4 205.5 556.2C205.6 555.9 205.3 555.4 204.9 555.3Z" fill="url(#paint19_linear_142_4479)" fill-opacity="0.44"/>
        <path d="M196.7 426.8C196.6 426.4 196.1 426.1 195.7 426.3C195.3 426.4 195 426.9 195.2 427.3C196.4 431.3 197.6 435.5 198.5 439.9C198.6 440.3 198.9 440.5 199.3 440.5C199.4 440.5 199.4 440.5 199.5 440.5C199.9 440.4 200.2 440 200.1 439.5C199.1 435.1 198 430.9 196.7 426.8Z" fill="url(#paint20_linear_142_4479)" fill-opacity="0.44"/>
        <path d="M198.2 580.6C197.8 580.4 197.3 580.7 197.2 581.1C195.8 585.2 194.2 589.2 192.4 593.2C192.2 593.6 192.4 594.1 192.8 594.3C192.9 594.4 193 594.4 193.1 594.4C193.4 594.4 193.7 594.2 193.9 593.9C195.7 589.9 197.3 585.8 198.7 581.7C198.8 581.2 198.6 580.8 198.2 580.6Z" fill="url(#paint21_linear_142_4479)" fill-opacity="0.44"/>
        <path d="M128.5 301.3C128.7 301.3 128.8 301.3 129 301.2C129.4 300.9 129.5 300.4 129.2 300.1C126.8 296.6 124.3 293 121.9 289.3C121.7 288.9 121.1 288.8 120.8 289.1C120.4 289.4 120.3 289.9 120.6 290.2C123.1 293.9 125.5 297.5 128 301C128 301.2 128.3 301.3 128.5 301.3Z" fill="url(#paint22_linear_142_4479)" fill-opacity="0.44"/>
        <path d="M209.9 504.1C209.9 503.7 209.5 503.3 209.1 503.3C208.7 503.3 208.3 503.7 208.3 504.1C208.3 505.1 208.3 506.1 208.3 507.1C208.3 510.4 208.2 513.8 208.1 517.2C208.1 517.7 208.4 518 208.9 518C209.3 518 209.7 517.6 209.7 517.2C209.8 513.8 209.9 510.4 209.9 507.1C209.9 506.1 209.9 505.1 209.9 504.1Z" fill="url(#paint23_linear_142_4479)" fill-opacity="0.44"/>
        <path d="M205.5 464.4C205.1 460.4 204.5 456.1 203.6 452C203.5 451.6 203.1 451.3 202.6 451.4C202.2 451.5 201.9 451.9 202 452.4C202.9 456.4 203.4 460.6 203.9 464.7L204 465.3C204.1 465.7 204.4 465.9 204.8 465.9C204.9 465.9 204.9 465.9 205 465.9C205.4 465.8 205.7 465.4 205.6 464.9L205.5 464.4Z" fill="url(#paint24_linear_142_4479)" fill-opacity="0.44"/>
        <path d="M208.2 529.4C207.7 529.4 207.3 529.7 207.3 530.1C206.9 534.4 206.5 538.7 205.9 543.1C205.8 543.5 206.2 544 206.6 544H206.7C207.1 544 207.4 543.7 207.5 543.3C208 538.9 208.5 534.5 208.9 530.3C208.9 529.8 208.6 529.4 208.2 529.4Z" fill="url(#paint25_linear_142_4479)" fill-opacity="0.44"/>
        <path d="M192.2 414.5C190.5 410.4 188.5 406.4 186.4 402.7C186.2 402.3 185.7 402.2 185.3 402.4C184.9 402.6 184.8 403.1 185 403.5C187.1 407.2 189 411.1 190.7 415.2C190.8 415.5 191.1 415.7 191.5 415.7C191.6 415.7 191.7 415.7 191.8 415.6C192.2 415.4 192.4 414.9 192.2 414.5Z" fill="url(#paint26_linear_142_4479)" fill-opacity="0.44"/>
        <path d="M156.2 646.8C153.1 649.9 149.9 652.8 146.6 655.6C146.3 655.9 146.2 656.4 146.5 656.8C146.7 657 146.9 657.1 147.1 657.1C147.3 657.1 147.5 657 147.6 656.9C150.9 654.1 154.2 651.2 157.3 648C157.6 647.7 157.6 647.2 157.3 646.8C157 646.5 156.5 646.5 156.2 646.8Z" fill="url(#paint27_linear_142_4479)" fill-opacity="0.44"/>
        <path d="M187.8 604.6C187.4 604.4 186.9 604.5 186.7 604.9C184.7 608.7 182.5 612.6 180.3 616.2C180.1 616.6 180.2 617.1 180.6 617.3C180.7 617.4 180.9 617.4 181 617.4C181.3 617.4 181.5 617.3 181.7 617C184 613.3 186.2 609.5 188.2 605.6C188.4 605.3 188.2 604.8 187.8 604.6Z" fill="url(#paint28_linear_142_4479)" fill-opacity="0.44"/>
        <path d="M136.2 663.4C132.6 665.8 128.8 668.1 125.1 670.1C124.7 670.3 124.6 670.8 124.8 671.2C124.9 671.5 125.2 671.6 125.5 671.6C125.6 671.6 125.8 671.6 125.9 671.5C129.7 669.5 133.5 667.2 137.1 664.7C137.5 664.4 137.6 663.9 137.3 663.6C137.1 663.3 136.6 663.2 136.2 663.4Z" fill="url(#paint29_linear_142_4479)" fill-opacity="0.44"/>
        <path d="M136.3 311C136.1 310.6 135.5 310.5 135.2 310.8C134.8 311 134.7 311.5 135 311.9C137.4 315.6 139.7 319.2 142 322.9C142.2 323.1 142.4 323.3 142.7 323.3C142.8 323.3 143 323.3 143.1 323.2C143.5 323 143.6 322.4 143.4 322.1C141 318.3 138.7 314.7 136.3 311Z" fill="url(#paint30_linear_142_4479)" fill-opacity="0.44"/>
        <path d="M169.1 368.4C169.2 368.4 169.4 368.4 169.5 368.3C169.9 368.1 170 367.6 169.8 367.2C167.9 363.5 165.8 359.6 163.6 355.7C163.4 355.3 162.9 355.2 162.5 355.4C162.1 355.6 162 356.1 162.2 356.5C164.4 360.4 166.5 364.3 168.4 368C168.6 368.2 168.8 368.4 169.1 368.4Z" fill="url(#paint31_linear_142_4479)" fill-opacity="0.44"/>
        <path d="M180.7 391.9C181.1 391.7 181.3 391.2 181.1 390.8C179.4 386.9 177.6 382.9 175.7 378.9C175.5 378.5 175 378.3 174.6 378.5C174.2 378.7 174 379.2 174.2 379.6C176.1 383.6 177.9 387.6 179.6 391.5C179.7 391.8 180 392 180.4 392C180.5 392 180.6 391.9 180.7 391.9Z" fill="url(#paint32_linear_142_4479)" fill-opacity="0.44"/>
        <path d="M173 627.1C170.4 630.6 167.7 634.1 165 637.3C164.7 637.7 164.7 638.2 165.1 638.5C165.3 638.6 165.4 638.7 165.6 638.7C165.8 638.7 166.1 638.6 166.2 638.4C169 635.1 171.7 631.6 174.3 628.1C174.6 627.7 174.5 627.2 174.1 627C173.8 626.6 173.3 626.7 173 627.1Z" fill="url(#paint33_linear_142_4479)" fill-opacity="0.44"/>
        <path d="M66.2999 611.8C62.8999 611.8 59.3998 611.7 56.0998 611.6C52.2998 611.5 48.3998 611.4 44.5998 611.4H44.2999L43.9998 611.3C39.0998 609.3 33.9998 608.1 28.6998 606.9C24.9998 606.1 21.2998 605.2 17.5998 604L17.2999 603.9C-24.5001 582.3 -65.5002 557.5 -105.2 533.6C-164.5 497.9 -225.8 460.9 -291 433.4L-291.3 433.2C-305.5 423.3 -320 410.1 -335.6 393L-335.7 392.8L-335.8 392.6C-345.3 374.2 -354.4 354.3 -356.4 333.2C-362.1 276.4 -341.3 215.8 -301 171.2C-263.8 130.1 -215 107.4 -163.7 107.4C-145.5 107.4 -127 110.3 -108.8 116L-108.5 116.1C-97.8002 122 -86.1001 127.9 -71.8001 134.5L-71.6001 134.6L-71.4002 134.8C-64.1002 141.6 -56.2001 147.6 -48.8001 153L-48.6001 153.2C-8.40013 192.9 16.8998 227 48.1998 270.9L51.6998 275.9C94.7998 336.2 135.4 393.2 152.4 468.4V468.8C152.6 489.7 152.7 508.5 152.3 527.8V528.1C148.3 547 139.9 565.3 128.7 579.6C115.8 596 99.4998 606.8 81.6998 610.8H81.5998C77.3998 611.5 72.4999 611.8 66.2999 611.8ZM46.0998 608.1C49.4998 608.1 52.8998 608.2 56.1998 608.3C59.4998 608.4 62.9999 608.5 66.2999 608.5C72.1999 608.5 76.9999 608.2 81.2999 607.6C118.4 599.3 142.2 561.5 149.4 527.6C149.8 508.4 149.6 489.7 149.5 469C132.6 394.5 92.1999 337.8 49.2999 277.8L45.7999 272.8C14.5999 229.1 -10.6001 195.1 -50.6001 155.6C-58.0001 150.2 -65.9002 144.2 -73.2002 137.4C-87.5002 130.8 -99.1002 125 -109.8 119C-127.7 113.4 -145.8 110.6 -163.6 110.6C-214 110.6 -261.9 132.9 -298.4 173.3C-338.3 217.4 -358.7 277 -353.1 333C-351.2 353.5 -342.3 373 -333 391C-317.7 407.8 -303.5 420.7 -289.6 430.5C-224.2 458.1 -162.9 495.1 -103.5 530.9C-63.9002 554.8 -23.0002 579.5 18.5998 601C22.0998 602.1 25.7999 602.9 29.2999 603.8C34.4999 605 39.7999 606.2 44.7999 608.2C45.2999 608.1 45.6998 608.1 46.0998 608.1Z" fill="url(#paint34_linear_142_4479)" fill-opacity="0.44"/>
        <path d="M174.7 1218C178.8 1207.5 183.3 1197.6 188.2 1188.2C213.3 1122.7 258.5 1064.3 315.4 1023.7C332.9 1012.5 351.6 1002.1 369.7 992.1C414.2 967.5 460.2 942 494.1 900.4L494.2 900.3C497.5 894.1 501.5 888.1 505.4 882.4C509.6 876.3 513.8 870.1 517.2 863.4V863.3C517.9 861.3 518.5 859.4 519.1 857.5C521.8 849.4 524.5 841.1 528.6 833.5L528.7 833.3C530.4 825.4 532.5 817.5 534.5 809.9C536.5 802.5 538.5 794.8 540.2 787.2C549 738.5 549.8 686.7 550.6 636.7C551.5 579.2 552.5 519.7 565.5 464.7C590.3 345.5 679.7 207.1 823.5 166.8C829.3 165.7 835.1 164.3 840.7 163C849.3 161 858.3 158.9 867.1 157.6C871.1 157.6 875.4 157.3 879.5 157.2C891.6 156.6 904.1 156 915.1 158.7C916.4 159.3 918 159.3 919.4 159.3C921.3 159.2 922.9 159.2 923.9 160.7L924.1 161L924.4 161.1C946.5 166.6 963.5 182.8 975.9 196.3C995.5 223 1012.7 251.6 1029.2 279.4C1046.2 307.8 1063.8 337.2 1084 364.4C1088.2 372.6 1094.1 380.7 1102.5 389.8C1110.1 402 1119.4 413.7 1130.2 424.4C1147.9 449.1 1171.2 469.8 1193.7 489.7C1198.2 493.7 1202.8 497.7 1207.3 501.8C1236.1 522.9 1264 540.2 1292.6 554.9L1292.9 555C1298.6 555.7 1303.6 558.7 1308.4 561.7L1308.6 561.8L1308.8 561.9C1310.7 562.6 1312.7 563.2 1314.6 563.8C1322.7 566.5 1331 569.2 1338.6 573.3L1338.8 573.4C1347.6 575.6 1356.5 578.1 1365 580.5C1371.2 582.2 1377.6 584 1383.9 585.7V584C1377.7 582.4 1371.5 580.7 1365.4 578.9C1356.8 576.5 1348 574 1339.2 571.8C1331.5 567.6 1323.2 564.9 1315.1 562.2C1313.2 561.6 1311.3 560.9 1309.4 560.3L1309.3 560.2C1304.4 557.2 1299.3 554 1293.2 553.3C1264.7 538.7 1237 521.4 1208.3 500.4C1203.8 496.4 1199.2 492.3 1194.7 488.3C1172.2 468.4 1149 447.8 1131.4 423.2L1131.3 423.1C1120.6 412.5 1111.3 400.9 1103.8 388.7L1103.7 388.6C1095.4 379.6 1089.6 371.6 1085.4 363.4L1085.3 363.3C1065.1 336.1 1047.6 306.7 1030.6 278.3C1014 250.5 996.8 221.8 977.1 195C964.6 181.4 947.4 165.1 925 159.3C923.5 157.3 921.3 157.4 919.3 157.4C918 157.4 916.7 157.5 915.7 157L915.5 156.9C904.3 154.2 891.6 154.8 879.3 155.3C875 155.5 870.9 155.7 866.8 155.8C857.8 157.1 848.8 159.2 840.2 161.2C834.6 162.5 828.8 163.9 823 165C759.5 182.8 700.9 222.3 653.4 279.3C609.4 332.2 577.5 397.9 563.7 464.1C550.6 519.2 549.7 578.8 548.8 636.4C548 686.4 547.2 738.1 538.4 786.6C536.8 794.2 534.7 801.8 532.7 809.2C530.7 816.8 528.6 824.6 526.9 832.5C522.7 840.2 520 848.6 517.3 856.7C516.7 858.6 516 860.5 515.4 862.5C512.1 869 507.8 875.3 503.7 881.3C499.8 887 495.7 893 492.4 899.3C458.7 940.6 412.8 966 368.5 990.5C350.4 1000.5 331.7 1010.9 314.1 1022.2C257 1063 211.6 1121.6 186.3 1187.3C181.3 1196.9 176.7 1207 172.5 1217.8H174.7V1218Z" fill="url(#paint35_linear_142_4479)" fill-opacity="0.44"/>
        <path d="M26.2 511.9C24.1 511.9 21.9001 511.8 19.8001 511.7C17.4001 511.6 14.8001 511.5 12.4001 511.5H12.3001H12.2C-55.8 489 -117 447.6 -176.1 407.5C-186.8 400.2 -197.9 392.7 -208.8 385.5L-208.9 385.4C-211.2 383.1 -213.4 380.9 -215.7 378.6C-226 368.5 -236.6 358 -245.1 346.4L-245.2 346.3C-250.1 336.1 -255.7 324.3 -258.7 312.7C-262.7 288.7 -257.4 265.3 -242.2 239.1L-242.1 239C-229.6 224.7 -214.8 213.9 -198.2 207C-187.7 203.7 -176.5 202 -164.9 202C-150.9 202 -136.7 204.4 -122.6 209.1C-95.7999 220 -63.8999 244.4 -34.9999 276.1C0.10006 314.6 46.2001 374.5 66.9001 441.1V441.2V441.3C66.6001 446 66.8001 451 67.0001 455.8C67.3001 464.6 67.7001 473.7 65.4001 481.8C61.5001 494.8 50.5001 505.7 35.9001 511C33.1001 511.6 30 511.9 26.2 511.9ZM13.6 509.9C15.7 509.9 17.8001 510 19.9001 510.1C22.0001 510.2 24.1 510.3 26.2 510.3C29.9 510.3 32.8001 510 35.4001 509.4C49.3001 504.3 60.0001 493.8 63.8001 481.3C66.0001 473.4 65.6001 464.5 65.3001 455.8C65.1001 451 64.9 446 65.2 441.2C44.6 375 -1.29993 315.4 -36.2999 277C-64.9999 245.5 -96.7 221.3 -123.2 210.5C-137.1 205.9 -151.1 203.5 -165 203.5C-176.4 203.5 -187.4 205.1 -197.7 208.4C-214 215.2 -228.5 225.8 -240.9 239.9C-255.9 265.8 -261 288.8 -257.2 312.3C-254.2 323.7 -248.7 335.4 -243.8 345.5C-235.3 356.9 -224.8 367.4 -214.6 377.5C-212.3 379.7 -210.1 382 -207.8 384.2C-196.9 391.4 -185.8 398.9 -175.1 406.2C-116.1 446.2 -55.1 487.5 12.7 510C12.9 509.9 13.2 509.9 13.6 509.9Z" fill="url(#paint36_linear_142_4479)" fill-opacity="0.44"/>
        <path d="M234.8 1218C235.4 1216.7 236.2 1215.4 237.1 1214.2L237.3 1213.8C249.3 1184.6 263.4 1154.1 285.3 1129L285.4 1128.8C317.8 1081 367.2 1053.1 414.9 1026.2C467.1 996.8 521.1 966.4 552.4 909.8L552.5 909.5C553.7 905.9 555 902.2 556.3 898.6C561.4 884.1 566.6 869 571 854.1V854C583.6 796.3 584.7 734.6 585.8 674.9C586.9 614.7 588.1 552.4 601 494.6C617.5 398.6 687.8 281.9 803.1 252.7C829.8 248.8 852.8 248.4 871.3 251.5C873.2 252.3 875.2 252.2 877 252.1C879.5 252 881 251.9 882 253.2L882.2 253.5L882.5 253.7C884 254.5 885.7 254.4 887.2 254.4C889.4 254.4 890.3 254.4 891 255.4L891.3 255.9L891.8 256.1C946.7 273.6 986.4 318.9 1024.8 362.8C1034.2 373.5 1043.8 384.5 1053.5 394.8C1126.8 488.3 1203.9 554.8 1282.9 592.4L1283 592.5C1291.1 595.5 1299.2 598.8 1307.1 601.9C1321 607.4 1335.4 613.1 1349.8 617.9L1350.1 618C1356.3 618.8 1362.3 620.7 1368 622.6C1370.3 623.4 1372.7 624.2 1375.1 624.9H1375.3C1378.2 625.3 1381 625.7 1383.7 626.2V622.9C1381.2 622.5 1378.6 622.1 1375.9 621.7C1373.6 621 1371.3 620.3 1369 619.5C1363.1 617.6 1357.1 615.6 1350.6 614.8C1336.3 610.1 1322 604.4 1308.2 598.9C1300.3 595.8 1292.2 592.6 1284.1 589.5C1205.6 552.1 1128.8 486 1055.9 392.8L1055.8 392.7C1046.2 382.4 1036.5 371.4 1027.2 360.7C988.6 316.6 948.7 271.1 893.2 253.2C891.5 251.1 889 251.1 886.9 251.2C885.8 251.2 884.7 251.2 884 251C881.9 248.6 878.9 248.8 876.5 249C874.9 249.1 873.4 249.2 872.2 248.6L872 248.5H871.8C852.8 245.3 829.4 245.7 802.2 249.7H802C750.3 262.8 703.1 294.9 665.3 342.5C630.8 386.1 606.6 440 597.3 494.2C584.4 552.3 583.2 614.7 582.1 675.1C581 734.7 579.9 796.2 567.4 853.6C563 868.4 557.8 883.4 552.8 897.9C551.5 901.5 550.3 905.1 549 908.7C518.1 964.3 464.6 994.5 412.8 1023.7C364.7 1050.8 315 1078.8 282.2 1127.2C260 1152.6 245.8 1183.2 233.8 1212.6C232.5 1214.4 231.6 1216.3 230.7 1218.2H234.8V1218Z" fill="url(#paint37_linear_142_4479)" fill-opacity="0.44"/>
        <path d="M366.6 797.4H366.5C357.9 796.4 349.6 790.1 344.2 780.5L344.1 780.2C337.3 740.9 351 697.3 384.7 650.5L384.8 650.3L385 650.2C386.9 649.2 388.7 647.9 390.5 646.7C393.6 644.5 396.8 642.2 400.8 641.4C401.4 641.2 402 641.1 402.6 641.1C404.6 641.1 406.1 642 407.6 642.8C408.8 643.5 409.9 644.1 411.2 644.3L411.5 644.4L411.7 644.7C430.5 670.4 434.5 710.8 421.6 745.3C411.1 773.3 391.7 791.8 366.9 797.3L366.6 797.4ZM345.7 779.8C350.8 788.8 358.5 794.8 366.5 795.7C390.7 790.3 409.6 772.2 419.9 744.8C432.6 710.9 428.8 671.2 410.4 646C409 645.7 407.8 645 406.6 644.4C405.2 643.6 403.9 642.9 402.4 642.9C401.9 642.9 401.5 643 401 643.1C397.3 643.8 394.4 645.9 391.3 648.1C389.6 649.3 387.8 650.6 385.8 651.7C352.6 697.9 339 741 345.7 779.8Z" fill="url(#paint38_linear_142_4479)" fill-opacity="0.44"/>
    </g>
    <defs>
        <linearGradient id="paint0_linear_142_4479" x1="41.4904" y1="-481.8" x2="41.4904" y2="1218" gradientUnits="userSpaceOnUse">
            <stop offset="0.333333" stop-color="#A1D2A6"/>
            <stop offset="0.692708" stop-color="#A1D2A6" stop-opacity="0"/>
            <stop offset="1" stop-color="#A1D2A6" stop-opacity="0"/>
        </linearGradient>
        <linearGradient id="paint1_linear_142_4479" x1="556.783" y1="-481.9" x2="556.783" y2="1203.6" gradientUnits="userSpaceOnUse">
            <stop offset="0.333333" stop-color="#A1D2A6"/>
            <stop offset="0.692708" stop-color="#A1D2A6" stop-opacity="0"/>
            <stop offset="1" stop-color="#A1D2A6" stop-opacity="0"/>
        </linearGradient>
        <linearGradient id="paint2_linear_142_4479" x1="558.692" y1="-362.9" x2="558.692" y2="373.5" gradientUnits="userSpaceOnUse">
            <stop offset="0.333333" stop-color="#A1D2A6"/>
            <stop offset="0.692708" stop-color="#A1D2A6" stop-opacity="0"/>
            <stop offset="1" stop-color="#A1D2A6" stop-opacity="0"/>
        </linearGradient>
        <linearGradient id="paint3_linear_142_4479" x1="153" y1="332.7" x2="153" y2="345.5" gradientUnits="userSpaceOnUse">
            <stop offset="0.333333" stop-color="#A1D2A6"/>
            <stop offset="0.692708" stop-color="#A1D2A6" stop-opacity="0"/>
            <stop offset="1" stop-color="#A1D2A6" stop-opacity="0"/>
        </linearGradient>
        <linearGradient id="paint4_linear_142_4479" x1="82.9498" y1="222.4" x2="82.9498" y2="235.2" gradientUnits="userSpaceOnUse">
            <stop offset="0.333333" stop-color="#A1D2A6"/>
            <stop offset="0.692708" stop-color="#A1D2A6" stop-opacity="0"/>
            <stop offset="1" stop-color="#A1D2A6" stop-opacity="0"/>
        </linearGradient>
        <linearGradient id="paint5_linear_142_4479" x1="207.85" y1="477.1" x2="207.85" y2="491.8" gradientUnits="userSpaceOnUse">
            <stop offset="0.333333" stop-color="#A1D2A6"/>
            <stop offset="0.692708" stop-color="#A1D2A6" stop-opacity="0"/>
            <stop offset="1" stop-color="#A1D2A6" stop-opacity="0"/>
        </linearGradient>
        <linearGradient id="paint6_linear_142_4479" x1="56.7502" y1="177.1" x2="56.7502" y2="190" gradientUnits="userSpaceOnUse">
            <stop offset="0.333333" stop-color="#A1D2A6"/>
            <stop offset="0.692708" stop-color="#A1D2A6" stop-opacity="0"/>
            <stop offset="1" stop-color="#A1D2A6" stop-opacity="0"/>
        </linearGradient>
        <linearGradient id="paint7_linear_142_4479" x1="30.6" y1="131.8" x2="30.6" y2="144.7" gradientUnits="userSpaceOnUse">
            <stop offset="0.333333" stop-color="#A1D2A6"/>
            <stop offset="0.692708" stop-color="#A1D2A6" stop-opacity="0"/>
            <stop offset="1" stop-color="#A1D2A6" stop-opacity="0"/>
        </linearGradient>
        <linearGradient id="paint8_linear_142_4479" x1="69.8002" y1="199.7" x2="69.8002" y2="212.6" gradientUnits="userSpaceOnUse">
            <stop offset="0.333333" stop-color="#A1D2A6"/>
            <stop offset="0.692708" stop-color="#A1D2A6" stop-opacity="0"/>
            <stop offset="1" stop-color="#A1D2A6" stop-opacity="0"/>
        </linearGradient>
        <linearGradient id="paint9_linear_142_4479" x1="43.6501" y1="154.4" x2="43.6501" y2="167.3" gradientUnits="userSpaceOnUse">
            <stop offset="0.333333" stop-color="#A1D2A6"/>
            <stop offset="0.692708" stop-color="#A1D2A6" stop-opacity="0"/>
            <stop offset="1" stop-color="#A1D2A6" stop-opacity="0"/>
        </linearGradient>
        <linearGradient id="paint10_linear_142_4479" x1="55.9874" y1="678.875" x2="55.9874" y2="683.2" gradientUnits="userSpaceOnUse">
            <stop offset="0.333333" stop-color="#A1D2A6"/>
            <stop offset="0.692708" stop-color="#A1D2A6" stop-opacity="0"/>
            <stop offset="1" stop-color="#A1D2A6" stop-opacity="0"/>
        </linearGradient>
        <linearGradient id="paint11_linear_142_4479" x1="31.2733" y1="669.521" x2="31.2733" y2="676.2" gradientUnits="userSpaceOnUse">
            <stop offset="0.333333" stop-color="#A1D2A6"/>
            <stop offset="0.692708" stop-color="#A1D2A6" stop-opacity="0"/>
            <stop offset="1" stop-color="#A1D2A6" stop-opacity="0"/>
        </linearGradient>
        <linearGradient id="paint12_linear_142_4479" x1="81.9079" y1="681.8" x2="81.9079" y2="684.1" gradientUnits="userSpaceOnUse">
            <stop offset="0.333333" stop-color="#A1D2A6"/>
            <stop offset="0.692708" stop-color="#A1D2A6" stop-opacity="0"/>
            <stop offset="1" stop-color="#A1D2A6" stop-opacity="0"/>
        </linearGradient>
        <linearGradient id="paint13_linear_142_4479" x1="17.2501" y1="109.3" x2="17.2501" y2="122.1" gradientUnits="userSpaceOnUse">
            <stop offset="0.333333" stop-color="#A1D2A6"/>
            <stop offset="0.692708" stop-color="#A1D2A6" stop-opacity="0"/>
            <stop offset="1" stop-color="#A1D2A6" stop-opacity="0"/>
        </linearGradient>
        <linearGradient id="paint14_linear_142_4479" x1="107.503" y1="675.521" x2="107.503" y2="681.1" gradientUnits="userSpaceOnUse">
            <stop offset="0.333333" stop-color="#A1D2A6"/>
            <stop offset="0.692708" stop-color="#A1D2A6" stop-opacity="0"/>
            <stop offset="1" stop-color="#A1D2A6" stop-opacity="0"/>
        </linearGradient>
        <linearGradient id="paint15_linear_142_4479" x1="110.437" y1="266.9" x2="110.437" y2="279.5" gradientUnits="userSpaceOnUse">
            <stop offset="0.333333" stop-color="#A1D2A6"/>
            <stop offset="0.692708" stop-color="#A1D2A6" stop-opacity="0"/>
            <stop offset="1" stop-color="#A1D2A6" stop-opacity="0"/>
        </linearGradient>
        <linearGradient id="paint16_linear_142_4479" x1="96.5342" y1="244.8" x2="96.5342" y2="257.5" gradientUnits="userSpaceOnUse">
            <stop offset="0.333333" stop-color="#A1D2A6"/>
            <stop offset="0.692708" stop-color="#A1D2A6" stop-opacity="0"/>
            <stop offset="1" stop-color="#A1D2A6" stop-opacity="0"/>
        </linearGradient>
        <linearGradient id="paint17_linear_142_4479" x1="7.49973" y1="658.222" x2="7.49973" y2="665.7" gradientUnits="userSpaceOnUse">
            <stop offset="0.333333" stop-color="#A1D2A6"/>
            <stop offset="0.692708" stop-color="#A1D2A6" stop-opacity="0"/>
            <stop offset="1" stop-color="#A1D2A6" stop-opacity="0"/>
        </linearGradient>
        <linearGradient id="paint18_linear_142_4479" x1="3.6499" y1="87.1001" x2="3.6499" y2="99.8001" gradientUnits="userSpaceOnUse">
            <stop offset="0.333333" stop-color="#A1D2A6"/>
            <stop offset="0.692708" stop-color="#A1D2A6" stop-opacity="0"/>
            <stop offset="1" stop-color="#A1D2A6" stop-opacity="0"/>
        </linearGradient>
        <linearGradient id="paint19_linear_142_4479" x1="203.247" y1="555.281" x2="203.247" y2="569.6" gradientUnits="userSpaceOnUse">
            <stop offset="0.333333" stop-color="#A1D2A6"/>
            <stop offset="0.692708" stop-color="#A1D2A6" stop-opacity="0"/>
            <stop offset="1" stop-color="#A1D2A6" stop-opacity="0"/>
        </linearGradient>
        <linearGradient id="paint20_linear_142_4479" x1="197.628" y1="426.236" x2="197.628" y2="440.5" gradientUnits="userSpaceOnUse">
            <stop offset="0.333333" stop-color="#A1D2A6"/>
            <stop offset="0.692708" stop-color="#A1D2A6" stop-opacity="0"/>
            <stop offset="1" stop-color="#A1D2A6" stop-opacity="0"/>
        </linearGradient>
        <linearGradient id="paint21_linear_142_4479" x1="195.523" y1="580.536" x2="195.523" y2="594.4" gradientUnits="userSpaceOnUse">
            <stop offset="0.333333" stop-color="#A1D2A6"/>
            <stop offset="0.692708" stop-color="#A1D2A6" stop-opacity="0"/>
            <stop offset="1" stop-color="#A1D2A6" stop-opacity="0"/>
        </linearGradient>
        <linearGradient id="paint22_linear_142_4479" x1="124.9" y1="288.926" x2="124.9" y2="301.3" gradientUnits="userSpaceOnUse">
            <stop offset="0.333333" stop-color="#A1D2A6"/>
            <stop offset="0.692708" stop-color="#A1D2A6" stop-opacity="0"/>
            <stop offset="1" stop-color="#A1D2A6" stop-opacity="0"/>
        </linearGradient>
        <linearGradient id="paint23_linear_142_4479" x1="209" y1="503.3" x2="209" y2="518" gradientUnits="userSpaceOnUse">
            <stop offset="0.333333" stop-color="#A1D2A6"/>
            <stop offset="0.692708" stop-color="#A1D2A6" stop-opacity="0"/>
            <stop offset="1" stop-color="#A1D2A6" stop-opacity="0"/>
        </linearGradient>
        <linearGradient id="paint24_linear_142_4479" x1="203.8" y1="451.381" x2="203.8" y2="465.9" gradientUnits="userSpaceOnUse">
            <stop offset="0.333333" stop-color="#A1D2A6"/>
            <stop offset="0.692708" stop-color="#A1D2A6" stop-opacity="0"/>
            <stop offset="1" stop-color="#A1D2A6" stop-opacity="0"/>
        </linearGradient>
        <linearGradient id="paint25_linear_142_4479" x1="207.393" y1="529.4" x2="207.393" y2="544" gradientUnits="userSpaceOnUse">
            <stop offset="0.333333" stop-color="#A1D2A6"/>
            <stop offset="0.692708" stop-color="#A1D2A6" stop-opacity="0"/>
            <stop offset="1" stop-color="#A1D2A6" stop-opacity="0"/>
        </linearGradient>
        <linearGradient id="paint26_linear_142_4479" x1="188.589" y1="402.3" x2="188.589" y2="415.7" gradientUnits="userSpaceOnUse">
            <stop offset="0.333333" stop-color="#A1D2A6"/>
            <stop offset="0.692708" stop-color="#A1D2A6" stop-opacity="0"/>
            <stop offset="1" stop-color="#A1D2A6" stop-opacity="0"/>
        </linearGradient>
        <linearGradient id="paint27_linear_142_4479" x1="151.922" y1="646.575" x2="151.922" y2="657.1" gradientUnits="userSpaceOnUse">
            <stop offset="0.333333" stop-color="#A1D2A6"/>
            <stop offset="0.692708" stop-color="#A1D2A6" stop-opacity="0"/>
            <stop offset="1" stop-color="#A1D2A6" stop-opacity="0"/>
        </linearGradient>
        <linearGradient id="paint28_linear_142_4479" x1="184.239" y1="604.5" x2="184.239" y2="617.4" gradientUnits="userSpaceOnUse">
            <stop offset="0.333333" stop-color="#A1D2A6"/>
            <stop offset="0.692708" stop-color="#A1D2A6" stop-opacity="0"/>
            <stop offset="1" stop-color="#A1D2A6" stop-opacity="0"/>
        </linearGradient>
        <linearGradient id="paint29_linear_142_4479" x1="131.087" y1="663.296" x2="131.087" y2="671.6" gradientUnits="userSpaceOnUse">
            <stop offset="0.333333" stop-color="#A1D2A6"/>
            <stop offset="0.692708" stop-color="#A1D2A6" stop-opacity="0"/>
            <stop offset="1" stop-color="#A1D2A6" stop-opacity="0"/>
        </linearGradient>
        <linearGradient id="paint30_linear_142_4479" x1="139.163" y1="310.626" x2="139.163" y2="323.3" gradientUnits="userSpaceOnUse">
            <stop offset="0.333333" stop-color="#A1D2A6"/>
            <stop offset="0.692708" stop-color="#A1D2A6" stop-opacity="0"/>
            <stop offset="1" stop-color="#A1D2A6" stop-opacity="0"/>
        </linearGradient>
        <linearGradient id="paint31_linear_142_4479" x1="166" y1="355.3" x2="166" y2="368.4" gradientUnits="userSpaceOnUse">
            <stop offset="0.333333" stop-color="#A1D2A6"/>
            <stop offset="0.692708" stop-color="#A1D2A6" stop-opacity="0"/>
            <stop offset="1" stop-color="#A1D2A6" stop-opacity="0"/>
        </linearGradient>
        <linearGradient id="paint32_linear_142_4479" x1="177.65" y1="378.422" x2="177.65" y2="392" gradientUnits="userSpaceOnUse">
            <stop offset="0.333333" stop-color="#A1D2A6"/>
            <stop offset="0.692708" stop-color="#A1D2A6" stop-opacity="0"/>
            <stop offset="1" stop-color="#A1D2A6" stop-opacity="0"/>
        </linearGradient>
        <linearGradient id="paint33_linear_142_4479" x1="169.63" y1="626.745" x2="169.63" y2="638.7" gradientUnits="userSpaceOnUse">
            <stop offset="0.333333" stop-color="#A1D2A6"/>
            <stop offset="0.692708" stop-color="#A1D2A6" stop-opacity="0"/>
            <stop offset="1" stop-color="#A1D2A6" stop-opacity="0"/>
        </linearGradient>
        <linearGradient id="paint34_linear_142_4479" x1="-102.377" y1="107.4" x2="-102.377" y2="611.8" gradientUnits="userSpaceOnUse">
            <stop offset="0.333333" stop-color="#A1D2A6"/>
            <stop offset="0.692708" stop-color="#A1D2A6" stop-opacity="0"/>
            <stop offset="1" stop-color="#A1D2A6" stop-opacity="0"/>
        </linearGradient>
        <linearGradient id="paint35_linear_142_4479" x1="778.2" y1="154.869" x2="778.2" y2="1218" gradientUnits="userSpaceOnUse">
            <stop offset="0.333333" stop-color="#A1D2A6"/>
            <stop offset="0.692708" stop-color="#A1D2A6" stop-opacity="0"/>
            <stop offset="1" stop-color="#A1D2A6" stop-opacity="0"/>
        </linearGradient>
        <linearGradient id="paint36_linear_142_4479" x1="-96.376" y1="202" x2="-96.376" y2="511.9" gradientUnits="userSpaceOnUse">
            <stop offset="0.333333" stop-color="#A1D2A6"/>
            <stop offset="0.692708" stop-color="#A1D2A6" stop-opacity="0"/>
            <stop offset="1" stop-color="#A1D2A6" stop-opacity="0"/>
        </linearGradient>
        <linearGradient id="paint37_linear_142_4479" x1="807.2" y1="246.367" x2="807.2" y2="1218.2" gradientUnits="userSpaceOnUse">
            <stop offset="0.333333" stop-color="#A1D2A6"/>
            <stop offset="0.692708" stop-color="#A1D2A6" stop-opacity="0"/>
            <stop offset="1" stop-color="#A1D2A6" stop-opacity="0"/>
        </linearGradient>
        <linearGradient id="paint38_linear_142_4479" x1="385.756" y1="641.1" x2="385.756" y2="797.4" gradientUnits="userSpaceOnUse">
            <stop offset="0.333333" stop-color="#A1D2A6"/>
            <stop offset="0.692708" stop-color="#A1D2A6" stop-opacity="0"/>
            <stop offset="1" stop-color="#A1D2A6" stop-opacity="0"/>
        </linearGradient>
        <clipPath id="clip0_142_4479">
            <rect width="2400" height="1700" fill="white" transform="translate(-1016 -482)"/>
        </clipPath>
    </defs>
</svg>
