<?xml version="1.0" encoding="utf-8"?>
<!-- Generator: Adobe Illustrator 25.0.0, SVG Export Plug-In . SVG Version: 6.00 Build 0)  -->
<svg version="1.1" id="Layer_1" xmlns="http://www.w3.org/2000/svg" xmlns:xlink="http://www.w3.org/1999/xlink" x="0px" y="0px"
	 viewBox="0 0 1125 2436" style="enable-background:new 0 0 1125 2436;" xml:space="preserve">
<style type="text/css">
	.st0{clip-path:url(#SVGID_2_);}
	.st1{fill:url(#SVGID_3_);fill-opacity:0.44;}
	.st2{fill:url(#SVGID_4_);fill-opacity:0.44;}
	.st3{fill:url(#SVGID_5_);fill-opacity:0.44;}
	.st4{fill:url(#SVGID_6_);fill-opacity:0.44;}
	.st5{fill:url(#SVGID_7_);fill-opacity:0.44;}
	.st6{fill:url(#SVGID_8_);fill-opacity:0.44;}
	.st7{fill:url(#SVGID_9_);fill-opacity:0.44;}
	.st8{fill:url(#SVGID_10_);fill-opacity:0.44;}
	.st9{fill:url(#SVGID_11_);fill-opacity:0.44;}
	.st10{fill:url(#SVGID_12_);fill-opacity:0.44;}
	.st11{fill:url(#SVGID_13_);fill-opacity:0.44;}
	.st12{fill:url(#SVGID_14_);fill-opacity:0.44;}
	.st13{fill:url(#SVGID_15_);fill-opacity:0.44;}
	.st14{fill:url(#SVGID_16_);fill-opacity:0.44;}
	.st15{fill:url(#SVGID_17_);fill-opacity:0.44;}
	.st16{fill:url(#SVGID_18_);fill-opacity:0.44;}
	.st17{fill:url(#SVGID_19_);fill-opacity:0.44;}
	.st18{fill:url(#SVGID_20_);fill-opacity:0.44;}
	.st19{fill:url(#SVGID_21_);fill-opacity:0.44;}
	.st20{fill:url(#SVGID_22_);fill-opacity:0.44;}
	.st21{fill:url(#SVGID_23_);fill-opacity:0.44;}
	.st22{fill:url(#SVGID_24_);fill-opacity:0.44;}
	.st23{fill:url(#SVGID_25_);fill-opacity:0.44;}
	.st24{fill:url(#SVGID_26_);fill-opacity:0.44;}
	.st25{fill:url(#SVGID_27_);fill-opacity:0.44;}
	.st26{fill:url(#SVGID_28_);fill-opacity:0.44;}
	.st27{fill:url(#SVGID_29_);fill-opacity:0.44;}
	.st28{fill:url(#SVGID_30_);fill-opacity:0.44;}
	.st29{fill:url(#SVGID_31_);fill-opacity:0.44;}
	.st30{fill:url(#SVGID_32_);fill-opacity:0.44;}
	.st31{fill:url(#SVGID_33_);fill-opacity:0.44;}
	.st32{fill:url(#SVGID_34_);fill-opacity:0.44;}
	.st33{fill:url(#SVGID_35_);fill-opacity:0.44;}
	.st34{fill:url(#SVGID_36_);fill-opacity:0.44;}
	.st35{fill:url(#SVGID_37_);fill-opacity:0.44;}
	.st36{fill:url(#SVGID_38_);fill-opacity:0.44;}
	.st37{fill:url(#SVGID_39_);fill-opacity:0.44;}
	.st38{fill:url(#SVGID_40_);fill-opacity:0.44;}
	.st39{fill:url(#SVGID_41_);fill-opacity:0.44;}
</style>
<g>
	<g>
		<g>
			<defs>
				<rect id="SVGID_1_" x="-3407.6" y="-1521.9" width="7736.2" height="5479.8"/>
			</defs>
			<clipPath id="SVGID_2_">
				<use xlink:href="#SVGID_1_"  style="overflow:visible;"/>
			</clipPath>
			<g class="st0">
				
					<linearGradient id="SVGID_3_" gradientUnits="userSpaceOnUse" x1="-263.8552" y1="6400.2998" x2="-263.8552" y2="921.3999" gradientTransform="matrix(1 0 0 -1 264.9 4879.2002)">
					<stop  offset="0.3333" style="stop-color:#A1D2A6"/>
					<stop  offset="0.6927" style="stop-color:#A1D2A6;stop-opacity:0"/>
					<stop  offset="1" style="stop-color:#A1D2A6;stop-opacity:0"/>
				</linearGradient>
				<path class="st1" d="M-1196.3,2688.2c16.1,59.6,28.7,110.2,37.1,163.1l0.3,1.3l1,0.6c4.8,3.2,4.8,8.4,4.5,14.5
					c0,4.8-0.3,9.7,1.9,14.2c11.6,23.5,16.1,49,21,75.8l1,5.2l0.3,1c9.7,16.4,12.9,36.1,14.5,50.9v0.6l0.3,0.3
					c9.7,16.8,12.9,36.1,14.5,50.9v0.6c8.4,24.2,16.8,48.4,25.1,72.5c27.1,78.7,55.1,160.2,86.1,239.5
					c67,157.6,177.6,292.7,284.9,423.2c41.6,50.6,83.8,102.2,123.8,155.4h6.4c-40.6-54.5-83.8-107-126.4-158.6
					c-107-130.5-217.6-265.3-284-421.9c-30.9-79-59-160.5-86.1-239.2c-8.4-24.2-16.8-48.4-25.1-72.2c-1.6-15.5-5.2-35.1-14.8-52.2
					c-1.9-15.1-5.2-34.8-14.8-52.2l-1-4.8c-4.8-26.1-9.7-53.2-21.6-77c-1.6-3.2-1.6-7.4-1.3-11.6c0-6.4,0.3-13.5-5.8-18.4
					c-8.4-52.5-21-103.1-37.1-162.1c-3.5-26.1-8.1-52.9-12.6-81.6c-34.2-213.4-77-479,121.5-610.5c20-5.2,43.8-11.9,66.4-22.2
					c259.2-31.6,465.8,110.6,665.6,248.2c119.9,82.5,244,167.9,378.7,215.6l6.1,1c19,3.2,36.7,6.4,53.2,13.9l0.6,0.3
					c138.9,25.5,265.3-20.6,376.2-137c114.8-120.2,176-278.2,202.4-361.7c6.1-34.8,13.2-63.2,22.2-88.6v-0.3
					c25.5-148,24.2-275.9-3.5-379.7c-42.5-195.7-147.3-369.1-248.8-536.4c-95.5-158-194.4-321.5-240.5-503.2l-0.3-0.6
					c-2.3-4.2-1.9-9.7-1.6-15.2c0.3-7.7,1-16.4-6.1-22.6c-2.3-5.2-1.6-11.6-1.3-18.1c0.6-9.3,1.3-18.7-5.8-26.1
					c-3.5-45.1-5.5-88.3,10.6-123.8c2.3-4.5,2.3-9.3,1.9-14.2c0-6.1-0.3-11.3,4.5-14.5l0.6-0.6l0.3-1
					c17.4-55.4,55.1-109.3,106-151.5c89-73.8,200.2-127,307.8-178.3c107.5-51.2,218.4-104,308-177.8c42.5-24.2,78-60.9,112.2-97
					c17.7-18.7,36.1-38,55.4-55.1l0.3-0.3c28.4-37.1,49.6-79,69.9-119.6c8.7-17.1,17.4-34.8,26.8-51.6l0.3-0.3v-0.6
					c1.6-13.5,6.4-25.8,14.2-35.8l0.3-0.3v-0.6c75.8-281.1,32.6-575.4-14.2-861h-5.2c46.7,285.3,89.9,578.9,14.8,859
					c-8.4,10.6-13.2,23.2-14.8,37.4c-9.3,17.1-18.1,34.5-26.8,51.6c-20.3,40.3-41.3,81.9-69.3,118.3c-19.3,17.4-37.7,36.4-55.4,55.1
					c-34.2,35.5-69.3,72.5-111.2,96.1l-0.3,0.3C828.3-230,717.7-177.1,610.7-126.2C502.7-74.6,391.5-21.4,301.9,52.7
					c-51.3,42.5-89.3,97-107.3,153.1c-6.4,4.8-6.1,12.2-6.1,18.7c0,4.2,0.3,8.4-1.6,11.6c-16.8,37.1-14.8,81.6-11.3,127.6v1l0.6,0.6
					c6.1,5.5,5.5,13.9,4.8,22.6c-0.6,7.1-1,14.5,1.9,21.3l0.3,0.6l0.6,0.3c5.5,4.2,5.2,11,4.8,18.4c-0.3,5.8-0.6,11.9,1.9,17.4
					c46.1,182.4,145.4,346.2,241.1,504.5c101.2,167,206,340.1,248.2,535.1c27.7,103.1,28.7,230.2,3.5,377.5
					c-9,25.8-16.1,54.2-22.2,89c-26.1,82.8-87.4,239.8-201.1,359.4c-109.3,114.8-234.3,160.5-371,135.7
					c-16.8-7.4-35.8-10.6-54.2-13.9l-5.5-1c-134.1-47.7-257.5-132.8-377.1-215c-200.8-138.3-408.4-281.1-669.8-249.2l-0.6,0.3
					c-22.6,10.3-46.1,17.1-66.4,22.2l-1,0.3c-201.8,133.1-158.6,400.7-124.1,616C-1204.4,2635-1199.9,2661.8-1196.3,2688.2z"/>
				
					<linearGradient id="SVGID_4_" gradientUnits="userSpaceOnUse" x1="1397.1107" y1="6400.7002" x2="1397.1107" y2="967.8997" gradientTransform="matrix(1 0 0 -1 264.9 4879.2002)">
					<stop  offset="0.3333" style="stop-color:#A1D2A6"/>
					<stop  offset="0.6927" style="stop-color:#A1D2A6;stop-opacity:0"/>
					<stop  offset="1" style="stop-color:#A1D2A6;stop-opacity:0"/>
				</linearGradient>
				<path class="st2" d="M4328.6,1775.6c-454.8-123.8-807.5-476.1-918-930.9c-68.3-301.1,98-536.4,258.8-764.3
					C3751-35,3835.1-154.3,3888.6-280.9l1.3-7.4c3.2-18.7,6.1-36.1,13.2-51.9l0.3-1.3c53.2-307.8-285.6-464.2-492.2-530.2l-6.4-1.3
					c-18.7-3.2-36.4-6.1-52.2-13.5c-6.1-2.9-12.9-2.6-19-2.3c-8.1,0.3-12.9,0.6-16.1-3.5l-1.3-1.6l-1.9-0.3
					c-85.4-18.7-153.8,3.5-209.5,67.4c-48,55.1-80.6,134.7-109,205.3c-13.5,33.8-26.4,65.4-40.3,93.5l-0.3,1v1
					c-1.9,18.1-11.6,33.8-21,49l-1,1.6v1.3c-1.9,18.1-11.6,33.8-21,49l-1,1.3C2818.4-202.9,2693-24.9,2539,105.3
					c-52.5,41.6-108.3,79.9-162.5,117.3c-64.8,44.5-131.5,90.9-193.7,142.5c-73.5,50.3-137,119.6-198.6,186.6
					c-14.5,15.8-29.3,31.9-43.8,47.4l-0.3,0.3c-144.1,184.1-247.9,387.5-342,580.2l-0.3,0.6c-16.1,45.8-29.7,79.9-44.2,110.9l-0.3,1
					c-6.1,25.5-13.2,47.1-21.9,65.8l-0.3,0.6v1c-2.3,20-8.7,39.3-14.8,57.7c-2.6,7.4-5.2,15.2-7.1,22.9l-1.3,9.7
					c-3.2,22.9-6.1,44.2-13.2,64.1l-0.3,1c-25.5,147-21.6,302.7-18.1,453.2c3.9,152.8,7.7,310.7-19,460v0.3
					c-2.9,28.7-9.7,58.3-21.9,95.4l-0.3,0.6c-48,267.2-299.5,436.1-519,505.4c-6.1,2.3-12.6,4.2-18.7,6.1
					c-26.1,8.7-52.9,17.4-77.7,30.9c-14.5,1.6-27.1,6.8-38,15.2c-230.5,75.8-351,276.2-467.7,470.3
					c-56.7,94.4-115.4,192.1-185.7,272.7c-15.5,9-30.3,19.7-44.5,29.7c-13.9,10-28,20.3-42.9,29h-1c-7.7,1-15.8,2.3-21.3,6.8
					c-8.4-1-16.4,2.3-23.5,5.2c-10.6,4.2-16.8,6.4-23.2,0.6l-1.3-1.3h-1.9c-22.6-1.9-40.9-4.2-57.1-14.2l-0.6-0.3
					c-123.8-54.8-229.2-149.6-331.4-241.1c-17.4-15.5-35.5-31.6-53.2-47.4l-0.3-0.3c-148-112.5-275.9-267.9-381-461.3
					c-7.7-28.4-20.3-54.5-32.6-79.9l-4.2-9c-5.5-23.9-14.5-46.4-23.2-68c-4.8-11.6-9.7-23.5-13.9-35.5c-7.7-39-17.4-73.2-29.7-104.1
					c-20.6-100.6-41.6-216.6-31.3-321.1c12.2-126.7,67-202.8,167.3-233.4l4.8-0.6c31.9-3.2,67.7-6.8,96.1,3.9l0.6,0.3
					c166.6,41.9,307.5,146,443.2,246.9c130.5,96.7,265.3,196.6,423.9,243c4.8,2.3,10.3,2.3,14.8,1.9c7.1-0.3,10.3,0,12.2,3.5
					l1.6,2.3h2.9c13.5,0.3,27.1,1,41.6,1.6c41.6,1.9,84.5,3.9,122.8-5.2l0.6-0.3c92.5-33.5,171.8-96.1,242.1-191.1
					c62.9-85.1,110.9-186.6,151.2-275c47.7-105.4,92.8-220.5,133.8-342l0.3-1c1.6-14.8,4.8-33.8,14.2-50.3
					c2.6-5.2,2.3-10.6,2.3-15.5c0-7.1,0-10,3.5-12.2l1.6-1.3l0.3-1.9c26.1-123.1,32.6-244.3,18.7-350.7
					c-24.5-202.1-127-377.5-226.3-546.7c-80.3-137.3-163.4-279.1-204-434.2l-0.3-1c-1.9-3.5-1.6-8.7-1.3-13.9
					c0.3-7.4,1-16.4-5.8-23.2c0-13.2-2.6-26.8-5.5-40c-4.8-23.5-9.3-46.1,1-67c3.2-7.1,2.9-14.8,2.3-22.6
					c-0.6-8.4-1.3-15.8,3.9-20.3l1.3-1.3l0.3-1.9c1.6-14.8,4.8-33.8,14.2-50l0.3-1C518.5,232.9,576.9,162,670,95.9
					C738.4,47.3,814.8,3.7,888.2-38.2c194.4-110.9,395.5-225.3,485.1-450.6l0.3-0.6c8.4-32.2,18.1-61.2,29.3-88.3l0.3-1
					c59-291.7,42.5-605.7,26.8-909.3c-0.6-11.3-1.3-22.6-1.6-33.5h-10.6c0.6,11.3,1.3,22.9,1.6,34.2c15.8,303,32.2,616-26.4,906.4
					c-11.6,27.4-21.3,56.4-29.7,89c-88.6,221.8-287.8,335.2-480.6,445.2C809-4.6,732.6,38.9,663.6,87.9
					c-94.4,67-154.4,139.6-182.8,221.8c-9.7,17.1-13.2,36.4-15.1,51.9c-7.4,8.1-6.4,18.4-5.8,27.4c0.3,6.4,1,12.6-1.3,17.1
					c-11.6,24.2-6.8,49.3-1.6,73.5c2.6,13.2,5.5,27.1,5.2,40v2.6l1.9,1.6c4.2,3.2,4.2,8.4,3.5,16.1c-0.3,5.8-0.6,12.6,1.9,18.7
					c41.3,156.3,124.4,298.5,205,436.1c98.6,168.6,200.8,343,225,542.8c13.5,104.4,7.1,224-18.4,345.2c-6.4,5.5-6.4,13.5-6.1,20
					c0,3.9,0.3,7.7-1,10c-10,17.7-13.5,37.7-15.5,53.5c-40.6,121.2-85.4,235.6-133.1,340.4c-88.3,194-190.8,389.7-386.8,460.6
					c-36.7,8.4-79,6.4-119.6,4.8c-13.2-0.6-26.4-1.3-39.6-1.3c-5.5-6.1-13.2-5.8-19.7-5.8c-3.9,0-7.7,0.3-10.3-1.3l-1-0.3
					c-157-45.8-291.4-145.4-421-241.4c-136.7-101.2-278.2-206-446.8-248.5c-30.6-11.3-67.7-7.4-100.6-4.2l-5.5,0.6l-1,0.3
					c-103.8,31.3-162.8,113.1-175.4,242.7c-10.3,106.4,11,223.4,31.6,324.9l0.3,1c12.2,30.6,21.9,64.5,29.3,103.1l0.3,0.6
					c4.2,12.2,9.3,24.5,13.9,36.4c8.7,21.6,17.7,43.8,22.9,67l4.8,10.6c12.2,25.1,24.8,51.3,32.2,78.7l0.3,1
					c105.7,195,235,351.7,383.9,465.1c17.7,15.5,35.5,31.6,52.9,47.1c102.5,92.2,208.6,187.3,333.9,242.7
					c18.7,11.3,41.3,13.5,59.6,15.1c4.5,3.9,9.3,5.2,14.2,5.2c6.4,0,12.9-2.6,18.7-4.8c7.1-2.9,13.9-5.5,20-4.2l3.2,0.6l1.9-2.6
					c2.6-3.2,10.3-4.2,17.1-5.2l2.9-0.3l1-0.6c15.5-9,30.3-19.7,44.8-30c14.2-10.3,29-20.6,44.2-29.7l0.6-0.3l0.6-0.6
					c71.2-81.6,130.2-179.9,187.6-275c115.7-192.4,235.6-391.6,462.9-466.1l1-0.3l0.6-0.6c9.7-7.7,21.3-12.2,34.5-13.9h1l1-0.6
					c24.2-13.2,49.6-21.6,76.7-30.6c6.4-1.9,12.6-4.2,18.7-6.1c128-40.3,243.7-104.8,334.3-186.3
					c104.8-94.4,169.2-204.4,191.5-326.9c12.6-37.7,19.3-67.7,22.2-97c27.1-150.2,23.2-308.8,19.3-461.9
					c-3.9-149.9-7.4-304.9,17.7-450.6c7.7-21,10.6-43.8,13.9-65.8l1.3-8.7c2.3-7.4,4.5-14.8,7.1-22.2c6.1-18.7,12.6-38.4,15.2-59
					c8.7-19,15.8-40.9,22.2-66.4c14.8-31.3,28.4-65.4,44.5-111.2c93.8-192.1,197.3-394.9,340.7-578c14.5-15.5,29.3-31.6,43.5-47.4
					c60.9-66.7,124.1-135.7,197-185.3l0.3-0.3c61.9-51.6,128.6-97.7,193.1-142.2c54.2-37.4,109.9-75.8,163.1-117.7
					c155.7-131.2,281.7-310.7,375.2-533.2l0.3-0.3c9.7-16.1,20-32.6,22.6-52.2c9.7-16.1,19.7-32.6,22.2-52.2
					c13.9-28,26.8-59.6,40.3-93.2c58-142.8,123.8-304.9,304.9-266.6c6.8,7.1,16.1,6.8,23.9,6.1c5.2-0.3,10-0.6,13.9,1.3
					c17.4,7.7,36.4,11,55.1,14.2l5.2,1c203.4,64.8,536.1,218.2,484.8,517.7c-7.4,16.8-10.6,35.8-13.9,53.8l-1,5.5
					c-52.9,125.4-136.7,244-217.9,358.8c-80.9,114.4-164.7,233.1-217.9,358.4c-60,141.2-73.8,276.9-42.5,413.9
					c61.2,251.7,197.3,476.7,393.6,650.8c154.1,136.7,336.8,234.7,534.8,288.5v-10.3h0.9V1775.6z"/>
				
					<linearGradient id="SVGID_5_" gradientUnits="userSpaceOnUse" x1="1403.3783" y1="6017.1001" x2="1403.3783" y2="3643.5" gradientTransform="matrix(1 0 0 -1 264.9 4879.2002)">
					<stop  offset="0.3333" style="stop-color:#A1D2A6"/>
					<stop  offset="0.6927" style="stop-color:#A1D2A6;stop-opacity:0"/>
					<stop  offset="1" style="stop-color:#A1D2A6;stop-opacity:0"/>
				</linearGradient>
				<path class="st3" d="M1204.8,1235.7l-0.6-0.3c-4.2-1-8.1-2.3-11.9-3.5c-9-2.9-17.1-5.5-27.1-5.5h-1.3l-0.6-0.3
					c-1.3-0.6-1.9-2.3-1.3-3.5c0.6-1,1.6-1.6,2.6-1.3h0.3c10.6,0,20,2.9,28.7,5.8c3.5,1.3,7.1,2.3,11,3.2c1.3-0.3,2.6,0.3,3.2,1.9
					c0.3,1.3-0.3,2.9-1.6,3.2L1204.8,1235.7z M1245.1,1221.9c-1,0-1.9-0.6-2.6-1.6c-0.6-1.3,0-2.9,1.6-3.5
					c13.9-5.5,24.8-11,34.5-17.7l1.3-1.3c1-1,2.6-1.3,3.9,0c1,1,1,2.6,0.3,3.9l-1.9,1.9c-10.3,7.1-21.6,12.9-35.8,18.7
					C1245.7,1221.9,1245.4,1221.9,1245.1,1221.9z M1128.4,1204.5c-0.6,0-1,0-1.6-0.3c-10.6-7.7-21.6-16.4-32.9-26.8
					c-1.3-1-1.3-2.6-0.3-3.9c1-1,2.6-1.3,3.9-0.3c11.3,10,21.9,18.7,32.6,26.1c1.3,1,1.6,2.6,0.6,3.5
					C1130,1204.1,1129,1204.5,1128.4,1204.5z M1309.9,1170.6c-0.6,0-1.3-0.3-1.6-0.6c-1-1-1.3-2.6-0.3-3.9
					c9-10.6,18.1-21.6,26.8-32.6c1-1,2.6-1.3,3.9-0.3s1.3,2.6,0.3,3.5c-8.7,11-17.7,21.9-27.1,32.6
					C1311.2,1170.3,1310.5,1170.6,1309.9,1170.6z M1065.2,1149c-0.6,0-1.3-0.3-1.9-0.6c-8.7-8.7-17.4-17.7-25.8-26.4l-3.5-3.5
					c-1-1-1-2.6,0-3.9c1-1,2.6-1,3.9,0l3.5,3.5c8.4,8.7,17.1,17.7,25.8,26.4c1,1,1,2.6,0,3.9C1066.5,1148.7,1065.9,1149,1065.2,1149
					z M1362.4,1104.5c-0.6,0-1.3,0-1.6-0.6c-1.3-1-1.6-2.6-0.6-3.5c8.4-11,16.8-22.6,24.8-34.2c1-1.3,2.6-1.6,3.5-0.6
					c1.3,1,1.6,2.6,0.6,3.5c-8.1,11.6-16.4,23.2-24.8,34.2C1364,1104.2,1363.4,1104.5,1362.4,1104.5z M1010.1,1085.5
					c-1,0-1.6-0.3-2.3-1c-8.4-11.3-17.1-22.2-25.5-33.5c-1-1.3-0.6-2.9,0.6-3.9c1.3-1,2.9-0.6,3.9,0.6c8.4,11.3,17.1,22.6,25.5,33.5
					c1,1.3,0.6,2.9-0.6,3.5C1011.1,1085.2,1010.7,1085.5,1010.1,1085.5z M1410.8,1035.6c-0.6,0-1,0-1.3-0.3c-1.3-1-1.6-2.6-0.6-3.5
					c7.7-11.6,15.1-23.5,22.6-35.5c0.6-1.3,2.3-1.6,3.5-1c1.3,0.6,1.6,2.3,1,3.5c-7.4,11.9-15.2,23.9-22.6,35.5
					C1412.7,1035.2,1411.7,1035.6,1410.8,1035.6z M959.2,1018.1c-1,0-1.6-0.3-1.9-1c-9-11.9-17.1-23.2-24.8-34.2
					c-1-1.3-0.6-2.9,0.6-3.5c1.3-1,2.9-0.6,3.9,0.6c7.7,11,16.1,21.9,24.8,33.8c1,1.3,0.6,2.9-0.6,3.5
					C960.5,1018.1,959.8,1018.1,959.2,1018.1z M1455.2,964c-0.3,0-1,0-1.3-0.3c-1.3-0.6-1.6-2.3-1-3.5c7.1-11.9,13.9-24.2,21-36.4
					c0.6-1.3,2.3-1.6,3.5-1c1.3,0.6,1.6,2.3,1,3.5c-6.8,12.6-13.9,24.8-21,36.7C1457.2,963.4,1456.2,964,1455.2,964z M910.2,949.8
					c-1,0-1.6-0.3-2.3-1.3c-8.4-11.9-16.1-23.5-23.9-34.8c-1-1.3-0.6-2.9,0.6-3.5c1.3-1,2.9-0.3,3.5,0.6
					c7.4,11.3,15.5,22.9,23.5,34.8c1,1.3,0.6,2.9-0.6,3.5C911.1,949.8,910.5,949.8,910.2,949.8z M1496.2,890.2c-0.3,0-1,0-1.3-0.3
					c-1.3-0.6-1.6-2.3-1.3-3.5c6.4-12.2,12.9-24.8,19.3-37.4c0.6-1.3,2.3-1.9,3.5-1.3c1.3,0.6,1.9,2.3,1.3,3.5
					c-6.4,12.9-12.9,25.5-19.3,37.4C1498.1,889.9,1497.1,890.2,1496.2,890.2z M863.4,879.5c-1,0-1.6-0.3-2.3-1.3
					c-7.7-12.2-14.8-24.2-21.9-36.1c-0.6-1.3-0.3-2.9,1-3.5s2.9-0.3,3.5,1c6.8,11.6,14.2,23.9,21.9,36.1c0.6,1.3,0.3,2.9-1,3.5
					C864.4,879.5,864.1,879.5,863.4,879.5z M1533.9,815.1c-0.3,0-1,0-1.3-0.3c-1.3-0.6-1.9-2.3-1.3-3.5c5.8-12.2,11.9-25.1,18.1-38
					c0.6-1.3,2.3-1.9,3.5-1.3c1.3,0.6,1.9,2.3,1.3,3.5c-6.1,12.9-12.2,25.8-18.1,38C1535.8,814.4,1534.9,815.1,1533.9,815.1z
					 M820.9,806.7c-1,0-1.9-0.3-2.3-1.3c-6.8-12.6-13.2-25.1-19.3-37.4c-0.6-1.3,0-2.9,1.3-3.5s2.9,0,3.5,1.3
					c6.1,12.2,12.6,24.8,19.3,37.4c0.6,1.3,0.3,2.9-1,3.5C821.8,806.7,821.2,806.7,820.9,806.7z M1569.4,738.4c-0.3,0-0.6,0-1-0.3
					c-1.3-0.6-1.9-2.3-1.3-3.5c5.8-12.9,11.6-25.8,17.1-38.4c0.6-1.3,2.3-1.9,3.5-1.3c1.3,0.6,1.9,2.3,1.3,3.5
					c-5.8,12.9-11.3,25.8-17.1,38.7C1571.3,738,1570.6,738.4,1569.4,738.4z M783.8,731.3c-1,0-1.9-0.6-2.6-1.6
					c-5.8-13.2-11-26.1-15.8-39c-0.6-1.3,0.3-2.9,1.6-3.2c1.3-0.6,2.9,0,3.5,1.6c4.8,12.9,10.3,25.8,15.8,39c0.6,1.3,0,2.9-1.3,3.5
					C784.5,730.9,784.1,731.3,783.8,731.3z M1603.2,661.3c-0.3,0-0.6,0-1-0.3c-1.3-0.6-1.9-2.3-1.3-3.5c5.5-12.9,11-25.8,16.4-38.7
					c0.6-1.3,2.3-1.9,3.5-1.3c1.3,0.6,1.9,2.3,1.6,3.5c-5.5,12.9-11,25.8-16.4,38.7C1605.1,660.7,1604.2,661.3,1603.2,661.3z
					 M754.2,652.3c-1.3,0-2.3-0.6-2.6-1.9c-4.2-13.5-8.1-27.1-11.6-40.6c-0.3-1.3,0.6-2.9,1.9-3.2c1.3-0.3,2.9,0.6,3.2,1.9
					c3.5,13.2,7.4,27.1,11.6,40.3c0.3,1.3-0.3,2.9-1.6,3.2C754.5,652.3,754.5,652.3,754.2,652.3z M1635.8,583.6c-0.3,0-0.6,0-1-0.3
					c-1.3-0.6-1.9-1.9-1.3-3.5c5.5-12.9,10.6-25.8,16.1-39c0.6-1.3,1.9-1.9,3.5-1.6c1.3,0.6,1.9,2.3,1.3,3.5
					c-5.5,12.9-10.6,25.8-16.1,39C1638,583,1637,583.6,1635.8,583.6z M733.2,570.7c-1.3,0-2.3-1-2.6-2.3c-2.6-13.9-4.8-28-6.4-41.9
					c-0.3-1.3,1-2.9,2.3-2.9c1.3-0.3,2.6,1,2.9,2.3c1.6,13.9,3.9,27.7,6.4,41.6c0.3,1.6-0.6,2.9-1.9,3.2
					C733.8,570.7,733.5,570.7,733.2,570.7z M1668.3,505.6c-0.3,0-0.6,0-1-0.3c-1.3-0.6-1.9-2.3-1.6-3.5c5.5-12.9,10.6-25.8,16.1-39
					c0.6-1.3,1.9-1.9,3.5-1.3c1.3,0.6,1.9,2.3,1.3,3.5c-5.5,12.9-11,25.8-16.1,39C1670.2,505.3,1669.3,505.6,1668.3,505.6z
					 M730.6,487.9h-0.3c-1.3-0.3-2.6-1.6-2.3-2.9c1.9-13.9,4.8-27.7,8.4-41.6c0.3-1.3,1.6-2.3,3.2-1.9c1.3,0.3,2.3,1.9,1.9,3.2
					c-3.5,13.5-6.4,27.4-8.4,40.9C732.9,486.9,731.9,487.9,730.6,487.9z M1700.9,427.9c-0.3,0-0.6,0-1-0.3c-1.3-0.6-1.9-2.3-1.3-3.5
					c5.5-12.9,11-25.8,16.4-38.7c0.6-1.3,2.3-1.9,3.5-1.3c1.3,0.6,1.9,2.3,1.3,3.5c-5.5,12.9-11,25.8-16.4,38.7
					C1702.8,427.3,1701.8,427.9,1700.9,427.9z M751.9,406.7c-0.3,0-0.6,0-1-0.3c-1.3-0.6-1.9-1.9-1.6-3.5
					c4.8-12.9,10.6-26.1,17.1-38.7c0.6-1.3,2.3-1.9,3.5-1.3c1.3,0.6,1.9,2.3,1.3,3.5c-6.4,12.6-11.9,25.5-16.8,38.4
					C753.8,406,752.9,406.7,751.9,406.7z M1734.1,350.6c-0.3,0-0.6,0-1-0.3c-1.3-0.6-1.9-2.3-1.3-3.5c5.8-13.2,11.6-26.1,17.4-38.4
					c0.6-1.3,2.3-1.9,3.5-1.3c1.3,0.6,1.9,2.3,1.3,3.5c-5.5,12.2-11.6,25.1-17.4,38.4C1736,349.9,1735,350.6,1734.1,350.6z
					 M789.3,331.2c-0.3,0-1,0-1.3-0.3c-1.3-0.6-1.6-2.3-1-3.5c6.1-10,12.9-20.3,20.3-30.3c1.6-1.6,2.9-3.2,4.2-4.5
					c1-1,2.6-1.3,3.9,0c1,1,1,2.6,0,3.9c-1.3,1.3-2.6,2.9-3.9,4.5c-6.8,9.7-13.5,19.7-20,29.7C790.9,330.9,790.3,331.2,789.3,331.2z
					 M1769.2,273.9c-0.3,0-0.6,0-1.3-0.3c-1.3-0.6-1.9-2.3-1.3-3.5c6.1-12.9,12.2-25.8,18.4-38c0.6-1.3,2.3-1.9,3.5-1.3
					s1.9,2.3,1.3,3.5c-6.1,12.2-12.2,24.8-18.4,38C1771.1,273.2,1770.2,273.9,1769.2,273.9z M843.1,267.1c-0.6,0-1.3-0.3-1.9-1
					c-1-1-1-2.6,0-3.9c10-9.3,21-18.7,31.9-27.7c1.3-1,2.9-0.6,3.5,0.3c1,1.3,0.6,2.9-0.3,3.9c-11,8.7-21.6,18.1-31.6,27.4
					C844.4,266.8,843.8,267.1,843.1,267.1z M908.2,213.9c-1,0-1.6-0.3-2.3-1c-1-1.3-0.6-2.9,0.6-3.5c11.3-8.1,22.9-15.8,35.1-23.5
					c1.3-0.6,2.9-0.3,3.5,1s0.3,2.9-1,3.5c-11.9,7.7-23.5,15.5-34.8,23.2C909.5,213.6,908.9,213.9,908.2,213.9z M1806.3,198.4
					c-0.3,0-1,0-1.3-0.3c-1.3-0.6-1.9-2.3-1.3-3.5l2.6-5.2c7.4-9.7,15.2-19.3,23.2-28.7c1-1,2.6-1.3,3.9-0.3c1,1,1.3,2.6,0.3,3.9
					c-8.1,9-15.5,18.7-22.9,28.4l-2.3,4.5C1808.2,197.8,1807.2,198.4,1806.3,198.4z M979.5,168.8c-1,0-1.6-0.3-2.3-1.3
					c-0.6-1.3-0.3-2.9,1-3.5c11.6-6.8,24.2-13.5,37.1-20c1.3-0.6,2.9,0,3.5,1.3s0,2.9-1.3,3.5c-12.9,6.8-25.1,13.2-37.1,20
					C980.1,168.8,979.8,168.8,979.5,168.8z M1860.4,134c-0.6,0-1.3-0.3-1.9-0.6c-1-1-1-2.6,0-3.9c9.7-9.7,20.3-19.7,30.9-29
					c1.3-1,2.9-1,3.9,0.3c1,1,1,2.9-0.3,3.9c-10.6,9.3-21,19-30.6,28.7C1861.7,134,1861.1,134,1860.4,134z M1054.3,130.1
					c-1,0-1.9-0.6-2.3-1.6c-0.6-1.3,0-2.9,1.3-3.5c11.9-5.8,24.5-11.6,38.4-17.7c1.3-0.6,2.9,0,3.5,1.3s0,2.9-1.3,3.5
					c-13.5,6.1-26.1,11.9-38.4,17.7C1054.9,130.1,1054.6,130.1,1054.3,130.1z M1131,95.6c-1,0-1.9-0.6-2.6-1.6
					c-0.6-1.3,0-2.9,1.3-3.5c12.9-5.5,25.8-11,39-16.4c1.3-0.6,2.9,0,3.5,1.3s0,2.9-1.3,3.5c-12.9,5.5-25.8,11-38.7,16.4
					C1131.6,95.6,1131.3,95.6,1131,95.6z M1923.6,78.5c-1,0-1.6-0.3-1.9-1c-1-1.3-0.6-2.9,0.3-3.5c10.6-8.4,22.2-16.8,34.2-25.1
					c1.3-1,2.9-0.6,3.5,0.6c1,1.3,0.6,2.9-0.6,3.5c-11.6,8.1-23.2,16.4-33.8,24.8C1924.9,78.2,1924.2,78.5,1923.6,78.5z
					 M1208.7,63.1c-1,0-1.9-0.6-2.3-1.6c-0.6-1.3,0-2.9,1.3-3.5c12.9-5.5,25.8-11,38.7-16.4c1.3-0.6,2.9,0,3.5,1.3s0,2.9-1.3,3.5
					c-12.9,5.5-25.8,11-39,16.4C1209.3,63.1,1209,63.1,1208.7,63.1z M1992.6,30.2c-1,0-1.6-0.3-2.3-1.3c-1-1.3-0.3-2.9,0.6-3.5
					c11.6-7.4,23.2-14.5,36.1-22.2c1.3-0.6,2.9-0.3,3.5,1s0.3,2.9-1,3.5c-12.6,7.4-24.5,14.8-35.8,21.9
					C1993.6,30.2,1993.2,30.2,1992.6,30.2z M1286,29.5c-1,0-1.9-0.6-2.3-1.6c-0.6-1.3,0-2.9,1.3-3.5c13.5-6.1,26.1-11.9,38-17.7
					c1.3-0.6,2.9,0,3.5,1.3s0,2.9-1.3,3.5c-12.2,5.8-24.5,11.6-38.4,17.7C1286.7,29.5,1286.3,29.5,1286,29.5z M1361.8-6.9
					c-1,0-1.9-0.6-2.3-1.3c-0.6-1.3,0-2.9,1.3-3.5c12.9-6.8,25.1-13.5,36.7-20.3c1.3-0.6,2.9-0.3,3.5,1s0.3,2.9-1,3.5
					c-11.6,6.8-24.2,13.5-37.1,20.3C1362.7-6.9,1362.1-6.9,1361.8-6.9z M2065.1-13c-1,0-1.9-0.3-2.3-1.3c-0.6-1.3-0.3-2.9,1-3.5
					c11-6.1,22.9-12.6,36.7-20.3c1.3-0.6,2.9-0.3,3.5,1s0.3,2.9-1,3.5c-14.2,7.7-25.8,14.2-36.7,20.3C2065.8-13,2065.4-13,2065.1-13
					z M1434.6-49.1c-1,0-1.6-0.3-2.3-1.3c-1-1.3-0.3-2.9,0.6-3.5c11.9-7.7,23.5-15.8,34.5-23.9c1.3-1,2.9-0.6,3.5,0.6
					c1,1.3,0.6,2.9-0.6,3.5c-11,8.1-22.9,16.1-34.8,24.2C1435.6-49.4,1435.3-49.1,1434.6-49.1z M2138.9-53.3c-1,0-1.9-0.6-2.3-1.3
					c-0.6-1.3-0.3-2.9,1-3.5c12.2-6.8,24.8-13.2,37.1-20c1.3-0.6,2.9-0.3,3.5,1s0.3,2.9-1,3.5c-12.2,6.8-24.8,13.5-37.1,20
					C2139.6-53.6,2139.2-53.3,2138.9-53.3z M2212.7-93.9c-1,0-1.9-0.3-2.3-1.3c-0.6-1.3-0.3-2.9,1-3.5c13.2-7.4,25.1-14.5,36.4-21.3
					c1.3-0.6,2.9-0.3,3.5,1s0.3,2.9-1,3.5c-11.3,6.8-23.2,13.9-36.4,21.3C2213.7-93.9,2213.1-93.9,2212.7-93.9z M1502.3-99.1
					c-0.6,0-1.6-0.3-1.9-1c-1-1.3-1-2.9,0.3-3.9c10.6-9,21.3-18.4,31.3-28c1-1,2.6-1,3.9,0c1,1,1,2.6,0,3.9
					c-10,9.7-20.6,19-31.3,28.4C1503.6-99.4,1502.9-99.1,1502.3-99.1z M2284.9-137.4c-1,0-1.6-0.3-2.3-1.3c-1-1.3-0.3-2.9,0.6-3.5
					c12.2-7.7,23.9-15.8,34.8-23.5c1.3-1,2.9-0.6,3.5,0.6c1,1.3,0.6,2.9-0.6,3.5c-11,7.7-22.9,15.8-35.1,23.5
					C2285.9-137.4,2285.3-137.4,2284.9-137.4z M1561.3-158.7c-0.3,0-1,0-1.3-0.3c-1.3-0.6-1.6-2.3-1-3.5
					c6.8-11.9,13.2-24.5,19.3-37.1c0.6-1.3,2.3-1.9,3.5-1.3c1.3,0.6,1.9,2.3,1.3,3.5c-6.1,12.9-12.6,25.5-19.7,37.4
					C1562.9-159,1562.3-158.7,1561.3-158.7z M2353.6-185.8c-0.6,0-1.6-0.3-1.9-1c-1-1.3-0.6-2.9,0.3-3.5
					c11.3-8.7,22.2-17.7,32.2-26.8c1.3-1,2.9-1,3.9,0.3c1,1,1,2.9-0.3,3.9c-10.3,9-21.3,18.1-32.6,27.1
					C2354.9-186.1,2354.2-185.8,2353.6-185.8z M1597.4-234.8c-0.3,0-0.6,0-1,0c-1.3-0.6-1.9-1.9-1.6-3.5
					c4.8-12.6,9.7-26.1,13.9-39.6c0.3-1.3,1.9-2.3,3.2-1.6c1.3,0.3,2.3,1.9,1.6,3.2c-4.2,13.5-9,27.1-13.9,40
					C1599.3-235.4,1598.4-234.8,1597.4-234.8z M2416.8-241.6c-0.6,0-1.3-0.3-1.9-0.6c-1-1-1-2.6,0-3.9c10-10,19.7-20.3,28.4-30.6
					c1-1,2.6-1.3,3.9-0.3c1.3,1,1.3,2.6,0.3,3.9c-9,10.6-18.7,21-28.7,30.9C2418.1-241.6,2417.4-241.6,2416.8-241.6z M2470.9-305.7
					c-0.6,0-1,0-1.6-0.3c-1.3-1-1.6-2.6-0.6-3.5c8.1-11.3,16.4-22.9,24.5-34.2c1-1.3,2.6-1.6,3.9-0.6c1.3,1,1.3,2.6,0.6,3.5
					c-8.1,11.6-16.4,22.9-24.5,34.2C2472.5-306,2471.9-305.7,2470.9-305.7z M1622.5-315.1c-0.3,0-0.3,0-0.6,0
					c-1.3-0.3-2.3-1.9-1.9-3.2c3.2-13.2,6.4-27.1,9-40.9c0.3-1.6,1.6-2.3,3.2-1.9c1.3,0.3,2.3,1.6,1.9,3.2
					c-2.9,14.2-5.8,28-9.3,41.3C1624.8-315.7,1623.8-315.1,1622.5-315.1z M2519.6-374.7c-0.6,0-1,0-1.3-0.3c-1.3-1-1.6-2.6-0.6-3.5
					c8.4-12.6,15.8-24.2,22.6-35.5c0.6-1.3,2.3-1.6,3.5-1c1.3,0.6,1.6,2.3,1,3.5c-6.8,11.3-14.2,23.2-22.6,35.8
					C2521.2-375,2520.3-374.7,2519.6-374.7z M1639-397.6h-0.3c-1.3-0.3-2.6-1.6-2.3-2.9c1.9-13.2,3.9-27.4,5.8-41.6
					c0.3-1.6,1.6-2.6,2.9-2.3c1.3,0.3,2.6,1.6,2.3,2.9c-1.6,14.5-3.5,28.7-5.8,41.9C1641.2-398.5,1640.3-397.6,1639-397.6z
					 M2559.3-448.5c-0.3,0-0.6,0-1-0.3c-1.3-0.6-1.9-1.9-1.3-3.5c5.8-15.1,10.6-27.7,14.8-39.3c0.6-1.3,1.9-1.9,3.5-1.6
					c1.3,0.6,1.9,1.9,1.6,3.2c-4.2,11.6-9,24.2-14.8,39.6C2561.2-449.1,2560.2-448.5,2559.3-448.5z M1649-481.4
					c-1.6-0.3-2.9-1.6-2.6-2.9c1.3-13.2,2.3-26.8,3.5-41.9c0-1.6,1.3-2.6,2.9-2.6s2.6,1.3,2.6,2.9c-1.3,15.1-2.3,29-3.5,42.2
					C1651.5-482.7,1650.6-481.4,1649-481.4z M2587.6-527.8c-0.3,0-0.6,0-0.6,0c-1.3-0.3-2.3-1.9-1.6-3.2c4.2-14.2,8.1-27.4,11-40.6
					c0.3-1.3,1.6-2.3,3.2-1.9c1.3,0.3,2.3,1.6,1.9,3.2c-2.9,13.2-6.8,26.4-11,40.9C2589.9-528.8,2588.6-527.8,2587.6-527.8z
					 M1655.7-565.5C1655.7-565.5,1655.4-565.5,1655.7-565.5c-1.6,0-2.9-1.3-2.6-2.9c1-13.5,1.6-27.1,2.6-40.3v-1.6
					c0-1.3,1.3-2.6,2.9-2.6c1.3,0,2.6,1.3,2.6,2.9v1.6c-1,13.5-1.6,27.1-2.6,40.3C1658.3-566.8,1657-565.5,1655.7-565.5z
					 M2606.3-610C2606.3-610,2606-610,2606.3-610c-1.6-0.3-2.9-1.6-2.6-2.9c1.9-14.2,3.2-28,3.5-41.6c0-1.3,1.3-2.6,2.6-2.6
					c1.6,0,2.6,1.3,2.6,2.6c-0.3,13.9-1.6,28-3.5,42.2C2608.6-611,2607.6-610,2606.3-610z M1660.9-649.6
					C1660.9-649.6,1660.9-650,1660.9-649.6c-1.6,0-2.6-1.3-2.6-2.9c1-14.2,1.9-28,2.9-41.9c0-1.3,1.6-2.6,2.9-2.6s2.6,1.3,2.6,2.9
					c-1,13.9-1.9,28-2.9,41.9C1663.5-650.9,1662.5-649.6,1660.9-649.6z M2604.1-693.5c-1.3,0-2.3-1-2.6-1.9l-2.6-10.6
					c-2.3-10-4.8-20.3-7.4-30.3c-0.3-1.3,0.6-2.9,1.9-3.2c1.3-0.3,2.9,0.6,3.2,1.9c2.6,10,4.8,20.3,7.4,30.3l2.6,10.6
					c0.3,1.3-0.6,2.9-1.9,3.2C2604.4-693.5,2604.1-693.5,2604.1-693.5z M1667.7-733.8c-1.6,0-2.9-1.3-2.6-2.9
					c1.3-14.8,2.9-28.4,4.5-41.9c0.3-1.3,1.6-2.6,2.9-2.3s2.6,1.6,2.3,2.9c-1.6,13.2-3.2,27.1-4.5,41.9
					C1670.2-734.7,1669-733.8,1667.7-733.8z M2583.1-775c-1.3,0-2.3-0.6-2.6-1.9c-1-3.5-1.9-7.1-3.2-10.6
					c-5.2-7.4-11-15.5-17.4-24.5c-1-1.3-0.6-2.9,0.6-3.5c1.3-1,2.9-0.6,3.9,0.6c6.4,9.3,12.2,17.4,17.4,24.8l0.3,0.6
					c1.3,3.9,2.3,7.4,3.5,11.3c0.3,1.3-0.3,2.9-1.9,3.2C2583.8-775,2583.4-775,2583.1-775z M1678-817.3h-0.3
					c-1.3-0.3-2.3-1.6-2.3-2.9c2.3-14.2,4.8-28.4,7.4-41.6c0.3-1.3,1.6-2.3,3.2-1.9c1.6,0.3,2.3,1.6,1.9,3.2
					c-2.6,13.2-5.2,27.1-7.4,41.3C1680.6-818.2,1679.3-817.3,1678-817.3z M2538.3-845.9c-1,0-1.6-0.3-2.3-1.3
					c-7.4-11-15.5-22.9-24.2-34.5c-1-1.3-0.6-2.9,0.6-3.5c1.3-1,2.9-0.6,3.5,0.6c8.4,11.9,16.4,23.5,24.2,34.5
					c1,1.3,0.6,2.9-0.6,3.5C2539.6-845.9,2539-845.9,2538.3-845.9z M1694.7-899.8c-0.3,0-0.3,0-0.6,0c-1.3-0.3-2.3-1.9-1.9-3.2
					c3.5-13.9,7.4-27.7,11.6-40.6c0.3-1.3,1.9-2.3,3.2-1.6c1.3,0.6,2.3,1.9,1.6,3.2c-4.2,12.9-8.1,26.4-11.6,40.3
					C1697-900.7,1696-899.8,1694.7-899.8z M2483.8-909.1c-0.6,0-1.3,0-1.6-0.6c-11-8.7-22.2-17.1-33.5-25.1c-1.3-1-1.3-2.6-0.6-3.5
					c1-1.3,2.6-1.3,3.9-0.6c11.3,8.1,22.9,16.8,33.8,25.1c1.3,1,1.3,2.6,0.3,3.5C2485.4-909.4,2484.8-909.1,2483.8-909.1z
					 M2415.2-958.1c-0.6,0-1,0-1.3-0.3c-11.6-7.4-23.5-14.8-35.8-21.9c-1.3-0.6-1.6-2.3-1-3.5c0.6-1.3,2.3-1.6,3.5-1
					c12.2,7.1,24.2,14.5,36.1,22.2c1.3,0.6,1.6,2.6,0.6,3.5C2417.1-958.4,2416.1-958.1,2415.2-958.1z M1720.5-980
					c-0.3,0-0.6,0-1-0.3c-1.3-0.6-1.9-1.9-1.6-3.5c5.2-13.2,11-26.4,17.1-38.7c0.6-1.3,2.3-1.9,3.5-1.3c1.3,0.6,1.9,2.3,1.3,3.5
					c-6.1,12.2-11.6,25.1-16.8,38.4C1722.5-980.7,1721.5-980,1720.5-980z M2342.6-1000.7c-0.3,0-1,0-1.3-0.3
					c-12.2-6.4-24.8-12.9-37.4-19c-1.3-0.6-1.9-2.3-1.3-3.5c0.6-1.3,2.3-1.9,3.5-1.3c12.6,6.1,25.5,12.6,37.7,19
					c1.3,0.6,1.6,2.3,1,3.5C2344.6-1001.3,2343.6-1000.7,2342.6-1000.7z M2266.9-1037.4c-0.3,0-0.6,0-1-0.3
					c-12.6-5.5-25.8-11-39-16.1c-1.3-0.6-1.9-1.9-1.3-3.5c0.6-1.3,1.9-1.9,3.5-1.6c13.2,5.2,26.1,10.6,39,16.1
					c1.3,0.6,1.9,2.3,1.3,3.5C2268.8-1037.7,2267.9-1037.4,2266.9-1037.4z M1757.3-1055.5c-0.3,0-1,0-1.3-0.3
					c-1.3-0.6-1.6-2.3-1-3.5c3.9-6.8,8.1-13.2,12.2-20l0.6-0.6c4.8-3.9,10-7.7,15.2-11.3c1.3-1,2.9-0.6,3.5,0.6
					c1,1.3,0.6,2.9-0.6,3.5c-4.8,3.5-10,7.1-14.5,11c-4.2,6.4-8.1,12.9-11.9,19.3C1759.2-1056.1,1758.2-1055.5,1757.3-1055.5z
					 M2188.6-1068c-0.3,0-0.6,0-1,0c-12.9-4.5-26.4-9-40-13.2c-1.3-0.3-2.3-1.9-1.6-3.2c0.3-1.3,1.9-2.3,3.2-1.6
					c13.5,4.2,27.1,8.7,40,13.2c1.3,0.3,1.9,1.9,1.6,3.2C2190.5-1068.7,2189.5-1068,2188.6-1068z M2108-1092.9c-0.3,0-0.6,0-0.6,0
					c-13.2-3.9-27.1-7.1-40.6-10.6c-1.3-0.3-2.3-1.6-1.9-3.2c0.3-1.3,1.9-2.3,3.2-1.9c13.9,3.2,27.4,6.8,40.9,10.6
					c1.3,0.3,2.3,1.9,1.9,3.2C2110.2-1093.8,2109.3-1092.9,2108-1092.9z M1821.4-1107c-1,0-1.9-0.6-2.3-1.6c-0.6-1.3,0-2.9,1.3-3.5
					c12.2-5.5,25.5-10.3,40-14.8c1.3-0.3,2.9,0.3,3.2,1.9c0.3,1.3-0.3,2.9-1.6,3.2c-14.2,4.2-27.1,9-39,14.5
					C1822.1-1107,1821.7-1107,1821.4-1107z M2026.1-1112.8c-0.3,0-0.3,0-0.6,0c-13.5-2.9-27.4-5.5-41.3-8.1
					c-1.3-0.3-2.3-1.6-1.9-3.2c0.3-1.3,1.6-2.3,2.9-2.3c13.9,2.6,27.7,5.2,41.6,8.1c1.3,0.3,2.3,1.6,1.9,3.2
					C2028.7-1113.8,2027.4-1112.8,2026.1-1112.8z M1943.3-1128h-0.3c-11.3-1.6-22.9-3.5-34.2-4.8c-2.3,0.3-4.2,1-6.4,1.3
					c-1.3,0.3-2.9-0.6-3.2-1.9c-0.3-1.3,0.6-2.9,1.9-3.2c2.3-0.3,4.5-1,7.1-1.3h0.3h0.3c11.6,1.6,23.2,3.2,34.8,5.2
					c1.3,0.3,2.3,1.6,2.3,2.9C1945.8-1129,1944.6-1128,1943.3-1128z"/>
				
					<linearGradient id="SVGID_6_" gradientUnits="userSpaceOnUse" x1="95.8" y1="3774.9861" x2="95.8" y2="3733.7266" gradientTransform="matrix(1 0 0 -1 264.9 4879.2002)">
					<stop  offset="0.3333" style="stop-color:#A1D2A6"/>
					<stop  offset="0.6927" style="stop-color:#A1D2A6;stop-opacity:0"/>
					<stop  offset="1" style="stop-color:#A1D2A6;stop-opacity:0"/>
				</linearGradient>
				<path class="st4" d="M369.3,1144.2c0.6,1,1.3,1.3,2.3,1.3c0.3,0,1,0,1.3-0.3c1.3-0.6,1.6-2.3,1-3.5
					c-6.8-11.6-13.9-23.5-21.9-36.1c-0.6-1.3-2.3-1.6-3.5-1c-1.3,0.6-1.6,2.3-1,3.5C355.1,1121,362.2,1132.9,369.3,1144.2z"/>
				
					<linearGradient id="SVGID_7_" gradientUnits="userSpaceOnUse" x1="-130.0396" y1="4130.4961" x2="-130.0396" y2="4089.2368" gradientTransform="matrix(1 0 0 -1 264.9 4879.2002)">
					<stop  offset="0.3333" style="stop-color:#A1D2A6"/>
					<stop  offset="0.6927" style="stop-color:#A1D2A6;stop-opacity:0"/>
					<stop  offset="1" style="stop-color:#A1D2A6;stop-opacity:0"/>
				</linearGradient>
				<path class="st5" d="M143.3,788.6c0.3,1,1.3,1.3,2.3,1.3c0.3,0,1,0,1.3-0.3c1.3-0.6,1.6-2.3,1-3.5
					c-7.1-11.9-14.5-24.2-21.6-36.1c-0.6-1.3-2.3-1.6-3.5-1s-1.6,2.3-1,3.5C129.1,764.5,136.2,776.4,143.3,788.6z"/>
				
					<linearGradient id="SVGID_8_" gradientUnits="userSpaceOnUse" x1="272.5" y1="3309.5" x2="272.5" y2="3262.1001" gradientTransform="matrix(1 0 0 -1 264.9 4879.2002)">
					<stop  offset="0.3333" style="stop-color:#A1D2A6"/>
					<stop  offset="0.6927" style="stop-color:#A1D2A6;stop-opacity:0"/>
					<stop  offset="1" style="stop-color:#A1D2A6;stop-opacity:0"/>
				</linearGradient>
				<path class="st6" d="M539.5,1617.1C539.8,1617.1,539.8,1617.1,539.5,1617.1c1.6,0,2.6-1.3,2.6-2.9c-1-14.5-2.6-28.7-4.2-42.2
					c-0.3-1.3-1.6-2.3-2.9-2.3c-1.3,0.3-2.3,1.6-2.3,2.9c1.9,13.5,3.2,27.4,4.2,41.9C536.9,1616.1,538.2,1617.1,539.5,1617.1z"/>
				
					<linearGradient id="SVGID_9_" gradientUnits="userSpaceOnUse" x1="-214.55" y1="4276.5479" x2="-214.55" y2="4234.9658" gradientTransform="matrix(1 0 0 -1 264.9 4879.2002)">
					<stop  offset="0.3333" style="stop-color:#A1D2A6"/>
					<stop  offset="0.6927" style="stop-color:#A1D2A6;stop-opacity:0"/>
					<stop  offset="1" style="stop-color:#A1D2A6;stop-opacity:0"/>
				</linearGradient>
				<path class="st7" d="M58.5,642.9c0.6,1,1.3,1.3,2.3,1.3c0.3,0,1,0,1.3-0.3c1.3-0.6,1.6-2.3,1-3.5c-7.1-12.2-13.9-24.5-21-36.4
					c-0.6-1.3-2.3-1.6-3.5-1c-1.3,0.6-1.6,2.3-1,3.5C44.4,618.8,51.5,630.7,58.5,642.9z"/>
				
					<linearGradient id="SVGID_10_" gradientUnits="userSpaceOnUse" x1="-298.8" y1="4422.5684" x2="-298.8" y2="4380.9863" gradientTransform="matrix(1 0 0 -1 264.9 4879.2002)">
					<stop  offset="0.3333" style="stop-color:#A1D2A6"/>
					<stop  offset="0.6927" style="stop-color:#A1D2A6;stop-opacity:0"/>
					<stop  offset="1" style="stop-color:#A1D2A6;stop-opacity:0"/>
				</linearGradient>
				<path class="st8" d="M-25.6,496.9c0.3,1,1.3,1.3,2.3,1.3c0.3,0,1,0,1.3-0.3c1.3-0.6,1.6-2.3,1-3.5
					c-7.1-12.2-14.2-24.2-21.3-36.4c-0.6-1.3-2.3-1.6-3.5-1c-1.3,0.6-1.6,2.3-1,3.5C-39.8,472.7-32.7,484.7-25.6,496.9z"/>
				
					<linearGradient id="SVGID_11_" gradientUnits="userSpaceOnUse" x1="-172.45" y1="4203.6963" x2="-172.45" y2="4162.1143" gradientTransform="matrix(1 0 0 -1 264.9 4879.2002)">
					<stop  offset="0.3333" style="stop-color:#A1D2A6"/>
					<stop  offset="0.6927" style="stop-color:#A1D2A6;stop-opacity:0"/>
					<stop  offset="1" style="stop-color:#A1D2A6;stop-opacity:0"/>
				</linearGradient>
				<path class="st9" d="M84,676.8c-0.6-1.3-2.3-1.6-3.5-1c-1.3,0.6-1.6,2.3-1,3.5c7.1,12.2,14.2,24.2,21.3,36.4
					c0.6,1,1.3,1.3,2.3,1.3c0.3,0,1,0,1.3-0.3c1.3-0.6,1.6-2.3,1-3.5C98.2,701.3,91.1,689,84,676.8z"/>
				
					<linearGradient id="SVGID_12_" gradientUnits="userSpaceOnUse" x1="-256.7" y1="4349.6963" x2="-256.7" y2="4308.1147" gradientTransform="matrix(1 0 0 -1 264.9 4879.2002)">
					<stop  offset="0.3333" style="stop-color:#A1D2A6"/>
					<stop  offset="0.6927" style="stop-color:#A1D2A6;stop-opacity:0"/>
					<stop  offset="1" style="stop-color:#A1D2A6;stop-opacity:0"/>
				</linearGradient>
				<path class="st10" d="M-0.1,530.8c-0.6-1.3-2.3-1.6-3.5-1c-1.3,0.6-1.6,2.3-1,3.5c7.1,12.2,13.9,24.5,21,36.4
					c0.3,1,1.3,1.3,2.3,1.3c0.3,0,1,0,1.3-0.3c1.3-0.6,1.6-2.3,1-3.5C14.1,555.3,7,543-0.1,530.8z"/>
				
					<linearGradient id="SVGID_13_" gradientUnits="userSpaceOnUse" x1="-216.9373" y1="2659.124" x2="-216.9373" y2="2645.1829" gradientTransform="matrix(1 0 0 -1 264.9 4879.2002)">
					<stop  offset="0.3333" style="stop-color:#A1D2A6"/>
					<stop  offset="0.6927" style="stop-color:#A1D2A6;stop-opacity:0"/>
					<stop  offset="1" style="stop-color:#A1D2A6;stop-opacity:0"/>
				</linearGradient>
				<path class="st11" d="M68.9,2228.5c-13.5-1.9-27.4-4.8-40.9-8.4c-1.3-0.3-2.9,0.3-3.2,1.9c-0.3,1.3,0.3,2.9,1.9,3.2
					c13.9,3.9,27.7,6.8,41.6,8.7h0.3c1.3,0,2.6-1,2.6-2.3C71.1,2229.8,70.1,2228.5,68.9,2228.5z"/>
				
					<linearGradient id="SVGID_14_" gradientUnits="userSpaceOnUse" x1="-296.6479" y1="2689.2742" x2="-296.6479" y2="2667.7466" gradientTransform="matrix(1 0 0 -1 264.9 4879.2002)">
					<stop  offset="0.3333" style="stop-color:#A1D2A6"/>
					<stop  offset="0.6927" style="stop-color:#A1D2A6;stop-opacity:0"/>
					<stop  offset="1" style="stop-color:#A1D2A6;stop-opacity:0"/>
				</linearGradient>
				<path class="st12" d="M-11.4,2206.3c-12.9-5.2-25.8-10.3-38.7-16.1c-1.3-0.6-2.9,0-3.5,1.3s0,2.9,1.3,3.5
					c12.9,5.8,26.1,11,39,16.1c0.3,0,0.6,0.3,1,0.3c1,0,1.9-0.6,2.6-1.6C-9.5,2208.2-10.1,2206.6-11.4,2206.3z"/>
				
					<linearGradient id="SVGID_15_" gradientUnits="userSpaceOnUse" x1="-133.5282" y1="2649.7" x2="-133.5282" y2="2642.2861" gradientTransform="matrix(1 0 0 -1 264.9 4879.2002)">
					<stop  offset="0.3333" style="stop-color:#A1D2A6"/>
					<stop  offset="0.6927" style="stop-color:#A1D2A6;stop-opacity:0"/>
					<stop  offset="1" style="stop-color:#A1D2A6;stop-opacity:0"/>
				</linearGradient>
				<path class="st13" d="M152,2229.5c-13.9,1.6-27.7,2.3-41.6,2.3c-1.3,0-2.6,1.3-2.6,2.6s1.3,2.6,2.6,2.6c1.6,0,3.2,0,4.8,0
					c12.6,0,25.1-0.6,37.4-2.3c1.3-0.3,2.6-1.6,2.3-2.9C154.9,2230.5,153.6,2229.5,152,2229.5z"/>
				
					<linearGradient id="SVGID_16_" gradientUnits="userSpaceOnUse" x1="-341.8" y1="4495.0962" x2="-341.8" y2="4453.8364" gradientTransform="matrix(1 0 0 -1 264.9 4879.2002)">
					<stop  offset="0.3333" style="stop-color:#A1D2A6"/>
					<stop  offset="0.6927" style="stop-color:#A1D2A6;stop-opacity:0"/>
					<stop  offset="1" style="stop-color:#A1D2A6;stop-opacity:0"/>
				</linearGradient>
				<path class="st14" d="M-85.5,385.4c-0.6-1.3-2.3-1.6-3.5-1c-1.3,0.6-1.6,2.3-1,3.5c7.1,11.9,14.5,24.2,21.6,36.1
					c0.6,1,1.3,1.3,2.3,1.3c0.3,0,1,0,1.3-0.3c1.3-0.6,1.6-2.3,1-3.5C-71,409.6-78.1,397.3-85.5,385.4z"/>
				
					<linearGradient id="SVGID_17_" gradientUnits="userSpaceOnUse" x1="-50.9566" y1="2669.9336" x2="-50.9566" y2="2651.9519" gradientTransform="matrix(1 0 0 -1 264.9 4879.2002)">
					<stop  offset="0.3333" style="stop-color:#A1D2A6"/>
					<stop  offset="0.6927" style="stop-color:#A1D2A6;stop-opacity:0"/>
					<stop  offset="1" style="stop-color:#A1D2A6;stop-opacity:0"/>
				</linearGradient>
				<path class="st15" d="M232.9,2209.5c-12.9,5.2-26.4,9.3-39.6,12.6c-1.3,0.3-2.3,1.9-1.9,3.2c0.3,1.3,1.3,1.9,2.6,1.9
					c0.3,0,0.3,0,0.6,0c13.5-3.5,27.1-7.7,40.3-12.9c1.3-0.6,1.9-1.9,1.6-3.5C235.8,2209.5,234.2,2208.9,232.9,2209.5z"/>
				
					<linearGradient id="SVGID_18_" gradientUnits="userSpaceOnUse" x1="-41.4902" y1="3987.0962" x2="-41.4902" y2="3946.5" gradientTransform="matrix(1 0 0 -1 264.9 4879.2002)">
					<stop  offset="0.3333" style="stop-color:#A1D2A6"/>
					<stop  offset="0.6927" style="stop-color:#A1D2A6;stop-opacity:0"/>
					<stop  offset="1" style="stop-color:#A1D2A6;stop-opacity:0"/>
				</linearGradient>
				<path class="st16" d="M214.2,893.4c-0.6-1.3-2.3-1.6-3.5-1s-1.6,2.6-1,3.5c7.7,11.9,15.2,23.9,22.9,35.5
					c0.6,0.6,1.3,1.3,2.3,1.3c0.3,0,1,0,1.3-0.3c1.3-0.6,1.6-2.6,0.6-3.5C229.4,917.3,221.6,905.3,214.2,893.4z"/>
				
					<linearGradient id="SVGID_19_" gradientUnits="userSpaceOnUse" x1="-86.2951" y1="4058.3232" x2="-86.2951" y2="4017.427" gradientTransform="matrix(1 0 0 -1 264.9 4879.2002)">
					<stop  offset="0.3333" style="stop-color:#A1D2A6"/>
					<stop  offset="0.6927" style="stop-color:#A1D2A6;stop-opacity:0"/>
					<stop  offset="1" style="stop-color:#A1D2A6;stop-opacity:0"/>
				</linearGradient>
				<path class="st17" d="M191.7,857.9c-7.4-11.9-14.8-23.9-21.9-35.8c-0.6-1.3-2.3-1.6-3.5-1c-1.3,0.6-1.6,2.3-1,3.5
					c7.4,11.9,14.5,23.9,21.9,35.8c0.6,1,1.3,1.3,2.3,1.3c0.3,0,1,0,1.3-0.3C192.3,860.8,192.6,858.9,191.7,857.9z"/>
				
					<linearGradient id="SVGID_20_" gradientUnits="userSpaceOnUse" x1="-373.2351" y1="2725.6987" x2="-373.2351" y2="2701.5923" gradientTransform="matrix(1 0 0 -1 264.9 4879.2002)">
					<stop  offset="0.3333" style="stop-color:#A1D2A6"/>
					<stop  offset="0.6927" style="stop-color:#A1D2A6;stop-opacity:0"/>
					<stop  offset="1" style="stop-color:#A1D2A6;stop-opacity:0"/>
				</linearGradient>
				<path class="st18" d="M-88.4,2172.4c-12.2-5.8-25.1-12.2-37.7-18.7c-1.3-0.6-2.9,0-3.5,1.3s0,2.9,1.3,3.5
					c12.6,6.4,25.5,12.9,37.7,18.7c0.3,0.3,0.6,0.3,1.3,0.3c1,0,1.9-0.6,2.3-1.6C-86.5,2174.7-87.2,2173.1-88.4,2172.4z"/>
				
					<linearGradient id="SVGID_21_" gradientUnits="userSpaceOnUse" x1="-385.65" y1="4566.6538" x2="-385.65" y2="4525.7573" gradientTransform="matrix(1 0 0 -1 264.9 4879.2002)">
					<stop  offset="0.3333" style="stop-color:#A1D2A6"/>
					<stop  offset="0.6927" style="stop-color:#A1D2A6;stop-opacity:0"/>
					<stop  offset="1" style="stop-color:#A1D2A6;stop-opacity:0"/>
				</linearGradient>
				<path class="st19" d="M-109.7,353.5c0.3,0,1-0.3,1.3-0.3c1.3-0.6,1.6-2.3,1-3.5c-7.4-11.9-14.8-23.9-22.2-35.8
					c-0.6-1.3-2.3-1.6-3.5-1c-1.3,0.6-1.6,2.3-1,3.5c7.4,11.9,14.8,23.9,22.2,35.8C-111.3,352.8-110.4,353.5-109.7,353.5z"/>
				
					<linearGradient id="SVGID_22_" gradientUnits="userSpaceOnUse" x1="257.6917" y1="3057.5579" x2="257.6917" y2="3011.4009" gradientTransform="matrix(1 0 0 -1 264.9 4879.2002)">
					<stop  offset="0.3333" style="stop-color:#A1D2A6"/>
					<stop  offset="0.6927" style="stop-color:#A1D2A6;stop-opacity:0"/>
					<stop  offset="1" style="stop-color:#A1D2A6;stop-opacity:0"/>
				</linearGradient>
				<path class="st20" d="M527.9,1821.7c-1.3-0.3-2.9,0.6-3.2,1.9c-2.6,13.5-5.8,27.4-9.3,40.9c-0.3,1.6,0.3,2.9,1.9,3.2
					c0.3,0,0.3,0,0.6,0c1.3,0,2.3-0.6,2.6-1.9c3.9-13.9,6.8-27.7,9.3-41.3C530.1,1823.7,529.2,1822.1,527.9,1821.7z"/>
				
					<linearGradient id="SVGID_23_" gradientUnits="userSpaceOnUse" x1="239.4795" y1="3473.4807" x2="239.4795" y2="3427.5032" gradientTransform="matrix(1 0 0 -1 264.9 4879.2002)">
					<stop  offset="0.3333" style="stop-color:#A1D2A6"/>
					<stop  offset="0.6927" style="stop-color:#A1D2A6;stop-opacity:0"/>
					<stop  offset="1" style="stop-color:#A1D2A6;stop-opacity:0"/>
				</linearGradient>
				<path class="st21" d="M501.4,1407.5c-0.3-1.3-1.9-2.3-3.2-1.6c-1.3,0.3-2.3,1.9-1.6,3.2c3.9,12.9,7.7,26.4,10.6,40.6
					c0.3,1.3,1.3,1.9,2.6,1.9c0.3,0,0.3,0,0.6,0c1.3-0.3,2.3-1.6,1.9-3.2C509.2,1434.3,505.6,1420.8,501.4,1407.5z"/>
				
					<linearGradient id="SVGID_24_" gradientUnits="userSpaceOnUse" x1="232.8021" y1="2976.0898" x2="232.8021" y2="2931.4016" gradientTransform="matrix(1 0 0 -1 264.9 4879.2002)">
					<stop  offset="0.3333" style="stop-color:#A1D2A6"/>
					<stop  offset="0.6927" style="stop-color:#A1D2A6;stop-opacity:0"/>
					<stop  offset="1" style="stop-color:#A1D2A6;stop-opacity:0"/>
				</linearGradient>
				<path class="st22" d="M506.3,1903.3c-1.3-0.6-2.9,0.3-3.2,1.6c-4.5,13.2-9.7,26.1-15.5,39c-0.6,1.3,0,2.9,1.3,3.5
					c0.3,0.3,0.6,0.3,1,0.3c1,0,1.9-0.6,2.6-1.6c5.8-12.9,11-26.1,15.5-39.3C508.2,1905.2,507.6,1903.9,506.3,1903.3z"/>
				
					<linearGradient id="SVGID_25_" gradientUnits="userSpaceOnUse" x1="5.1" y1="3916.0889" x2="5.1" y2="3876.2012" gradientTransform="matrix(1 0 0 -1 264.9 4879.2002)">
					<stop  offset="0.3333" style="stop-color:#A1D2A6"/>
					<stop  offset="0.6927" style="stop-color:#A1D2A6;stop-opacity:0"/>
					<stop  offset="1" style="stop-color:#A1D2A6;stop-opacity:0"/>
				</linearGradient>
				<path class="st23" d="M281.6,1003c0.6,0,1,0,1.6-0.3c1.3-1,1.6-2.6,0.6-3.5c-7.7-11.3-15.8-22.9-23.5-34.8
					c-0.6-1.3-2.6-1.6-3.5-0.6c-1.3,1-1.6,2.6-0.6,3.5c8.1,11.9,15.8,23.5,23.9,34.8C280,1002.7,281,1003,281.6,1003z"/>
				
					<linearGradient id="SVGID_26_" gradientUnits="userSpaceOnUse" x1="276.2" y1="3225.1001" x2="276.2" y2="3177.7158" gradientTransform="matrix(1 0 0 -1 264.9 4879.2002)">
					<stop  offset="0.3333" style="stop-color:#A1D2A6"/>
					<stop  offset="0.6927" style="stop-color:#A1D2A6;stop-opacity:0"/>
					<stop  offset="1" style="stop-color:#A1D2A6;stop-opacity:0"/>
				</linearGradient>
				<path class="st24" d="M544,1656.7c0-1.3-1.3-2.6-2.6-2.6s-2.6,1.3-2.6,2.6c0,3.2,0,6.4,0,9.7c0,10.6-0.3,21.6-0.6,32.6
					c0,1.6,1,2.6,2.6,2.6c1.3,0,2.6-1.3,2.6-2.6c0.3-11,0.6-21.9,0.6-32.6C544,1663.2,544,1659.9,544,1656.7z"/>
				
					<linearGradient id="SVGID_27_" gradientUnits="userSpaceOnUse" x1="259.45" y1="3392.4304" x2="259.45" y2="3345.6287" gradientTransform="matrix(1 0 0 -1 264.9 4879.2002)">
					<stop  offset="0.3333" style="stop-color:#A1D2A6"/>
					<stop  offset="0.6927" style="stop-color:#A1D2A6;stop-opacity:0"/>
					<stop  offset="1" style="stop-color:#A1D2A6;stop-opacity:0"/>
				</linearGradient>
				<path class="st25" d="M529.8,1528.7c-1.3-12.9-3.2-26.8-6.1-40c-0.3-1.3-1.6-2.3-3.2-1.9c-1.3,0.3-2.3,1.6-1.9,3.2
					c2.9,12.9,4.5,26.4,6.1,39.6l0.3,1.9c0.3,1.3,1.3,1.9,2.6,1.9c0.3,0,0.3,0,0.6,0c1.3-0.3,2.3-1.6,1.9-3.2L529.8,1528.7z"/>
				
					<linearGradient id="SVGID_28_" gradientUnits="userSpaceOnUse" x1="271.0282" y1="3140.8999" x2="271.0282" y2="3093.7998" gradientTransform="matrix(1 0 0 -1 264.9 4879.2002)">
					<stop  offset="0.3333" style="stop-color:#A1D2A6"/>
					<stop  offset="0.6927" style="stop-color:#A1D2A6;stop-opacity:0"/>
					<stop  offset="1" style="stop-color:#A1D2A6;stop-opacity:0"/>
				</linearGradient>
				<path class="st26" d="M538.5,1738.3c-1.6,0-2.9,1-2.9,2.3c-1.3,13.9-2.6,27.7-4.5,41.9c-0.3,1.3,1,2.9,2.3,2.9h0.3
					c1.3,0,2.3-1,2.6-2.3c1.6-14.2,3.2-28.4,4.5-41.9C540.8,1739.5,539.8,1738.3,538.5,1738.3z"/>
				
					<linearGradient id="SVGID_29_" gradientUnits="userSpaceOnUse" x1="210.3911" y1="3550.5964" x2="210.3911" y2="3507.4026" gradientTransform="matrix(1 0 0 -1 264.9 4879.2002)">
					<stop  offset="0.3333" style="stop-color:#A1D2A6"/>
					<stop  offset="0.6927" style="stop-color:#A1D2A6;stop-opacity:0"/>
					<stop  offset="1" style="stop-color:#A1D2A6;stop-opacity:0"/>
				</linearGradient>
				<path class="st27" d="M486.9,1367.9c-5.5-13.2-11.9-26.1-18.7-38c-0.6-1.3-2.3-1.6-3.5-1c-1.3,0.6-1.6,2.3-1,3.5
					c6.8,11.9,12.9,24.5,18.4,37.7c0.3,1,1.3,1.6,2.6,1.6c0.3,0,0.6,0,1-0.3C486.9,1370.8,487.6,1369.2,486.9,1367.9z"/>
				
					<linearGradient id="SVGID_30_" gradientUnits="userSpaceOnUse" x1="92.2667" y1="2763.238" x2="92.2667" y2="2729.3118" gradientTransform="matrix(1 0 0 -1 264.9 4879.2002)">
					<stop  offset="0.3333" style="stop-color:#A1D2A6"/>
					<stop  offset="0.6927" style="stop-color:#A1D2A6;stop-opacity:0"/>
					<stop  offset="1" style="stop-color:#A1D2A6;stop-opacity:0"/>
				</linearGradient>
				<path class="st28" d="M370.9,2116.7c-10,10-20.3,19.3-30.9,28.4c-1,1-1.3,2.6-0.3,3.9c0.6,0.6,1.3,1,1.9,1s1.3-0.3,1.6-0.6
					c10.6-9,21.3-18.4,31.3-28.7c1-1,1-2.6,0-3.9C373.5,2115.7,371.9,2115.7,370.9,2116.7z"/>
				
					<linearGradient id="SVGID_31_" gradientUnits="userSpaceOnUse" x1="196.4329" y1="2898.865" x2="196.4329" y2="2857.2827" gradientTransform="matrix(1 0 0 -1 264.9 4879.2002)">
					<stop  offset="0.3333" style="stop-color:#A1D2A6"/>
					<stop  offset="0.6927" style="stop-color:#A1D2A6;stop-opacity:0"/>
					<stop  offset="1" style="stop-color:#A1D2A6;stop-opacity:0"/>
				</linearGradient>
				<path class="st29" d="M472.7,1980.7c-1.3-0.6-2.9-0.3-3.5,1c-6.4,12.2-13.5,24.8-20.6,36.4c-0.6,1.3-0.3,2.9,1,3.5
					c0.3,0.3,1,0.3,1.3,0.3c1,0,1.6-0.3,2.3-1.3c7.4-11.9,14.5-24.2,21-36.7C474.7,1982.9,474,1981.3,472.7,1980.7z"/>
				
					<linearGradient id="SVGID_32_" gradientUnits="userSpaceOnUse" x1="24.9994" y1="2709.3523" x2="24.9994" y2="2682.5999" gradientTransform="matrix(1 0 0 -1 264.9 4879.2002)">
					<stop  offset="0.3333" style="stop-color:#A1D2A6"/>
					<stop  offset="0.6927" style="stop-color:#A1D2A6;stop-opacity:0"/>
					<stop  offset="1" style="stop-color:#A1D2A6;stop-opacity:0"/>
				</linearGradient>
				<path class="st30" d="M306.4,2170.2c-11.6,7.7-23.9,15.1-35.8,21.6c-1.3,0.6-1.6,2.3-1,3.5c0.3,1,1.3,1.3,2.3,1.3
					c0.3,0,1,0,1.3-0.3c12.2-6.4,24.5-13.9,36.1-21.9c1.3-1,1.6-2.6,0.6-3.5C309.3,2169.9,307.7,2169.5,306.4,2170.2z"/>
				
					<linearGradient id="SVGID_33_" gradientUnits="userSpaceOnUse" x1="51.1506" y1="3846.1409" x2="51.1506" y2="3805.2456" gradientTransform="matrix(1 0 0 -1 264.9 4879.2002)">
					<stop  offset="0.3333" style="stop-color:#A1D2A6"/>
					<stop  offset="0.6927" style="stop-color:#A1D2A6;stop-opacity:0"/>
					<stop  offset="1" style="stop-color:#A1D2A6;stop-opacity:0"/>
				</linearGradient>
				<path class="st31" d="M306.7,1034.3c-0.6-1.3-2.6-1.6-3.5-0.6c-1.3,0.6-1.6,2.3-0.6,3.5c7.7,11.9,15.1,23.5,22.6,35.5
					c0.6,0.6,1.3,1.3,2.3,1.3c0.3,0,1,0,1.3-0.3c1.3-0.6,1.6-2.6,1-3.5C321.9,1057.8,314.5,1046.2,306.7,1034.3z"/>
				
					<linearGradient id="SVGID_34_" gradientUnits="userSpaceOnUse" x1="137.6604" y1="3702.0964" x2="137.6604" y2="3659.8999" gradientTransform="matrix(1 0 0 -1 264.9 4879.2002)">
					<stop  offset="0.3333" style="stop-color:#A1D2A6"/>
					<stop  offset="0.6927" style="stop-color:#A1D2A6;stop-opacity:0"/>
					<stop  offset="1" style="stop-color:#A1D2A6;stop-opacity:0"/>
				</linearGradient>
				<path class="st32" d="M412.5,1219.3c0.3,0,1,0,1.3-0.3c1.3-0.6,1.6-2.3,1-3.5c-6.1-11.9-12.9-24.5-20-37.1
					c-0.6-1.3-2.3-1.6-3.5-1s-1.6,2.3-1,3.5c7.1,12.6,13.9,25.1,20,37.1C410.9,1218.6,411.5,1219.3,412.5,1219.3z"/>
				
					<linearGradient id="SVGID_35_" gradientUnits="userSpaceOnUse" x1="175.2" y1="3627.6335" x2="175.2" y2="3583.884" gradientTransform="matrix(1 0 0 -1 264.9 4879.2002)">
					<stop  offset="0.3333" style="stop-color:#A1D2A6"/>
					<stop  offset="0.6927" style="stop-color:#A1D2A6;stop-opacity:0"/>
					<stop  offset="1" style="stop-color:#A1D2A6;stop-opacity:0"/>
				</linearGradient>
				<path class="st33" d="M449.9,1295c1.3-0.6,1.9-2.3,1.3-3.5c-5.5-12.6-11.3-25.5-17.4-38.4c-0.6-1.3-2.3-1.9-3.5-1.3
					c-1.3,0.6-1.9,2.3-1.3,3.5c6.1,12.9,11.9,25.8,17.4,38.4c0.3,1,1.3,1.6,2.6,1.6C449.2,1295.4,449.5,1295,449.9,1295z"/>
				
					<linearGradient id="SVGID_36_" gradientUnits="userSpaceOnUse" x1="149.1753" y1="2827.1379" x2="149.1753" y2="2788.6001" gradientTransform="matrix(1 0 0 -1 264.9 4879.2002)">
					<stop  offset="0.3333" style="stop-color:#A1D2A6"/>
					<stop  offset="0.6927" style="stop-color:#A1D2A6;stop-opacity:0"/>
					<stop  offset="1" style="stop-color:#A1D2A6;stop-opacity:0"/>
				</linearGradient>
				<path class="st34" d="M425,2053.2c-8.4,11.3-17.1,22.6-25.8,32.9c-1,1.3-1,2.9,0.3,3.9c0.6,0.3,1,0.6,1.6,0.6s1.6-0.3,1.9-1
					c9-10.6,17.7-21.9,26.1-33.2c1-1.3,0.6-2.9-0.6-3.5C427.6,2051.6,426,2051.9,425,2053.2z"/>
				
					<linearGradient id="SVGID_37_" gradientUnits="userSpaceOnUse" x1="-727.6179" y1="4501.2002" x2="-727.6179" y2="2875.2998" gradientTransform="matrix(1 0 0 -1 264.9 4879.2002)">
					<stop  offset="0.3333" style="stop-color:#A1D2A6"/>
					<stop  offset="0.6927" style="stop-color:#A1D2A6;stop-opacity:0"/>
					<stop  offset="1" style="stop-color:#A1D2A6;stop-opacity:0"/>
				</linearGradient>
				<path class="st35" d="M81.1,2003.9c-11,0-22.2-0.3-32.9-0.6c-12.2-0.3-24.8-0.6-37.1-0.6h-1l-1-0.3
					c-15.8-6.4-32.2-10.3-49.3-14.2c-11.9-2.6-23.9-5.5-35.8-9.3l-1-0.3C-211.7,1909-343.9,1829-471.9,1752
					c-191.1-115.1-388.7-234.3-598.9-323l-1-0.6c-45.8-31.9-92.5-74.5-142.8-129.6l-0.3-0.6l-0.3-0.6
					c-30.6-59.3-60-123.5-66.4-191.5C-1300,923-1232.9,727.7-1103,583.9C-982.9,451.2-825.6,378-660.3,378
					c58.7,0,118.3,9.3,177,27.7l1,0.3c34.5,19,72.2,38,118.3,59.3l0.6,0.3l0.6,0.6c23.5,21.9,49,41.3,72.8,58.7l0.6,0.6
					c129.6,128,211.1,237.9,312,379.4L34,921.1c138.9,194.4,269.8,378.1,324.6,620.5v1.3c0.6,67.4,1,128-0.3,190.2v1
					c-12.9,60.9-40,119.9-76.1,166c-41.6,52.9-94.1,87.7-151.5,100.6h-0.3C116.9,2002.9,101.1,2003.9,81.1,2003.9z M16,1991.9
					c11,0,21.9,0.3,32.6,0.6c10.6,0.3,21.9,0.6,32.6,0.6c19,0,34.5-1,48.4-2.9c119.6-26.8,196.3-148.6,219.5-257.9
					c1.3-61.9,0.6-122.2,0.3-188.9c-54.5-240.1-184.7-422.9-323-616.3l-11.4-16C-85.5,770.3-166.8,660.7-295.7,533.3
					c-23.9-17.4-49.3-36.7-72.8-58.7c-46.1-21.3-83.5-40-118-59.3c-57.7-18.1-116-27.1-173.4-27.1c-162.5,0-316.9,71.9-434.5,202.1
					c-128.6,142.2-194.4,334.3-176.3,514.8c6.1,66.1,34.8,128.9,64.8,187c49.3,54.2,95.1,95.7,139.9,127.3
					c210.8,89,408.4,208.2,599.9,323.6c127.6,77,259.5,156.7,393.6,226c11.3,3.5,23.2,6.1,34.5,9c16.8,3.9,33.8,7.7,50,14.2
					C13.4,1991.9,14.7,1991.9,16,1991.9z"/>
				
					<linearGradient id="SVGID_38_" gradientUnits="userSpaceOnUse" x1="2110.8003" y1="4347.8682" x2="2110.8003" y2="921.3" gradientTransform="matrix(1 0 0 -1 264.9 4879.2002)">
					<stop  offset="0.3333" style="stop-color:#A1D2A6"/>
					<stop  offset="0.6927" style="stop-color:#A1D2A6;stop-opacity:0"/>
					<stop  offset="1" style="stop-color:#A1D2A6;stop-opacity:0"/>
				</linearGradient>
				<path class="st36" d="M430.5,3957.9c13.2-33.8,27.7-65.8,43.5-96.1c80.9-211.1,226.6-399.4,410-530.2
					c56.4-36.1,116.7-69.6,175-101.9c143.4-79.3,291.7-161.5,401-295.6l0.3-0.3c10.6-20,23.5-39.3,36.1-57.7
					c13.5-19.7,27.1-39.6,38-61.2v-0.3c2.3-6.4,4.2-12.6,6.1-18.7c8.7-26.1,17.4-52.9,30.6-77.4l0.3-0.6
					c5.5-25.5,12.2-50.9,18.7-75.4c6.4-23.9,12.9-48.7,18.4-73.2c28.4-157,30.9-324,33.5-485.1c2.9-185.3,6.1-377.1,48-554.4
					c79.9-384.2,368.1-830.3,831.6-960.3c18.7-3.5,37.4-8.1,55.4-12.2c27.7-6.4,56.7-13.2,85.1-17.4c12.9,0,26.8-1,40-1.3
					c39-1.9,79.3-3.9,114.8,4.8c4.2,1.9,9.3,1.9,13.9,1.9c6.1-0.3,11.3-0.3,14.5,4.5l0.6,1l1,0.3c71.2,17.7,126,69.9,166,113.5
					c63.2,86.1,118.6,178.3,171.8,267.9c54.8,91.5,111.5,186.3,176.6,274c13.5,26.4,32.6,52.5,59.6,81.9
					c24.5,39.3,54.5,77,89.3,111.5c57.1,79.6,132.2,146.3,204.7,210.5c14.5,12.9,29.3,25.8,43.8,39c92.8,68,182.8,123.8,275,171.2
					l1,0.3c18.4,2.3,34.5,11.9,50,21.6l0.6,0.3l0.6,0.3c6.1,2.3,12.6,4.2,18.7,6.1c26.1,8.7,52.9,17.4,77.4,30.6l0.6,0.3
					c28.4,7.1,57.1,15.1,84.5,22.9c20,5.5,40.6,11.3,60.9,16.8v-5.5c-20-5.2-40-10.6-59.6-16.4c-27.7-7.7-56.1-15.8-84.5-22.9
					c-24.8-13.5-51.6-22.2-77.7-30.9c-6.1-1.9-12.2-4.2-18.4-6.1l-0.3-0.3c-15.8-9.7-32.2-20-51.9-22.2
					c-91.9-47.1-181.2-102.8-273.7-170.5c-14.5-12.9-29.3-26.1-43.8-39c-72.5-64.1-147.3-130.5-204-209.8l-0.3-0.3
					c-34.5-34.2-64.5-71.6-88.6-110.9l-0.3-0.3c-26.8-29-45.4-54.8-59-81.2l-0.3-0.3c-65.1-87.7-121.5-182.4-176.3-274
					c-53.5-89.6-109-182.1-172.5-268.5c-40.3-43.8-95.7-96.4-167.9-115.1c-4.8-6.4-11.9-6.1-18.4-6.1c-4.2,0-8.4,0.3-11.6-1.3
					l-0.6-0.3c-36.1-8.7-77-6.8-116.7-5.2c-13.9,0.6-27.1,1.3-40.3,1.6c-29,4.2-58,11-85.7,17.4c-18.1,4.2-36.7,8.7-55.4,12.2
					c-204.7,57.4-393.6,184.7-546.7,368.4c-141.8,170.5-244.7,382.3-289.1,595.7c-42.2,177.6-45.1,369.7-48,555.4
					c-2.6,161.2-5.2,327.8-33.5,484.2c-5.2,24.5-11.9,49-18.4,72.8c-6.4,24.5-13.2,49.6-18.7,75.1c-13.5,24.8-22.2,51.9-30.9,78
					c-1.9,6.1-4.2,12.2-6.1,18.7c-10.6,21-24.5,41.3-37.7,60.6c-12.6,18.4-25.8,37.7-36.4,58c-108.6,133.1-256.6,215-399.4,294
					C997,3257,936.7,3290.6,879.9,3327c-184.1,131.5-330.4,320.4-412,532.2c-16.1,30.9-30.9,63.5-44.5,98.3h7.1L430.5,3957.9
					L430.5,3957.9z"/>
				
					<linearGradient id="SVGID_39_" gradientUnits="userSpaceOnUse" x1="-708.1846" y1="4196" x2="-708.1846" y2="3197.3999" gradientTransform="matrix(1 0 0 -1 264.9 4879.2002)">
					<stop  offset="0.3333" style="stop-color:#A1D2A6"/>
					<stop  offset="0.6927" style="stop-color:#A1D2A6;stop-opacity:0"/>
					<stop  offset="1" style="stop-color:#A1D2A6;stop-opacity:0"/>
				</linearGradient>
				<path class="st37" d="M-48.2,1681.8c-6.8,0-13.9-0.3-20.6-0.6c-7.7-0.3-16.1-0.6-23.9-0.6H-93h-0.3
					c-219.2-72.5-416.5-206-607-335.2c-34.5-23.5-70.3-47.7-105.4-70.9l-0.3-0.3c-7.4-7.4-14.5-14.5-21.9-21.9
					c-33.2-32.6-67.4-66.4-94.8-103.8l-0.3-0.3c-15.8-32.9-33.8-70.9-43.5-108.3c-12.9-77.4,4.2-152.8,53.2-237.2l0.3-0.3
					c40.3-46.1,88-80.9,141.5-103.1c33.8-10.6,69.9-16.1,107.3-16.1c45.1,0,90.9,7.7,136.3,22.9c86.4,35.1,189.2,113.8,282.4,216
					C-132.3,1045.9,16.3,1239,83,1453.6v0.3v0.3c-1,15.2-0.3,31.3,0.3,46.7c1,28.4,2.3,57.7-5.2,83.8c-12.6,41.9-48,77-95.1,94.1
					C-25.9,1680.9-35.9,1681.8-48.2,1681.8z M-88.8,1675.4c6.8,0,13.5,0.3,20.3,0.6c6.8,0.3,13.5,0.6,20.3,0.6
					c11.9,0,21.3-1,29.7-2.9c44.8-16.4,79.3-50.3,91.5-90.6c7.1-25.5,5.8-54.2,4.8-82.2c-0.6-15.5-1.3-31.6-0.3-47.1
					c-66.4-213.4-214.4-405.5-327.2-529.3C-342.2,823-444.4,745-529.8,710.1c-44.8-14.8-89.9-22.6-134.7-22.6
					c-36.7,0-72.2,5.2-105.4,15.8c-52.5,21.9-99.3,56.1-139.3,101.5c-48.4,83.5-64.8,157.6-52.5,233.4c9.7,36.7,27.4,74.5,43.2,107
					c27.4,36.7,61.2,70.6,94.1,103.1c7.4,7.1,14.5,14.5,21.9,21.6c35.1,23.2,70.9,47.4,105.4,70.9
					c190.2,128.9,386.8,262.1,605.4,334.6C-91,1675.4-90.1,1675.4-88.8,1675.4z"/>
				
					<linearGradient id="SVGID_40_" gradientUnits="userSpaceOnUse" x1="2204.1506" y1="4053.1594" x2="2204.1506" y2="920.4998" gradientTransform="matrix(1 0 0 -1 264.9 4879.2002)">
					<stop  offset="0.3333" style="stop-color:#A1D2A6"/>
					<stop  offset="0.6927" style="stop-color:#A1D2A6;stop-opacity:0"/>
					<stop  offset="1" style="stop-color:#A1D2A6;stop-opacity:0"/>
				</linearGradient>
				<path class="st38" d="M624.2,3957.9c1.9-4.2,4.5-8.4,7.4-12.2l0.6-1.3c38.7-94.1,84.1-192.4,154.7-273.3l0.3-0.6
					c104.4-154.1,263.7-244,417.4-330.7c168.3-94.8,342.3-192.8,443.2-375.2l0.3-1c3.9-11.6,8.1-23.5,12.2-35.1
					c16.4-46.7,33.2-95.4,47.4-143.4v-0.3c40.6-186,44.2-384.9,47.7-577.3c3.5-194,7.4-394.9,49-581.2
					c53.2-309.4,279.8-685.6,651.4-779.7c86.1-12.6,160.2-13.9,219.8-3.9c6.1,2.6,12.6,2.3,18.4,1.9c8.1-0.3,12.9-0.6,16.1,3.5
					l0.6,1l1,0.6c4.8,2.6,10.3,2.3,15.2,2.3c7.1,0,10,0,12.2,3.2l1,1.6l1.6,0.6c177,56.4,304.9,202.4,428.7,343.9
					c30.3,34.5,61.2,69.9,92.5,103.1c236.3,301.4,484.8,515.7,739.4,636.9l0.3,0.3c26.1,9.7,52.2,20.3,77.7,30.3
					c44.8,17.7,91.2,36.1,137.6,51.6l1,0.3c20,2.6,39.3,8.7,57.7,14.8c7.4,2.6,15.1,5.2,22.9,7.4h0.6c9.3,1.3,18.4,2.6,27.1,4.2
					v-10.6c-8.1-1.3-16.4-2.6-25.1-3.9c-7.4-2.3-14.8-4.5-22.2-7.1c-19-6.1-38.4-12.6-59.3-15.2c-46.1-15.2-92.2-33.5-136.7-51.3
					c-25.5-10-51.6-20.3-77.7-30.3c-253-120.6-500.6-333.6-735.6-634l-0.3-0.3c-30.9-33.2-62.2-68.7-92.2-103.1
					c-124.4-142.2-253-288.8-431.9-346.5c-5.5-6.8-13.5-6.8-20.3-6.4c-3.5,0-7.1,0-9.3-0.6c-6.8-7.7-16.4-7.1-24.2-6.4
					c-5.2,0.3-10,0.6-13.9-1.3l-0.6-0.3h-0.6c-61.2-10.3-136.7-9-224.3,3.9h-0.6c-166.7,42.2-318.8,145.7-440.6,299.1
					c-111.2,140.5-189.2,314.3-219.2,489c-41.6,187.3-45.4,388.4-49,583.1c-3.5,192.1-7.1,390.4-47.4,575.4
					c-14.2,47.7-30.9,96.1-47.1,142.8c-4.2,11.6-8.1,23.2-12.2,34.8c-99.6,179.2-272.1,276.6-439,370.7
					c-155,87.4-315.2,177.6-421,333.6c-71.6,81.9-117.3,180.5-156,275.3c-4.2,5.8-7.1,11.9-10,18.1h13.2L624.2,3957.9L624.2,3957.9z
					"/>
				
					<linearGradient id="SVGID_41_" gradientUnits="userSpaceOnUse" x1="845.9252" y1="2781.0002" x2="845.9252" y2="2277.0999" gradientTransform="matrix(1 0 0 -1 264.9 4879.2002)">
					<stop  offset="0.3333" style="stop-color:#A1D2A6"/>
					<stop  offset="0.6927" style="stop-color:#A1D2A6;stop-opacity:0"/>
					<stop  offset="1" style="stop-color:#A1D2A6;stop-opacity:0"/>
				</linearGradient>
				<path class="st39" d="M1049.1,2602.1h-0.3c-27.7-3.2-54.5-23.5-71.9-54.5l-0.3-1c-21.9-126.7,22.2-267.2,130.9-418.1l0.3-0.6
					l0.6-0.3c6.1-3.2,11.9-7.4,17.7-11.3c10-7.1,20.3-14.5,33.2-17.1c1.9-0.6,3.9-1,5.8-1c6.4,0,11.3,2.9,16.1,5.5
					c3.9,2.3,7.4,4.2,11.6,4.8l1,0.3l0.6,1c60.6,82.8,73.5,213.1,31.9,324.3c-33.8,90.3-96.4,149.9-176.3,167.6L1049.1,2602.1z
					 M981.7,2545.4c16.4,29,41.3,48.4,67,51.3c78-17.4,138.9-75.8,172.1-164.1c40.9-109.3,28.7-237.2-30.6-318.5
					c-4.5-1-8.4-3.2-12.2-5.2c-4.5-2.6-8.7-4.8-13.5-4.8c-1.6,0-2.9,0.3-4.5,0.6c-11.9,2.3-21.3,9-31.3,16.1
					c-5.5,3.9-11.3,8.1-17.7,11.6C1004,2281.4,960.1,2420.3,981.7,2545.4z"/>
			</g>
		</g>
	</g>
</g>
</svg>
