<?xml version="1.0" encoding="utf-8"?>
<!-- Generator: Adobe Illustrator 25.0.0, SVG Export Plug-In . SVG Version: 6.00 Build 0)  -->
<svg version="1.1" id="Layer_1" xmlns="http://www.w3.org/2000/svg" xmlns:xlink="http://www.w3.org/1999/xlink" x="0px" y="0px"
	 viewBox="0 0 1125 2436" style="enable-background:new 0 0 1125 2436;" xml:space="preserve">
<style type="text/css">
	.st0{fill:#58595B;}
</style>
<g>
	<g>
		<g>
			<path class="st0" d="M768.5,1424.8c-40.8-188.1-141.6-354.4-239.1-515.3c-92-151.8-187.1-308.8-231.2-483.4l-0.2-0.5
				c-2-4.1-1.7-9.2-1.4-14.5c0.4-7.4,0.9-15.8-5.9-21.6c-2.1-5.1-1.7-11-1.2-17.4c0.6-8.9,1.3-18.1-5.5-25
				c-3.5-43.2-5.2-84.8,10.3-119c2.1-4.3,2-9,1.9-13.5c-0.1-5.9-0.3-10.9,4.4-14l0.8-0.5l0.3-0.8c16.9-53.3,53-105,101.8-145.5
				c23.9-19.8,49.5-38.1,76.1-55.2c-1.2,0-2.4,0-3.6-0.1c-1.2-0.1-2.7-0.7-4.1-0.9c-25,16.3-49.1,33.6-71.7,52.3
				c-49.3,40.9-85.9,93.1-103.2,147.1c-6.2,4.6-6,11.6-5.9,17.8c0.1,4.1,0.2,8-1.4,11.2c-16.2,35.6-14.3,78.3-10.7,122.5l0.1,1
				l0.7,0.7c5.8,5.4,5.2,13.3,4.6,21.7c-0.5,6.9-1,14,1.9,20.4l0.2,0.5l0.5,0.4c5.3,4.1,4.9,10.5,4.5,17.8
				c-0.3,5.7-0.7,11.5,1.8,16.8C337.7,602.7,432.9,760,525,912.1c97.2,160.5,197.8,326.6,238.5,513.9
				c26.5,99.1,27.6,221.1,3.4,362.5c-8.7,24.8-15.5,52.1-21.4,85.5c-25.2,79.6-83.8,230.3-193.3,345.2
				c-105.1,110.4-225,154.2-356.5,130.2c-16.1-7.3-34.3-10.3-51.9-13.4l-5.2-0.9c-47.8-17-94.3-39-139.6-63.9
				c-0.1,1.8-0.5,3.6-0.8,5.3c45.1,24.7,91.3,46.5,138.9,63.4l5.9,1c18.1,3.1,35.3,6.1,50.9,13.2l0.6,0.2
				c133.4,24.4,255-20,361.4-131.7C666.1,2107,725,1955.5,750.5,1875.2c5.9-33.5,12.6-60.6,21.3-85.2l0.1-0.4
				C796.3,1647.3,795.1,1524.6,768.5,1424.8z"/>
		</g>
		<g>
			<path class="st0" d="M572.3,296.2c27.3-78.7,84.8-148.4,175.6-212.9C792.1,51.9,839.4,22.8,887.1-5c5.7,1.1,11.6,1.4,17.5,1.5
				c-51.7,29.9-103.1,61.1-150.8,95c-89.3,63.4-145.5,131.6-172.1,208.4l-0.4,0.9C547.7,370.6,571,531.4,571,531.4l0.3,0.9
				c39.1,148.9,118.9,285.2,196.1,417c95.3,162.8,193.8,331.1,217.4,525.3c13.1,102.1,6.9,218.6-18.1,336.9l-0.4,2l-1.7,1.2
				c-3.1,2.1-3.4,5.1-3.3,11.9c0.1,4.7,0.2,9.9-2.2,14.8c-9.1,15.8-12.1,34-13.7,48.2l-0.2,1c-39.3,117-82.5,227.5-128.5,328.6
				c-31.8,70-68.9,148.5-114.7,219.7c0,0-0.1,0-0.1,0c-4.1-0.5-8.1-0.5-12.2-0.4c45.2-69,82.6-146.4,117.7-223.6
				c45.7-100.6,88.8-210.7,127.9-327.1c1.8-15.1,5.1-34.4,14.8-51.3c1.2-2.3,1.1-5.9,1-9.7c-0.1-6.2-0.3-13.9,6-19.2
				c24.4-116.6,30.5-231.3,17.5-331.7c-23.3-192.1-121.3-359.6-216.1-521.5c-77.4-132.3-157.5-269-197-419.1
				C561.7,535.4,538,361,572.3,296.2z"/>
		</g>
		<g>
			<path class="st0" d="M1085.1,137.3c-12.4,6.4-24.4,12.9-35.7,19.3c-1.2,0.7-1.7,2.2-1,3.4c0.5,0.8,1.3,1.3,2.2,1.3
				c0.4,0,0.8-0.1,1.3-0.3c11.2-6.4,23.2-12.8,35.5-19.2c1.2-0.6,1.7-2.1,1.1-3.4C1087.8,137.2,1086.3,136.7,1085.1,137.3z"/>
			<path class="st0" d="M1229.2,1172.3c-0.1,0-0.2,0-0.3,0h-0.2c-1-0.1-2.1,0.4-2.5,1.4c-0.7,1.3-0.1,2.8,1.2,3.4l0.5,0.3h1.1
				c0.1,0,0.2,0,0.3,0V1172.3z"/>
			<path class="st0" d="M1126.7,1092.6c0.2-0.5,0.4-1,0.7-1.4c-5.9-6-11.8-12.1-17.5-18l-3.4-3.5c-1-1-2.6-1-3.6-0.1
				c-1,1-1,2.6-0.1,3.6l3.4,3.5c6.5,6.7,13.2,13.7,19.9,20.5C1126,1095.7,1126.2,1094.1,1126.7,1092.6z"/>
			<path class="st0" d="M1122.4,124.2c0.4,0,0.8-0.1,1.1-0.2c1.2-0.6,2.4-1.1,3.5-1.7c-0.3-1.9-0.3-3.8,0-5.6
				c-1.9,0.9-3.8,1.8-5.7,2.7c-1.3,0.6-1.8,2.1-1.2,3.4C1120.6,123.7,1121.5,124.2,1122.4,124.2z"/>
			<path class="st0" d="M1057.6,1005.7c-0.8-1.1-2.4-1.3-3.6-0.5c-1.1,0.8-1.3,2.4-0.5,3.6c8.2,10.8,16.3,21.5,24.5,32.2
				c0.5,0.7,1.3,1,2.1,1c0.5,0,1.1-0.1,1.5-0.5c1.1-0.8,1.3-2.4,0.5-3.5C1073.9,1027.2,1065.8,1016.5,1057.6,1005.7z"/>
			<path class="st0" d="M982.4,204.6c0.5,0,1-0.1,1.4-0.5c10.6-7.6,21.9-15.1,33.4-22.4c1.2-0.8,1.5-2.3,0.8-3.5
				c-0.7-1.2-2.3-1.5-3.5-0.8c-11.5,7.3-22.9,15-33.6,22.6c-1.2,0.8-1.4,2.4-0.5,3.5C980.9,204.3,981.7,204.6,982.4,204.6z"/>
			<path class="st0" d="M831.1,389.6c0.3,0.1,0.6,0.2,0.9,0.2c1,0,2-0.6,2.4-1.6c4.7-12.3,10.1-24.7,16.2-36.8
				c0.7-1.2,0.1-2.8-1.1-3.4c-1.3-0.6-2.8-0.1-3.4,1.1c-6.2,12.3-11.7,24.8-16.4,37.3C829.2,387.7,829.8,389.1,831.1,389.6z"/>
			<path class="st0" d="M811.2,467.9h0.4c1.2,0,2.3-0.9,2.5-2.1c1.9-13.1,4.6-26.4,8-39.4c0.4-1.4-0.5-2.7-1.8-3.1
				c-1.4-0.4-2.7,0.5-3.1,1.8c-3.4,13.2-6.2,26.6-8.2,39.9C808.9,466.4,809.8,467.7,811.2,467.9z"/>
			<path class="st0" d="M948.7,224.7c-10.6,8.6-20.9,17.6-30.6,26.6c-1,1-1.1,2.6-0.1,3.6c0.5,0.5,1.1,0.8,1.8,0.8
				c0.6,0,1.3-0.2,1.8-0.7c9.6-9,19.8-17.9,30.3-26.4c1.1-0.9,1.3-2.5,0.4-3.6C951.4,223.9,949.8,223.8,948.7,224.7z"/>
			<path class="st0" d="M963.3,874.2c-0.8-1.1-2.4-1.5-3.5-0.7c-1.1,0.8-1.5,2.4-0.7,3.5c7.2,10.9,14.8,22.1,22.8,33.5
				c0.5,0.7,1.3,1.1,2.1,1.1c0.5,0,1-0.1,1.4-0.5c1.1-0.8,1.4-2.4,0.6-3.5C978.1,896.3,970.5,885,963.3,874.2z"/>
			<path class="st0" d="M920.4,805.7c-0.7-1.2-2.2-1.6-3.4-0.9c-1.2,0.7-1.6,2.3-0.9,3.4c6.7,11.3,13.7,23,21,34.7
				c0.5,0.8,1.3,1.2,2.1,1.2c0.5,0,1-0.1,1.4-0.4c1.1-0.7,1.5-2.3,0.8-3.5C934.1,828.6,927,817,920.4,805.7z"/>
			<path class="st0" d="M1009.5,940.6c-0.8-1.1-2.4-1.4-3.6-0.6c-1.1,0.8-1.4,2.4-0.5,3.5c7.6,10.5,15.4,21.2,23.9,32.7
				c0.5,0.7,1.2,1,2,1c0.5,0,1-0.2,1.5-0.5c1.2-0.8,1.3-2.4,0.5-3.5C1024.8,961.8,1017,951.1,1009.5,940.6z"/>
			<path class="st0" d="M810.6,504.6c-0.2-1.4-1.4-2.4-2.8-2.2c-1.4,0.2-2.4,1.4-2.2,2.8c1.6,13.3,3.8,26.8,6.3,40.1
				c0.2,1.2,1.3,2.1,2.5,2.1c0.2,0,0.4,0,0.5-0.1c1.4-0.3,2.3-1.6,2-3C814.3,531.2,812.2,517.8,810.6,504.6z"/>
			<path class="st0" d="M825.6,583.8c-0.4-1.3-1.7-2.2-3.1-1.8c-1.3,0.4-2.2,1.7-1.8,3.1c3.3,12.9,7.1,26,11.2,39
				c0.4,1.1,1.3,1.8,2.4,1.8c0.2,0,0.5-0.1,0.8-0.1c1.3-0.4,2.1-1.8,1.6-3.2C832.6,609.6,828.8,596.6,825.6,583.8z"/>
			<path class="st0" d="M849.9,660.7c-0.5-1.3-1.9-2-3.3-1.4c-1.3,0.5-1.9,1.9-1.5,3.2c4.7,12.4,9.9,25.1,15.3,37.6
				c0.4,0.9,1.4,1.5,2.4,1.5c0.3,0,0.7-0.1,1-0.2c1.3-0.6,1.9-2.1,1.3-3.3C859.7,685.5,854.6,673,849.9,660.7z"/>
			<path class="st0" d="M882.1,734.7c-0.6-1.2-2.1-1.8-3.3-1.1c-1.3,0.6-1.8,2.1-1.2,3.4c5.8,11.9,12.1,24,18.6,36.1
				c0.4,0.8,1.3,1.3,2.2,1.3c0.4,0,0.8-0.1,1.2-0.3c1.3-0.7,1.7-2.2,1-3.4C894.1,758.5,887.9,746.4,882.1,734.7z"/>
			<path class="st0" d="M893.1,283.5c0.9-1,0.8-2.6-0.1-3.6c-1-1-2.7-0.9-3.6,0.1c-1.3,1.4-2.6,2.8-4.1,4.5
				c-6.9,9.5-13.4,19.3-19.4,29c-0.8,1.2-0.4,2.8,0.8,3.5c0.4,0.3,0.9,0.4,1.3,0.4c0.8,0,1.7-0.4,2.2-1.2c5.9-9.6,12.4-19.3,19-28.5
				C890.5,286.3,891.8,284.9,893.1,283.5z"/>
		</g>
		<g>
			<path class="st0" d="M464.5,1098.5c0.5,0.8,1.3,1.2,2.2,1.2c0.5,0,0.9-0.1,1.3-0.4c1.2-0.7,1.6-2.3,0.9-3.4
				c-6.6-11.2-13.5-22.5-21-34.7c-0.7-1.2-2.3-1.6-3.5-0.8c-1.2,0.7-1.5,2.3-0.8,3.5C451.1,1076.1,457.9,1087.4,464.5,1098.5z"/>
			<path class="st0" d="M247.7,756.7c0.5,0.8,1.3,1.2,2.2,1.2c0.4,0,0.9-0.1,1.3-0.4c1.2-0.7,1.6-2.3,0.9-3.5
				c-6.9-11.5-13.8-23.2-20.7-34.8c-0.7-1.2-2.3-1.6-3.5-0.9c-1.2,0.7-1.6,2.3-0.9,3.5C233.8,733.6,240.7,745.1,247.7,756.7z"/>
			<path class="st0" d="M628.2,1552.7c0.1,0,0.1,0,0.2,0c1.4-0.1,2.4-1.3,2.3-2.7c-1-13.8-2.4-27.5-4.2-40.5
				c-0.2-1.3-1.5-2.3-2.9-2.1c-1.3,0.2-2.3,1.5-2.1,2.8c1.8,12.9,3.2,26.4,4.2,40.1C625.7,1551.7,626.9,1552.7,628.2,1552.7z"/>
			<path class="st0" d="M165.9,616.9c0.5,0.8,1.3,1.3,2.2,1.3c0.4,0,0.8-0.1,1.2-0.3c1.2-0.7,1.6-2.2,0.9-3.4
				c-6.7-11.7-13.5-23.4-20.2-35.1c-0.7-1.2-2.2-1.6-3.4-0.9c-1.2,0.7-1.6,2.2-0.9,3.4C152.5,593.5,159.2,605.2,165.9,616.9z"/>
			<path class="st0" d="M85.1,476.6c0.5,0.8,1.3,1.3,2.2,1.3c0.4,0,0.9-0.1,1.3-0.4c1.2-0.7,1.6-2.2,0.9-3.4
				c-6.8-11.7-13.6-23.3-20.4-35c-0.7-1.2-2.2-1.6-3.4-0.9c-1.2,0.7-1.6,2.3-0.9,3.5C71.6,453.3,78.4,464.9,85.1,476.6z"/>
			<path class="st0" d="M190.5,649.4c-0.7-1.2-2.2-1.6-3.5-0.9c-1.2,0.7-1.6,2.2-0.9,3.4c6.7,11.7,13.5,23.3,20.3,35
				c0.5,0.8,1.3,1.2,2.2,1.2c0.4,0,0.9-0.1,1.3-0.3c1.2-0.7,1.6-2.3,0.9-3.5C204,672.8,197.3,661.1,190.5,649.4z"/>
			<path class="st0" d="M109.8,509.1c-0.7-1.2-2.3-1.6-3.5-0.9c-1.2,0.7-1.6,2.2-0.9,3.4c6.7,11.7,13.5,23.4,20.2,35.1
				c0.5,0.8,1.3,1.3,2.2,1.3c0.4,0,0.9-0.1,1.3-0.4c1.2-0.7,1.6-2.2,0.9-3.4C123.2,532.5,116.5,520.8,109.8,509.1z"/>
			<path class="st0" d="M176,2139.9c-13-1.9-26.2-4.7-39.3-8.2c-1.3-0.4-2.7,0.4-3.1,1.8c-0.4,1.3,0.4,2.7,1.8,3.1
				c13.2,3.6,26.6,6.3,39.9,8.3c0.1,0,0.2,0,0.4,0c1.2,0,2.3-0.9,2.5-2.2C178.3,2141.4,177.3,2140.1,176,2139.9z"/>
			<path class="st0" d="M98.8,2118.5c-12.3-4.8-24.8-10-37.3-15.5c-1.3-0.5-2.7,0-3.3,1.3c-0.5,1.3,0,2.8,1.3,3.4
				c12.5,5.4,25.1,10.6,37.4,15.5c0.3,0.1,0.6,0.2,0.9,0.2c1,0,2-0.6,2.4-1.6C100.7,2120.5,100.1,2119,98.8,2118.5z"/>
			<path class="st0" d="M255.9,2141.1c-13.2,1.6-26.6,2.2-40,2.1h-0.1c-1.4,0-2.5,1.1-2.5,2.5c0,1.4,1.1,2.5,2.5,2.6
				c1.6,0,3.1,0,4.7,0c12,0,24.1-0.7,36-2.1c1.4-0.2,2.4-1.4,2.2-2.8C258.6,2141.9,257.3,2141,255.9,2141.1z"/>
			<path class="st0" d="M27.7,369.4c-0.7-1.2-2.3-1.6-3.5-0.9c-1.2,0.7-1.6,2.3-0.8,3.5c7,11.6,13.9,23.1,20.8,34.7
				c0.5,0.8,1.3,1.2,2.2,1.2c0.5,0,0.9-0.1,1.3-0.3c1.2-0.7,1.6-2.3,0.9-3.5C41.6,392.6,34.7,381,27.7,369.4z"/>
			<path class="st0" d="M333.5,2121.6c-12.5,4.9-25.4,9-38.2,12.2c-1.4,0.4-2.2,1.8-1.8,3.1c0.3,1.2,1.3,1.9,2.5,1.9
				c0.2,0,0.4-0.1,0.6-0.1c13-3.3,26-7.4,38.8-12.4c1.3-0.5,1.9-2,1.4-3.3C336.3,2121.7,334.8,2121.1,333.5,2121.6z"/>
			<path class="st0" d="M315.6,857.5c-0.8-1.2-2.3-1.5-3.5-0.8c-1.2,0.8-1.5,2.3-0.8,3.5c7.3,11.5,14.7,23,21.9,34.1
				c0.5,0.7,1.3,1.2,2.1,1.2c0.5,0,0.9-0.1,1.4-0.4c1.2-0.8,1.5-2.3,0.8-3.5C330.2,880.5,322.9,869,315.6,857.5z"/>
			<path class="st0" d="M294.1,823.3c-7.1-11.5-14.2-23-21.2-34.5c-0.7-1.2-2.3-1.6-3.4-0.8c-1.2,0.7-1.6,2.3-0.8,3.5
				c7,11.5,14.1,23,21.2,34.5c0.5,0.8,1.3,1.2,2.1,1.2c0.5,0,0.9-0.1,1.3-0.4C294.4,826,294.8,824.4,294.1,823.3z"/>
			<path class="st0" d="M24.8,2086.2c-8.3-3.9-16.7-8.1-25.3-12.4c0.3,1.3,0.2,2.7-0.5,3.8c0.5-0.9,0.3-0.5,0.2,0
				c-0.1,0.5-0.3,1-0.6,1.4c8.1,4.1,16.1,8,24,11.8c0.4,0.2,0.7,0.2,1.1,0.2c1,0,1.9-0.5,2.3-1.5
				C26.6,2088.3,26.1,2086.8,24.8,2086.2z"/>
			<path class="st0" d="M6.7,334.9c-2.5-4-4.9-8-7.4-12c0.2,1.1,0.2,2.3,0.2,3.3c-0.1,1.6-0.4,3.3-1.1,4.7c1.4,2.2,2.7,4.4,4.1,6.6
				c0.5,0.8,1.3,1.2,2.2,1.2c0.4,0,0.9-0.2,1.3-0.4C7,337.6,7.4,336,6.7,334.9z"/>
			<path class="st0" d="M616.9,1749.4c-1.4-0.3-2.7,0.7-3,2c-2.5,13-5.5,26.2-9,39.3c-0.4,1.4,0.4,2.8,1.8,3.1
				c0.2,0.1,0.5,0.1,0.7,0.1c1.1,0,2.1-0.7,2.5-1.9c3.6-13.2,6.7-26.5,9.1-39.6C619.2,1750.9,618.3,1749.6,616.9,1749.4z"/>
			<path class="st0" d="M591.6,1351.4c-0.4-1.3-1.8-2.1-3.1-1.7c-1.3,0.4-2.1,1.8-1.7,3.1c3.8,12.5,7.3,25.5,10.2,39
				c0.3,1.2,1.3,2,2.5,2c0.2,0,0.4,0,0.5-0.1c1.4-0.3,2.2-1.6,1.9-3C599,1377.2,595.5,1363.9,591.6,1351.4z"/>
			<path class="st0" d="M596.1,1827.6c-1.3-0.5-2.7,0.2-3.2,1.5c-4.4,12.6-9.4,25.2-14.8,37.5c-0.6,1.3,0,2.8,1.3,3.3
				c0.3,0.2,0.7,0.2,1,0.2c1,0,1.9-0.5,2.3-1.5c5.4-12.5,10.5-25.2,14.9-37.9C598.1,1829.5,597.4,1828,596.1,1827.6z"/>
			<path class="st0" d="M380.4,962.7c0.5,0,1-0.1,1.5-0.4c1.2-0.8,1.4-2.4,0.6-3.5c-7.5-10.9-15.2-22.1-22.7-33.4
				c-0.8-1.2-2.3-1.5-3.5-0.7c-1.1,0.8-1.4,2.3-0.7,3.5c7.6,11.3,15.2,22.6,22.8,33.5C378.8,962.4,379.6,962.7,380.4,962.7z"/>
			<path class="st0" d="M632.4,1590.6c-0.1-1.4-1.1-2.5-2.6-2.5c-1.4,0-2.5,1.1-2.5,2.5c0.1,3.1,0.1,6.1,0.1,9.2
				c0,10.2-0.2,20.7-0.6,31.2c-0.1,1.4,1,2.5,2.4,2.6h0.1c1.3,0,2.4-1.1,2.5-2.4c0.4-10.6,0.6-21.2,0.6-31.4
				C632.4,1596.8,632.4,1593.7,632.4,1590.6z"/>
			<path class="st0" d="M618.8,1467.8c-1.3-12.4-3-25.7-5.8-38.3c-0.3-1.3-1.7-2.2-3-1.9c-1.4,0.3-2.2,1.6-1.9,3
				c2.8,12.3,4.4,25.4,5.7,38l0.4,2c0.3,1.1,1.3,1.9,2.5,1.9c0.2,0,0.4,0,0.5-0.1c1.4-0.3,2.2-1.6,1.9-3L618.8,1467.8z"/>
			<path class="st0" d="M627,1669c-1.4-0.1-2.7,0.9-2.8,2.3c-1.1,13.2-2.5,26.7-4.2,40.2c-0.2,1.4,0.8,2.7,2.2,2.8
				c0.1,0,0.2,0,0.4,0c1.2,0,2.3-0.9,2.5-2.2c1.7-13.5,3.1-27.2,4.3-40.4C629.4,1670.4,628.4,1669.2,627,1669z"/>
			<path class="st0" d="M577.7,1313.1c-5.4-12.7-11.3-25-17.8-36.7c-0.7-1.2-2.2-1.6-3.4-1c-1.2,0.7-1.7,2.2-1,3.4
				c6.4,11.5,12.3,23.6,17.6,36.1c0.4,1,1.4,1.6,2.3,1.6c0.3,0,0.7-0.1,1-0.2C577.7,1315.9,578.3,1314.4,577.7,1313.1z"/>
			<path class="st0" d="M466.1,2032.7c-9.6,9.6-19.6,18.7-29.7,27.1c-1.1,0.9-1.2,2.5-0.3,3.6c0.5,0.6,1.2,0.9,2,0.9
				c0.6,0,1.1-0.2,1.6-0.5c10.3-8.5,20.4-17.8,30.1-27.5c1-1,1-2.5,0-3.6C468.6,2031.7,467.1,2031.7,466.1,2032.7z"/>
			<path class="st0" d="M564,1901.9c-1.2-0.7-2.7-0.2-3.4,1c-6.2,11.9-12.9,23.7-20,35c-0.7,1.2-0.4,2.8,0.8,3.5
				c0.4,0.2,0.8,0.4,1.3,0.4c0.8,0,1.7-0.4,2.2-1.2c7.1-11.4,13.8-23.3,20.1-35.3C565.7,1904.1,565.3,1902.5,564,1901.9z"/>
			<path class="st0" d="M404.3,2084.1c-11.2,7.6-22.8,14.6-34.4,20.7c-1.2,0.7-1.7,2.2-1.1,3.4c0.5,0.8,1.3,1.3,2.2,1.3
				c0.4,0,0.8-0.1,1.2-0.3c11.8-6.3,23.5-13.4,34.8-21c1.2-0.8,1.5-2.4,0.7-3.5C407,2083.6,405.4,2083.3,404.3,2084.1z"/>
			<path class="st0" d="M404.5,992.8c-0.8-1.2-2.3-1.5-3.5-0.7c-1.2,0.8-1.5,2.3-0.7,3.5c7.3,11.3,14.6,22.7,21.8,34.1
				c0.5,0.8,1.3,1.2,2.1,1.2c0.5,0,0.9-0.1,1.3-0.4c1.2-0.8,1.5-2.3,0.8-3.5C419.1,1015.5,411.9,1004.1,404.5,992.8z"/>
			<path class="st0" d="M506.2,1170.4c0.4,0,0.8-0.1,1.2-0.3c1.2-0.6,1.7-2.2,1.1-3.4c-6-11.5-12.5-23.5-19.3-35.7
				c-0.7-1.2-2.2-1.6-3.4-1c-1.2,0.7-1.7,2.2-1,3.4c6.8,12.1,13.2,24,19.2,35.5C504.4,1169.9,505.3,1170.4,506.2,1170.4z"/>
			<path class="st0" d="M542,1243.3c1.3-0.5,1.9-2.1,1.3-3.3c-5.2-12.1-10.8-24.6-16.8-37c-0.6-1.3-2.1-1.8-3.4-1.2
				c-1.3,0.6-1.8,2.1-1.2,3.4c5.9,12.4,11.5,24.7,16.7,36.8c0.4,1,1.3,1.5,2.3,1.5C541.3,1243.5,541.7,1243.4,542,1243.3z"/>
			<path class="st0" d="M518.2,1971.4c-7.9,10.9-16.3,21.6-24.9,31.7c-0.9,1.1-0.8,2.7,0.3,3.6c0.5,0.4,1.1,0.6,1.6,0.6
				c0.7,0,1.4-0.3,1.9-0.9c8.7-10.2,17.1-21,25.1-32c0.8-1.2,0.6-2.7-0.5-3.5C520.6,1970.1,519,1970.3,518.2,1971.4z"/>
		</g>
		<g>
			<path class="st0" d="M455.2,1481.3l-0.1-1.1c-52.6-233-178.6-409.4-311.9-596.1l-11-15.4C85.6,803.3,43.3,745-1.9,688.4
				c0.1,0.2,0.3,0.5,0.4,0.7c1.3,3.2,0.1,7.5-0.5,11.2c0,0.6-0.1,1.3-0.1,1.9c0,0.8,0.1,1.5,0.1,2.3c42.2,53.4,82.2,108.7,126,170.1
				l11,15.3c132.6,185.8,257.9,361.2,310.2,592c0.5,64.2,0.9,122.1-0.2,181.4c-22.2,105-95.9,222.2-210.8,247.8
				c-13.2,1.9-27.9,2.8-46.3,2.8c-10.4,0-21.1-0.2-31.4-0.5c-10.3-0.2-20.9-0.5-31.3-0.5h-3.6c-15.7-6.3-32.1-10.1-48.1-13.7
				c-10.9-2.5-22.3-5.1-33.2-8.5c-13.8-7.2-27.6-14.4-41.3-21.8c0.2,0.5,0.3,1.1,0.3,1.7c0.1,3.2,0.6,6.7-0.4,9.8
				c12.4,6.6,24.7,13.1,37.1,19.5l0.8,0.3c11.5,3.6,23.1,6.3,34.4,8.9c16.6,3.8,32.3,7.4,47.4,13.7l0.9,0.4h1
				c11.7-0.1,23.8,0.2,35.6,0.5c10.4,0.2,21.1,0.5,31.6,0.5c19,0,34.2-1,47.9-3l0.4-0.1c55.2-12.3,105.6-45.7,145.6-96.6
				c34.9-44.5,60.9-101.1,73.2-159.5l0.1-0.9C456.1,1604.2,455.8,1545.9,455.2,1481.3z"/>
		</g>
		<g>
			<path class="st0" d="M189.4,1440.9c-0.6-14.9-1.2-30.4-0.4-45.1l0-0.4l-0.1-0.4C148.1,1263.3,75,1140.1-0.7,1037.2
				c0,0.2,0.1,0.4,0.1,0.6c0,1.1,0.2,2.1,0.3,3.2c0,0.7-0.1,1.5-0.2,2.2c0,0.1,0,0.2-0.1,0.3c0,0.7-0.1,1.3-0.2,2
				C73.1,1146.9,144,1267.4,184,1396c-0.8,14.8-0.1,30.2,0.4,45.1c1,26.8,2.1,54.5-4.7,78.9c-11.7,38.6-44.6,71.2-87.8,87
				c-7.9,1.9-16.9,2.8-28.3,2.8c-6.5,0-13.2-0.2-19.6-0.5c-6.4-0.2-13.1-0.5-19.5-0.5c-1.1,0-2.1,0-3.2,0.1c-7.5-2.5-15-5-22.4-7.7
				v4.7c0,0.2,0,0.4-0.1,0.6c7.1,2.5,14.2,4.9,21.3,7.3l0.4,0.1h0.4c7.5-0.1,15.3,0.2,22.9,0.5c6.5,0.2,13.2,0.5,19.8,0.5
				c11.8,0,21.2-1,29.8-3.1c44.9-16.3,79-50.1,91.2-90.4C191.6,1496.2,190.5,1468.1,189.4,1440.9z"/>
		</g>
		<g>
			<path class="st0" d="M1051.8,2438c-14.7-96.5,10.7-201.7,75.5-313.7c-0.1-0.4-0.2-0.8-0.2-1.3c0-2.5-0.4-4.9-0.6-7.4
				c-67.9,115-94.7,223.1-79.9,322.3C1048.4,2437.9,1050.1,2437.9,1051.8,2438z"/>
			<path class="st0" d="M1058.8,2454.1c-2,0-4,0.2-5.9,0.2"/>
		</g>
	</g>
</g>
</svg>
