<?xml version="1.0" encoding="utf-8"?>
<!-- Generator: Adobe Illustrator 25.0.0, SVG Export Plug-In . SVG Version: 6.00 Build 0)  -->
<svg version="1.1" baseProfile="basic" id="Layer_1"
	 xmlns="http://www.w3.org/2000/svg" xmlns:xlink="http://www.w3.org/1999/xlink" x="0px" y="0px" viewBox="0 0 1062.2 595"
	 xml:space="preserve">
<path style="fill:#F2F2F2;" d="M349,434c-25.9-0.6-53.7,13.9-61,38.7l140.6-5.7c-2.7-1.8-5.3-3.7-8-5.4C399,447.2,375,434.6,349,434
	z"/>
<path style="fill:#F2F2F2;" d="M428.6,467c18.7,12.9,37,26.7,57.8,35.7c51.6,22.2,111,11.9,165.3-2.6s109.7-32.8,165.4-25.3
	c31.6,4.2,61.4,16.6,91.9,25.8s63.3,15.5,94,7.2c30.7-8.3,58.5-34.7,59.3-66.5C830.1,398.3,614.9,397,428.6,467z"/>
<path style="fill:#F2F2F2;" d="M61,480c-25.9-0.6-53.7,13.9-61,38.7l140.6-5.7c-2.7-1.8-5.3-3.7-8-5.4C111,493.2,87,480.6,61,480z"
	/>
<path style="fill:#F2F2F2;" d="M140.6,513c18.7,12.9,37,26.7,57.8,35.7c51.6,22.2,111,11.9,165.3-2.6s109.7-32.8,165.4-25.3
	c31.6,4.2,61.4,16.6,91.9,25.8s63.3,15.5,94,7.2c30.7-8.3,58.5-34.7,59.3-66.5C542.1,444.3,326.9,443,140.6,513z"/>
<path style="fill:#E6E6E6;" d="M452.3,298.9H307c-4.3,0-7.8,3.5-7.8,7.8v53c0,4.3,3.5,7.8,7.8,7.8h145.4c4.3,0,7.8-3.5,7.8-7.8v-53
	C460.2,302.4,456.7,298.9,452.3,298.9z"/>
<rect x="309.7" y="298.9" style="fill:#CCCCCC;" width="4" height="68.6"/>
<rect x="326.7" y="298.9" style="fill:#CCCCCC;" width="4" height="68.6"/>
<rect x="343.7" y="298.9" style="fill:#CCCCCC;" width="4" height="68.6"/>
<rect x="360.7" y="298.9" style="fill:#CCCCCC;" width="4" height="68.6"/>
<rect x="377.7" y="298.9" style="fill:#CCCCCC;" width="4" height="68.6"/>
<rect x="394.7" y="298.9" style="fill:#CCCCCC;" width="4" height="68.6"/>
<rect x="411.7" y="298.9" style="fill:#CCCCCC;" width="4" height="68.6"/>
<rect x="428.7" y="298.9" style="fill:#CCCCCC;" width="4" height="68.6"/>
<rect x="445.7" y="298.9" style="fill:#CCCCCC;" width="4" height="68.6"/>
<path style="fill:#E6E6E6;" d="M602.4,175l-17.8-38.4c-2.7-5.8-8.4-9.4-14.8-9.4h-21c5-8.6,2.1-19.6-6.5-24.6
	c-8.6-5-19.6-2.1-24.6,6.5c-3.2,5.6-3.2,12.5,0,18.1h-21c-6.3,0-12.1,3.7-14.8,9.4L463.9,175c-3.8,8.2-0.3,17.9,7.9,21.7
	c2.2,1,4.5,1.5,6.9,1.5h49.4v186h10v-186h49.4c9,0,16.3-7.3,16.3-16.3C603.9,179.5,603.4,177.1,602.4,175z"/>
<path style="fill:#E6E6E6;" d="M809.3,298.9H664c-4.3,0-7.8,3.5-7.8,7.8v53c0,4.3,3.5,7.8,7.8,7.8h145.4c4.3,0,7.8-3.5,7.8-7.8v-53
	C817.2,302.4,813.7,298.9,809.3,298.9z"/>
<rect x="666.7" y="298.9" style="fill:#CCCCCC;" width="4" height="68.6"/>
<rect x="683.7" y="298.9" style="fill:#CCCCCC;" width="4" height="68.6"/>
<rect x="700.7" y="298.9" style="fill:#CCCCCC;" width="4" height="68.6"/>
<rect x="717.7" y="298.9" style="fill:#CCCCCC;" width="4" height="68.6"/>
<rect x="734.7" y="298.9" style="fill:#CCCCCC;" width="4" height="68.6"/>
<rect x="751.7" y="298.9" style="fill:#CCCCCC;" width="4" height="68.6"/>
<rect x="768.7" y="298.9" style="fill:#CCCCCC;" width="4" height="68.6"/>
<rect x="785.7" y="298.9" style="fill:#CCCCCC;" width="4" height="68.6"/>
<rect x="802.7" y="298.9" style="fill:#CCCCCC;" width="4" height="68.6"/>
<path style="fill:#E6E6E6;" d="M647.3,298.9H502c-4.3,0-7.8,3.5-7.8,7.8v53c0,4.3,3.5,7.8,7.8,7.8h145.4c4.3,0,7.8-3.5,7.8-7.8v-53
	C655.2,302.4,651.7,298.9,647.3,298.9z"/>
<rect x="504.7" y="298.9" style="fill:#CCCCCC;" width="4" height="68.6"/>
<rect x="521.7" y="298.9" style="fill:#CCCCCC;" width="4" height="68.6"/>
<rect x="538.7" y="298.9" style="fill:#CCCCCC;" width="4" height="68.6"/>
<rect x="555.7" y="298.9" style="fill:#CCCCCC;" width="4" height="68.6"/>
<rect x="572.7" y="298.9" style="fill:#CCCCCC;" width="4" height="68.6"/>
<rect x="589.7" y="298.9" style="fill:#CCCCCC;" width="4" height="68.6"/>
<rect x="606.7" y="298.9" style="fill:#CCCCCC;" width="4" height="68.6"/>
<rect x="623.7" y="298.9" style="fill:#CCCCCC;" width="4" height="68.6"/>
<rect x="640.7" y="298.9" style="fill:#CCCCCC;" width="4" height="68.6"/>
<path style="fill:#E6E6E6;" d="M820.3,229.9H675c-4.3,0-7.8,3.5-7.8,7.8v53c0,4.3,3.5,7.8,7.8,7.8h145.4c4.3,0,7.8-3.5,7.8-7.8v-53
	C828.2,233.4,824.7,229.9,820.3,229.9z"/>
<rect x="677.7" y="229.9" style="fill:#CCCCCC;" width="4" height="68.6"/>
<rect x="694.7" y="229.9" style="fill:#CCCCCC;" width="4" height="68.6"/>
<rect x="711.7" y="229.9" style="fill:#CCCCCC;" width="4" height="68.6"/>
<rect x="728.7" y="229.9" style="fill:#CCCCCC;" width="4" height="68.6"/>
<rect x="745.7" y="229.9" style="fill:#CCCCCC;" width="4" height="68.6"/>
<rect x="762.7" y="229.9" style="fill:#CCCCCC;" width="4" height="68.6"/>
<rect x="779.7" y="229.9" style="fill:#CCCCCC;" width="4" height="68.6"/>
<rect x="796.7" y="229.9" style="fill:#CCCCCC;" width="4" height="68.6"/>
<rect x="813.7" y="229.9" style="fill:#CCCCCC;" width="4" height="68.6"/>
<path style="fill:#399D43;" d="M777.3,303.9H632c-4.3,0-7.8,3.5-7.8,7.8v53c0,4.3,3.5,7.8,7.8,7.8h145.4c4.3,0,7.8-3.5,7.8-7.8v-53
	C785.2,307.4,781.7,303.9,777.3,303.9z"/>
<rect x="634.7" y="303.9" style="fill:#3F3D56;" width="4" height="68.6"/>
<rect x="651.7" y="303.9" style="fill:#3F3D56;" width="4" height="68.6"/>
<rect x="668.7" y="303.9" style="fill:#3F3D56;" width="4" height="68.6"/>
<rect x="685.7" y="303.9" style="fill:#3F3D56;" width="4" height="68.6"/>
<rect x="702.7" y="303.9" style="fill:#3F3D56;" width="4" height="68.6"/>
<rect x="719.7" y="303.9" style="fill:#3F3D56;" width="4" height="68.6"/>
<rect x="736.7" y="303.9" style="fill:#3F3D56;" width="4" height="68.6"/>
<rect x="753.7" y="303.9" style="fill:#3F3D56;" width="4" height="68.6"/>
<rect x="770.7" y="303.9" style="fill:#3F3D56;" width="4" height="68.6"/>
<path style="fill:#399D43;" d="M594.3,303.9H449c-4.3,0-7.8,3.5-7.8,7.8v53c0,4.3,3.5,7.8,7.8,7.8h145.4c4.3,0,7.8-3.5,7.8-7.8v-53
	C602.2,307.4,598.7,303.9,594.3,303.9z"/>
<rect x="451.7" y="303.9" style="fill:#3F3D56;" width="4" height="68.6"/>
<rect x="468.7" y="303.9" style="fill:#3F3D56;" width="4" height="68.6"/>
<rect x="485.7" y="303.9" style="fill:#3F3D56;" width="4" height="68.6"/>
<rect x="502.7" y="303.9" style="fill:#3F3D56;" width="4" height="68.6"/>
<rect x="519.7" y="303.9" style="fill:#3F3D56;" width="4" height="68.6"/>
<rect x="536.7" y="303.9" style="fill:#3F3D56;" width="4" height="68.6"/>
<rect x="553.7" y="303.9" style="fill:#3F3D56;" width="4" height="68.6"/>
<rect x="570.7" y="303.9" style="fill:#3F3D56;" width="4" height="68.6"/>
<rect x="587.7" y="303.9" style="fill:#3F3D56;" width="4" height="68.6"/>
<path style="fill:#399D43;" d="M649.3,234.9H504c-4.3,0-7.8,3.5-7.8,7.8v53c0,4.3,3.5,7.8,7.8,7.8h145.4c4.3,0,7.8-3.5,7.8-7.8v-53
	C657.2,238.4,653.7,234.9,649.3,234.9z"/>
<rect x="506.7" y="234.9" style="fill:#3F3D56;" width="4" height="68.6"/>
<rect x="523.7" y="234.9" style="fill:#3F3D56;" width="4" height="68.6"/>
<rect x="540.7" y="234.9" style="fill:#3F3D56;" width="4" height="68.6"/>
<rect x="557.7" y="234.9" style="fill:#3F3D56;" width="4" height="68.6"/>
<rect x="574.7" y="234.9" style="fill:#3F3D56;" width="4" height="68.6"/>
<rect x="591.7" y="234.9" style="fill:#3F3D56;" width="4" height="68.6"/>
<rect x="608.7" y="234.9" style="fill:#3F3D56;" width="4" height="68.6"/>
<rect x="625.7" y="234.9" style="fill:#3F3D56;" width="4" height="68.6"/>
<rect x="642.7" y="234.9" style="fill:#3F3D56;" width="4" height="68.6"/>
<path style="fill:#399D43;" d="M399.3,303.9H254c-4.3,0-7.8,3.5-7.8,7.8v53c0,4.3,3.5,7.8,7.8,7.8h145.4c4.3,0,7.8-3.5,7.8-7.8v-53
	C407.2,307.4,403.7,303.9,399.3,303.9z"/>
<rect x="256.7" y="303.9" style="fill:#3F3D56;" width="4" height="68.6"/>
<rect x="273.7" y="303.9" style="fill:#3F3D56;" width="4" height="68.6"/>
<rect x="290.7" y="303.9" style="fill:#3F3D56;" width="4" height="68.6"/>
<rect x="307.7" y="303.9" style="fill:#3F3D56;" width="4" height="68.6"/>
<rect x="324.7" y="303.9" style="fill:#3F3D56;" width="4" height="68.6"/>
<rect x="341.7" y="303.9" style="fill:#3F3D56;" width="4" height="68.6"/>
<rect x="358.7" y="303.9" style="fill:#3F3D56;" width="4" height="68.6"/>
<rect x="375.7" y="303.9" style="fill:#3F3D56;" width="4" height="68.6"/>
<rect x="392.7" y="303.9" style="fill:#3F3D56;" width="4" height="68.6"/>
<path style="fill:#399D43;" d="M435.3,234.9H290c-4.3,0-7.8,3.5-7.8,7.8v53c0,4.3,3.5,7.8,7.8,7.8h145.4c4.3,0,7.8-3.5,7.8-7.8v-53
	C443.2,238.4,439.7,234.9,435.3,234.9z"/>
<rect x="292.7" y="234.9" style="fill:#3F3D56;" width="4" height="68.6"/>
<rect x="309.7" y="234.9" style="fill:#3F3D56;" width="4" height="68.6"/>
<rect x="326.7" y="234.9" style="fill:#3F3D56;" width="4" height="68.6"/>
<rect x="343.7" y="234.9" style="fill:#3F3D56;" width="4" height="68.6"/>
<rect x="360.7" y="234.9" style="fill:#3F3D56;" width="4" height="68.6"/>
<rect x="377.7" y="234.9" style="fill:#3F3D56;" width="4" height="68.6"/>
<rect x="394.7" y="234.9" style="fill:#3F3D56;" width="4" height="68.6"/>
<rect x="411.7" y="234.9" style="fill:#3F3D56;" width="4" height="68.6"/>
<rect x="428.7" y="234.9" style="fill:#3F3D56;" width="4" height="68.6"/>
<path style="fill:#3F3D56;" d="M905.3,376.5c-0.2-0.9-0.6-1.7-0.9-2.5l-17.8-38.4c-2.7-5.8-8.4-9.4-14.8-9.4h-73.2
	c-6.3,0-12.1,3.7-14.8,9.4l-14.7,31.6H350.7l-14.2-30.6c-2.7-5.8-8.4-9.4-14.8-9.4h-73.2c-2.8,0-5.6,0.7-8,2.1l-12.3-22
	c-2-3.6-6.6-4.9-10.2-2.9c-2.4,1.3-3.8,3.8-3.8,6.6v172.6c0,10.8,8.8,19.6,19.6,19.6c0,0,0,0,0,0h560.2c5.3,0,10.3-2.1,14-5.9
	l94.7-96.8C909,394.1,910.1,384.2,905.3,376.5z"/>
<path style="fill:#FFFFFF;" d="M806.8,364.7h-9.2c-4.1,0-7.4-3.3-7.4-7.4v-10.2c0-4.1,3.3-7.4,7.4-7.4h9.2c4.1,0,7.4,3.3,7.4,7.4
	v10.2C814.2,361.4,810.8,364.7,806.8,364.7z"/>
<path style="fill:#FFFFFF;" d="M839.8,364.7h-9.2c-4.1,0-7.4-3.3-7.4-7.4v-10.2c0-4.1,3.3-7.4,7.4-7.4h9.2c4.1,0,7.4,3.3,7.4,7.4
	v10.2C847.2,361.4,843.8,364.7,839.8,364.7z"/>
<path style="fill:#FFFFFF;" d="M872.8,364.7h-9.2c-4.1,0-7.4-3.3-7.4-7.4v-10.2c0-4.1,3.3-7.4,7.4-7.4h9.2c4.1,0,7.4,3.3,7.4,7.4
	v10.2C880.2,361.4,876.8,364.7,872.8,364.7z"/>
<path style="fill:#FFFFFF;" d="M504.8,165.7h-9.2c-4.1,0-7.4-3.3-7.4-7.4v-10.2c0-4.1,3.3-7.4,7.4-7.4h9.2c4.1,0,7.4,3.3,7.4,7.4
	v10.2C512.2,162.4,508.8,165.7,504.8,165.7z"/>
<path style="fill:#FFFFFF;" d="M537.8,165.7h-9.2c-4.1,0-7.4-3.3-7.4-7.4v-10.2c0-4.1,3.3-7.4,7.4-7.4h9.2c4.1,0,7.4,3.3,7.4,7.4
	v10.2C545.2,162.4,541.8,165.7,537.8,165.7z"/>
<path style="fill:#FFFFFF;" d="M570.8,165.7h-9.2c-4.1,0-7.4-3.3-7.4-7.4v-10.2c0-4.1,3.3-7.4,7.4-7.4h9.2c4.1,0,7.4,3.3,7.4,7.4
	v10.2C578.2,162.4,574.8,165.7,570.8,165.7z"/>
<path style="fill:#FFFFFF;" d="M256.8,365.7h-9.2c-4.1,0-7.4-3.3-7.4-7.4v-10.2c0-4.1,3.3-7.4,7.4-7.4h9.2c4.1,0,7.4,3.3,7.4,7.4
	v10.2C264.2,362.4,260.8,365.7,256.8,365.7z"/>
<path style="fill:#FFFFFF;" d="M289.8,365.7h-9.2c-4.1,0-7.4-3.3-7.4-7.4v-10.2c0-4.1,3.3-7.4,7.4-7.4h9.2c4.1,0,7.4,3.3,7.4,7.4
	v10.2C297.2,362.4,293.8,365.7,289.8,365.7z"/>
<path style="fill:#FFFFFF;" d="M322.8,365.7h-9.2c-4.1,0-7.4-3.3-7.4-7.4v-10.2c0-4.1,3.3-7.4,7.4-7.4h9.2c4.1,0,7.4,3.3,7.4,7.4
	v10.2C330.2,362.4,326.8,365.7,322.8,365.7z"/>
<path style="fill:#399D43;" d="M199.7,471c-25.9-0.6-53.7,13.9-61,38.7l140.6-5.7c-2.7-1.8-5.3-3.7-8-5.4
	C249.7,484.2,225.6,471.6,199.7,471z"/>
<path style="fill:#399D43;" d="M279.3,504c18.7,12.9,37,26.7,57.8,35.7c51.6,22.2,111,11.9,165.3-2.6s109.7-32.8,165.4-25.3
	c31.6,4.2,61.4,16.6,91.9,25.8s63.3,15.5,94,7.2c30.7-8.3,58.5-34.7,59.3-66.5C680.7,435.3,465.5,434,279.3,504z"/>
<circle style="fill:#FDBB6D;" cx="767.1" cy="60.1" r="26.7"/>
<path style="fill:#E6E6E6;" d="M826.8,47.5c-1.5-5-5.9-8.7-11.2-9.3c-0.1,0-0.1,0-0.2,0c-0.1,0-0.1,0-0.2-0.1
	c-8.9-1.2-18.9,1.7-25.6,7.8l-0.1,0.1c-3.4,3.2-8.3,4.4-12.8,3.1c-1.2-0.3-2.5-0.5-3.8-0.4c-5.5,0.4-10.3,4.2-11.8,9.5
	c-0.2,0.7,0.1,1.3,0.7,1.7c0.8,0.7,1.8,1.2,2.8,1.4c2.2,0.5,4.4,0.9,6.7,1.3c4.4,0.8,8.7,1.4,13.2,1.9c2.9,0.3,5.8,0.6,8.8,0.7
	c6,0.4,12.1,0.5,18.2,0.3c3-0.1,5.9-0.2,8.6-1.5c2-1,3.7-2.5,5-4.3C827.4,56.1,828.1,51.6,826.8,47.5z"/>
<path style="fill:#E6E6E6;" d="M771.9,86.4c-0.1-1.1-0.2-2.2-0.6-3.3c-1.5-5-5.9-8.7-11.2-9.3c-0.1,0-0.1,0-0.2,0
	c-0.1,0-0.2,0-0.2-0.1c-4.9-0.6-10-0.1-14.7,1.5c-4.1,1.3-7.8,3.5-10.9,6.4c-3.4,3.2-8.3,4.4-12.8,3.1c-1.2-0.3-2.5-0.5-3.8-0.4
	c-5.5,0.4-10.3,4.2-11.8,9.5c-0.2,0.7,0.1,1.3,0.7,1.7c0.8,0.7,1.8,1.2,2.8,1.4c2.2,0.5,4.4,0.9,6.7,1.3c4.4,0.8,8.7,1.4,13.1,1.9
	c8.9,1,17.9,1.3,26.9,1c3-0.1,5.9-0.2,8.6-1.5c2-1,3.7-2.5,4.9-4.3C771.3,92.6,772.1,89.5,771.9,86.4z"/>
<path style="fill:#3F3D56;" d="M781.8,151.6c-0.3,1.4-0.1,2.9,0.6,4.1c0.9,1.3,2.5,1.8,4,1.3c2.8-0.9,5.6-1.9,8.3-2.8
	c0.8-0.2,1.2-1,1-1.8c-0.2-0.8-1-1.3-1.8-1l-6.9,2.4c-0.5,0.2-1,0.4-1.6,0.5c-0.1,0-0.3,0.1-0.2,0.1c0,0,0.2,0,0,0c-0.1,0-0.1,0,0,0
	l-0.1-0.1c0.1,0.1,0,0-0.1-0.1c0,0-0.1-0.2-0.1-0.1c-0.1-0.1-0.1-0.2-0.2-0.3c0.1,0.2-0.1-0.2-0.1-0.3c-0.1-0.6,0-1.3,0.1-1.9
	c0-0.8-0.7-1.5-1.5-1.5C782.5,150.1,781.8,150.8,781.8,151.6L781.8,151.6z"/>
<path style="fill:#3F3D56;" d="M670.1,156.9l7.4,9.3c0.9,1.2,3-0.1,2.5-1.5c-0.9-2.8,2.3-4.3,4.5-4.8c2.9-0.6,5.8-0.5,8.6-1.8
	c1.8-0.8,0.2-3.4-1.5-2.6c-3.2,1.5-7,0.8-10.3,2.2c-2.9,1.3-5.2,4.4-4.2,7.7l2.5-1.5l-7.4-9.3c-0.6-0.6-1.5-0.6-2.1,0
	C669.6,155.4,669.6,156.3,670.1,156.9L670.1,156.9z"/>
<path style="fill:#3F3D56;" d="M655.1,47.9l7.4,9.3c0.9,1.2,3-0.1,2.5-1.5c-0.9-2.8,2.3-4.3,4.5-4.8c2.9-0.6,5.8-0.5,8.6-1.8
	c1.8-0.8,0.2-3.4-1.5-2.6c-3.2,1.5-7,0.8-10.3,2.2c-2.9,1.3-5.2,4.4-4.2,7.7l2.5-1.5l-7.4-9.3c-0.6-0.6-1.5-0.6-2.1,0
	C654.6,46.4,654.6,47.3,655.1,47.9L655.1,47.9z"/>
</svg>
