<?xml version="1.0" encoding="utf-8"?>
<!-- Generator: Adobe Illustrator 25.0.0, SVG Export Plug-In . SVG Version: 6.00 Build 0)  -->
<svg version="1.1" baseProfile="basic" id="Layer_1"
	 xmlns="http://www.w3.org/2000/svg" xmlns:xlink="http://www.w3.org/1999/xlink" x="0px" y="0px" viewBox="0 0 1050 790"
	 xml:space="preserve">
<path opacity="0.1" fill="#399D43" d="M187.8,119c-5.5,6.6-7.6,16-9.9,24.8c-19,70.8-65.8,127.8-119.1,168.5
	c-22.6,17.2-50.1,40.4-45.1,71.3c2.7,16.6,14.3,28.8,23,42.3c18.2,28.3,24.1,66.8,15.4,100.7c-9.9,38.6-37.4,74.5-28.9,113.5
	c5.3,24,23.1,41.1,40.3,55.8c26.8,22.9,54.4,44.3,82.9,64.3c19.1,13.4,39.4,26.4,61.7,28.1c19.6,1.5,38.8-6,57.4-13.3
	c16.3-6.4,32.9-13.1,46.1-26c8.6-8.4,15.4-19.3,24.9-26.1c22.4-16.2,51.1-5.9,76.7,1c60.5,16.2,125.3,10.3,182.8-16.7
	c88.3-41.5,155.6-128.7,242-175.4c37.1-20.1,77.5-32.6,111.9-58.5c19.4-14.7,36-32.8,49.2-53.2c26-40.1,40.1-91.2,36-141.3
	s-26.8-98.3-62.5-126.6c-38.2-30.2-86.6-35.9-130.1-54.1c-44.9-18.8-84.9-51-129.4-71.1C640.1-6,556.2-4.1,484.8,32
	c-48.5,24.5-97.5,81.7-151.5,86C294.8,121,217.9,82.5,187.8,119z"/>
<path fill="none" stroke="#535461" stroke-width="2" stroke-miterlimit="10" d="M881.2,350.6c0,0-14.6-49.5,2.7-85.8
	c7.4-15.2,9.6-32.4,6.3-49c-1.6-7.9-3.9-15.6-6.9-23"/>
<path fill="#399D43" d="M894.1,169.8c0,6.1-11,23.6-11,23.6s-11-17.6-11-23.6c-0.4-6.1,4.1-11.3,10.2-11.8
	c6.1-0.4,11.3,4.1,11.8,10.2C894.1,168.7,894.1,169.2,894.1,169.8L894.1,169.8z"/>
<path fill="#399D43" d="M912.2,203.3c-3.3,5.1-22.1,13.9-22.1,13.9s0.3-20.7,3.6-25.8c3.7-4.9,10.5-5.8,15.4-2.2
	C913.5,192.5,914.8,198.6,912.2,203.3L912.2,203.3z"/>
<path fill="#399D43" d="M911.4,260.7c-5.4,2.7-26,0.8-26,0.8s10.8-17.7,16.2-20.4c5.6-2.3,12,0.3,14.4,5.9
	C918,252.1,916.1,257.9,911.4,260.7L911.4,260.7z"/>
<path fill="#399D43" d="M901,304c-4.9,3.6-25.5,5.2-25.5,5.2s7.6-19.3,12.5-22.9c5.2-3.2,12-1.5,15.1,3.7
	C905.8,294.6,905,300.5,901,304L901,304z"/>
<path fill="#399D43" d="M867.1,218.4c4.3,4.2,24.6,8.6,24.6,8.6s-5-20.1-9.3-24.3c-4-4.5-11-4.9-15.5-0.9c-4.5,4-4.9,11-0.9,15.5
	C866.3,217.7,866.7,218.1,867.1,218.4z"/>
<path fill="#399D43" d="M855.6,269.2c5.4,2.7,26,0.8,26,0.8s-10.8-17.7-16.2-20.4c-5.6-2.3-12,0.3-14.4,5.9
	C849,260.5,850.9,266.3,855.6,269.2L855.6,269.2z"/>
<path fill="#399D43" d="M851.2,320c4.9,3.6,25.5,5.2,25.5,5.2s-7.6-19.3-12.5-22.9c-4.6-4-11.5-3.6-15.5,1c-4,4.6-3.6,11.5,1,15.5
	C850.2,319.3,850.7,319.7,851.2,320L851.2,320z"/>
<path opacity="0.1" fill="#399D43" d="M894.1,169.8c0,6.1-11,23.6-11,23.6s-11-17.6-11-23.6c-0.4-6.1,4.1-11.3,10.2-11.8
	c6.1-0.4,11.3,4.1,11.8,10.2C894.1,168.7,894.1,169.2,894.1,169.8L894.1,169.8z"/>
<path opacity="0.1" fill="#399D43" d="M912.2,203.3c-3.3,5.1-22.1,13.9-22.1,13.9s0.3-20.7,3.6-25.8c3.7-4.9,10.5-5.8,15.4-2.2
	C913.5,192.5,914.8,198.6,912.2,203.3L912.2,203.3z"/>
<path opacity="0.1" fill="#399D43" d="M911.4,260.7c-5.4,2.7-26,0.8-26,0.8s10.8-17.7,16.2-20.4c5.6-2.3,12,0.3,14.4,5.9
	C918,252.1,916.1,257.9,911.4,260.7L911.4,260.7z"/>
<path opacity="0.1" fill="#399D43" d="M901,304c-4.9,3.6-25.5,5.2-25.5,5.2s7.6-19.3,12.5-22.9c5.2-3.2,12-1.5,15.1,3.7
	C905.8,294.6,905,300.5,901,304L901,304z"/>
<path opacity="0.1" fill="#399D43" d="M867.1,218.4c4.3,4.2,24.6,8.6,24.6,8.6s-5-20.1-9.3-24.3c-4-4.5-11-4.9-15.5-0.9
	c-4.5,4-4.9,11-0.9,15.5C866.3,217.7,866.7,218.1,867.1,218.4z"/>
<path opacity="0.1" fill="#399D43" d="M855.6,269.2c5.4,2.7,26,0.8,26,0.8s-10.8-17.7-16.2-20.4c-5.6-2.3-12,0.3-14.4,5.9
	C849,260.5,850.9,266.3,855.6,269.2L855.6,269.2z"/>
<path opacity="0.1" fill="#399D43" d="M851.2,320c4.9,3.6,25.5,5.2,25.5,5.2s-7.6-19.3-12.5-22.9c-4.6-4-11.5-3.6-15.5,1
	c-4,4.6-3.6,11.5,1,15.5C850.2,319.3,850.7,319.7,851.2,320L851.2,320z"/>
<path fill="none" stroke="#535461" stroke-width="2" stroke-miterlimit="10" d="M942.2,429.6c0,0-14.6-49.5,2.7-85.8
	c7.4-15.2,9.6-32.4,6.3-49c-1.6-7.9-3.9-15.6-6.9-23"/>
<path fill="#399D43" d="M955.1,248.8c0,6.1-11,23.6-11,23.6s-11-17.6-11-23.6c-0.4-6.1,4.1-11.3,10.2-11.8
	c6.1-0.4,11.3,4.1,11.8,10.2C955.1,247.7,955.1,248.2,955.1,248.8L955.1,248.8z"/>
<path fill="#399D43" d="M973.2,282.3c-3.3,5.1-22.1,13.9-22.1,13.9s0.3-20.7,3.6-25.8c2.9-5.3,9.6-7.2,14.9-4.3s7.2,9.6,4.3,14.9
	C973.8,281.5,973.5,281.9,973.2,282.3z"/>
<path fill="#399D43" d="M972.4,339.7c-5.4,2.7-26,0.8-26,0.8s10.8-17.7,16.2-20.4c5.2-3.1,12-1.4,15.1,3.8c3.1,5.2,1.4,12-3.8,15.1
	C973.4,339.3,972.9,339.5,972.4,339.7L972.4,339.7z"/>
<path fill="#399D43" d="M962,383c-4.9,3.6-25.5,5.2-25.5,5.2s7.6-19.3,12.5-22.9c5.2-3.2,12-1.5,15.1,3.7
	C966.8,373.6,966,379.5,962,383L962,383z"/>
<path fill="#399D43" d="M928.1,297.4c4.3,4.2,24.6,8.6,24.6,8.6s-5-20.1-9.3-24.3c-4.6-3.9-11.6-3.3-15.5,1.3
	C924.4,287.2,924.4,293.3,928.1,297.4z"/>
<path fill="#399D43" d="M916.6,348.2c5.4,2.7,26,0.8,26,0.8s-10.8-17.7-16.2-20.4c-5.6-2.3-12,0.3-14.4,5.9
	C910,339.5,911.9,345.3,916.6,348.2L916.6,348.2z"/>
<path fill="#399D43" d="M912.2,399c4.9,3.6,25.5,5.2,25.5,5.2s-7.6-19.3-12.5-22.9c-4.6-4-11.5-3.6-15.5,1c-4,4.6-3.6,11.5,1,15.5
	C911.2,398.3,911.7,398.7,912.2,399L912.2,399z"/>
<path opacity="0.1" fill="#399D43" d="M955.1,248.8c0,6.1-11,23.6-11,23.6s-11-17.6-11-23.6c-0.4-6.1,4.1-11.3,10.2-11.8
	c6.1-0.4,11.3,4.1,11.8,10.2C955.1,247.7,955.1,248.2,955.1,248.8L955.1,248.8z"/>
<path opacity="0.1" fill="#399D43" d="M973.2,282.3c-3.3,5.1-22.1,13.9-22.1,13.9s0.3-20.7,3.6-25.8c2.9-5.3,9.6-7.2,14.9-4.3
	s7.2,9.6,4.3,14.9C973.8,281.5,973.5,281.9,973.2,282.3z"/>
<path opacity="0.1" fill="#399D43" d="M972.4,339.7c-5.4,2.7-26,0.8-26,0.8s10.8-17.7,16.2-20.4c5.2-3.1,12-1.4,15.1,3.8
	c3.1,5.2,1.4,12-3.8,15.1C973.4,339.3,972.9,339.5,972.4,339.7L972.4,339.7z"/>
<path opacity="0.1" fill="#399D43" d="M962,383c-4.9,3.6-25.5,5.2-25.5,5.2s7.6-19.3,12.5-22.9c5.2-3.2,12-1.5,15.1,3.7
	C966.8,373.6,966,379.5,962,383L962,383z"/>
<path opacity="0.1" fill="#399D43" d="M928.1,297.4c4.3,4.2,24.6,8.6,24.6,8.6s-5-20.1-9.3-24.3c-4.6-3.9-11.6-3.3-15.5,1.3
	C924.4,287.2,924.4,293.3,928.1,297.4z"/>
<path opacity="0.1" fill="#399D43" d="M916.6,348.2c5.4,2.7,26,0.8,26,0.8s-10.8-17.7-16.2-20.4c-5.6-2.3-12,0.3-14.4,5.9
	C910,339.5,911.9,345.3,916.6,348.2L916.6,348.2z"/>
<path opacity="0.1" fill="#399D43" d="M912.2,399c4.9,3.6,25.5,5.2,25.5,5.2s-7.6-19.3-12.5-22.9c-4.6-4-11.5-3.6-15.5,1
	c-4,4.6-3.6,11.5,1,15.5C911.2,398.3,911.7,398.7,912.2,399L912.2,399z"/>
<ellipse transform="matrix(0.9953 -9.706178e-02 9.706178e-02 0.9953 -47.4886 55.3589)" opacity="0.1" fill="#399D43" cx="545.3" cy="515.8" rx="494.1" ry="79.5"/>
<linearGradient id="SVGID_1_" gradientUnits="userSpaceOnUse" x1="503.4725" y1="227.4406" x2="503.4725" y2="581.9969" gradientTransform="matrix(1 0 0 -1 16.25 827.89)">
	<stop  offset="0" style="stop-color:#808080;stop-opacity:0.25"/>
	<stop  offset="0.54" style="stop-color:#808080;stop-opacity:0.12"/>
	<stop  offset="1" style="stop-color:#808080;stop-opacity:0.1"/>
</linearGradient>
<path fill="url(#SVGID_1_)" d="M994.3,474.8c18.5-37.9,14.7-99.6,12.7-120.5c-0.4-4.6-0.8-7.2-0.8-7.2s-16.3-2.6-10.3-22.3
	c2.9-9.7-7.5-15-18.9-17.9c-8.2-1.9-16.5-3.1-24.8-3.5l-157.9-9.8l0,0c-21.7-34.4-64.2-28.8-64.2-28.8s-38-4-64.9-4.4
	c-4.1-3.6-8.6-6.7-13.4-9.3c-2.9-1.7-5.9-3.1-9.1-4.1c-7.8-2.3-16.2-0.7-22.7,4.2c-1.6,1.1-2.8,2.6-3.7,4.3
	c-0.3,0.8-0.6,1.6-0.8,2.4c-0.4,1.4-0.7,2.8-1,4.3c-0.2,0.7-0.6,1.4-1,2c-1.1,1.5-2.9,2.7-3.2,4.5c0,0.1,0,0.2,0,0.3
	c-0.2,0.4-0.3,0.7-0.4,1.1c-0.1,0.8,0.1,1.6,0.5,2.4c0.1,0.1,0.1,0.2,0.2,0.3c-1.3,1.9-2.4,4-3.2,6.2c-0.4,0.2-0.7,0.4-1.1,0.7
	l-0.3,0.2v0.6l-0.2,0.1l-0.4,9.9l0.2,0.2c0.6,9.3,5.7,17.8,13.6,22.8c0.1,0.6,0.2,1.3,0.4,1.9c0.5,3.2,0.8,6.5,0.7,9.8h-0.2
	c-4.7-2-12.7,0.9-19.7,4.4h-89.5c17.5-22.5,38.8-39.9,38.8-39.9v-19.7c-15.3-0.8-149.3,63.6-178.7,77.9l-1.3,0.6l-151,4.7
	c-27.4-0.2-51.3,3.9-72,10.4c-34.6,10.9-65.7,30.8-90.2,57.6C38.8,440.6,31,456.8,31,456.8l0.2,1.4l-0.2,0.3l0.2,0.2l4.1,32.1
	l2.8,22.1c-19.5,12.6,5.8,17.6,5.8,17.6c24,20.6,62.6,19.7,62.6,19.7c9.4,12.9,36.9,11.2,36.9,11.2h144.1c2.2-13.2,5.2-26.3,9-39.2
	c6.1,44.3,41.1,78.2,83.3,78.2c3.1,0,6.3-0.2,9.4-0.6c3.1,0.4,6.2,0.6,9.4,0.6c42.7,0,77.9-34.7,83.5-79.8h7
	c-1.3,10.1-3.6,20-6.8,29.6c129.5-37.7,370.5-55.8,370.5-55.8c1-9.5,2.1-18.7,3.3-27.5c9.9,24.7,32.4,41.9,58.6,41.9
	c2.4,0,4.8-0.2,7.1-0.4c2.4,0.3,4.7,0.4,7.1,0.4c31.1,0,57-24.3,62.8-56.5c0.8,5.7,1.2,11.4,1.3,17.1c-1.1,5.5-2.1,9-2.2,9.4
	c0.8-1.4,1.5-2.9,2.2-4.4c0,0.6,0,1.2,0,1.8c-0.2,1-0.4,1.6-0.5,1.8l0.4-0.8c0,0.4,0,0.9,0,1.3C992.9,478.7,993.4,477.3,994.3,474.8
	z"/>
<rect x="682.3" y="338.6" fill="#6F7D95" width="296.9" height="119.8"/>
<polygon fill="#4B5C7A" points="606.8,282.5 648.9,377 732.4,371.9 735.8,333.1 738.3,287.6 620.3,279.1 "/>
<path fill="#FF4D52" d="M606.8,282.5c0,0,16-15.2,35.4-18.6s84.3,3.4,84.3,3.4l9.3,16l-1.7,7.6L606.8,282.5z"/>
<rect x="466.3" y="331" fill="#4B5C7A" width="299.4" height="87.7"/>
<linearGradient id="SVGID_2_" gradientUnits="userSpaceOnUse" x1="598.4879" y1="292.9658" x2="598.4879" y2="556.3349" gradientTransform="matrix(0.9656 0.26 0.26 -0.9656 -58.0548 637.8167)">
	<stop  offset="0" style="stop-color:#808080;stop-opacity:0.25"/>
	<stop  offset="0.54" style="stop-color:#808080;stop-opacity:0.12"/>
	<stop  offset="1" style="stop-color:#808080;stop-opacity:0.1"/>
</linearGradient>
<path fill="url(#SVGID_2_)" d="M692.1,390.7c7.9-26.5-7.9-43.8-7.9-43.8l-26.1-18.2c0,0.1,0,0.1-0.1,0.2c-3.4-4-5.8-8.7-7.1-13.8
	c-0.1-0.3-0.2-0.6-0.2-1c2.4-1.8,4.5-3.9,6.2-6.4c4.3-2.6,6.2-6.8,6.9-11c2.7-4.1,4.9-8.5,6.5-13.1c0.3-0.8,0.5-1.5,0.7-2.3
	c0.5-1.4,0.7-3,0.7-4.5c-0.2-1.7-0.8-3.3-1.7-4.8c-4.4-8-12.3-13.6-20.3-18.1c-2.8-1.7-5.8-3-8.9-4.1c-7.7-2.2-15.9-0.7-22.3,4.2
	c-1.5,1.1-2.8,2.5-3.6,4.2c-0.3,0.8-0.6,1.6-0.7,2.4c-0.4,1.4-0.7,2.8-1,4.2c-0.2,0.7-0.5,1.3-0.9,1.9c-1.1,1.5-2.9,2.6-3.1,4.5
	c0,0.1,0,0.2,0,0.3c-0.2,0.3-0.3,0.7-0.4,1.1c-0.1,0.8,0.1,1.6,0.5,2.3c0.1,0.1,0.1,0.2,0.2,0.3c-1.3,1.9-2.4,3.9-3.2,6.1
	c-0.4,0.2-0.7,0.4-1.1,0.7l-0.3,0.2v0.6l-0.2,0.1l-0.4,9.7l0.2,0.2c0.6,9.2,5.6,17.5,13.3,22.4c0.1,0.6,0.2,1.2,0.4,1.9
	c0.6,3.5,0.8,7,0.7,10.6c0-0.3,0-0.6,0-0.9c-7.2-3.3-23,5.8-29.3,9.8l0,0c-1,0.5-1.9,1-2.7,1.7l-0.1,0.1l0,0
	c-4.4,3.5-13,13.4-19.8,38.7c-9.5,35.3-8.5,43.3-15.4,51.5s-13.8,65.8-13.8,65.8l13.9,3.8l1.8-5.7c16.6,15.1,62.9,22.4,62.9,22.4
	l1.4-4.4c7.1,2.6,19-1.3,19-1.3c17.4-6.1,23.9-21.7,36.5-42.3S692.1,390.7,692.1,390.7z M622,497l32.1-99.6
	c2.9,15.5-9.9,39.8-11.1,55.7C642.3,463.4,630.4,483.8,622,497z"/>
<path fill="#472727" d="M662.1,285.9c0,0,5.6,21.3-11,25s-5.7-9.6-5.7-9.6l16-15.6L662.1,285.9z"/>
<path fill="#DDE0E4" d="M592.8,336.7c0,0-12.3,5-21.4,38.7s-8.2,41.3-14.7,49.1s-13.2,62.8-13.2,62.8l13.1,3.5l11.4-36.7l31.3-97
	L592.8,336.7z"/>
<path opacity="5.000000e-02" d="M592.8,336.7c0,0-12.3,5-21.4,38.7s-8.2,41.3-14.7,49.1s-13.2,62.8-13.2,62.8l13.1,3.5l11.4-36.7
	l31.3-97L592.8,336.7z"/>
<path fill="#DB8B8B" d="M661.3,332.9c0,0-51.7,26.3-44.1,9.1c3.7-8.5,3.6-17.2,2.5-24c-0.6-4-1.7-7.9-3.2-11.6
	c0,0,35.1-27.8,33.1-5.1c-0.5,4.9-0.2,9.8,1,14.6C653.6,327.9,661.3,332.9,661.3,332.9z"/>
<path opacity="0.1" d="M650.5,315.9c-6.7,5.4-15.7,7.3-24,5c-2.4-0.6-4.7-1.6-6.8-2.9c-0.6-4-1.7-7.9-3.2-11.6
	c0,0,35.1-27.8,33.1-5.1C649,306.2,649.4,311.1,650.5,315.9z"/>
<ellipse transform="matrix(0.26 -0.9656 0.9656 0.26 185.7797 829.3142)" fill="#DB8B8B" cx="634" cy="293.4" rx="27" ry="27"/>
<path opacity="0.1" d="M620.4,280.3c-3,1.9-7,0.9-8.9-2.1c0-0.1-0.1-0.2-0.1-0.2c-0.4-0.7-0.5-1.5-0.5-2.2c0.2-1.7,2-2.8,3-4.3
	c1.6-2.3,1.3-5.5,2.5-8.1c0.8-1.6,2-3,3.4-4c5.9-4.6,13.7-6.2,21-4.1c2.9,1,5.7,2.2,8.3,3.8c7.5,4.3,14.9,9.5,19,17.2
	c0.8,1.4,1.3,3,1.5,4.6c0,1.7-0.3,3.5-0.9,5.1c-1.5,4.5-3.6,8.7-6.2,12.7c-0.9-1.1-2-2-3.2-2.6c-1.3-0.6-2.8-0.3-3.8,0.7
	c-0.9,1.1-1.4,3.2-2.7,2.7c-0.9-0.3-0.8-1.5-0.8-2.4c0.2-4-2-7.8-4.9-10.5s-6.6-4.5-10.1-6.2c-2.6-1.3-6-4.1-8.8-4.7
	C624.5,274.9,622.9,278.7,620.4,280.3z"/>
<path fill="#472727" d="M620.8,278.9c-3,1.9-7,0.9-8.9-2.1c0-0.1-0.1-0.2-0.1-0.2c-0.4-0.7-0.5-1.5-0.5-2.2c0.2-1.7,2-2.8,3-4.3
	c1.6-2.3,1.3-5.5,2.5-8.1c0.8-1.6,2-3,3.4-4c5.9-4.6,13.7-6.2,21-4.1c2.9,1,5.7,2.2,8.3,3.8c7.5,4.3,14.9,9.5,19,17.2
	c0.8,1.4,1.3,3,1.5,4.6c0,1.7-0.3,3.5-0.9,5.1c-1.5,4.5-3.6,8.7-6.2,12.7c-0.9-1.1-2-2-3.2-2.6c-1.3-0.6-2.8-0.3-3.8,0.7
	c-0.9,1.1-1.4,3.2-2.7,2.7c-0.9-0.3-0.8-1.5-0.8-2.4c0.2-4-2-7.8-4.9-10.5s-6.6-4.5-10.1-6.2c-2.6-1.3-6-4.1-8.8-4.7
	C624.9,273.6,623.3,277.3,620.8,278.9z"/>
<path fill="#DDE0E4" d="M634.9,336.4c0,0,21.4-4.2,22.3-7.6l24.5,17.3c0,0,14.7,16.5,7.2,41.7c0,0-6.1,52.9-18,72.5
	s-18.8,45.1-35.1,51c0,0-15.7-10.1-20.9-10c0,0,26.6-38.5,27.7-53.7s13.3-38.4,10.6-53.1l-36,111.9c0,0-58-9-63.9-28.2
	c0,0,5-7.5,4.1-15.1s21.9-64.9,21.9-64.9l10.9-59.7c0,0,21.6-15.1,30.2-11.2C620.4,327.2,618.8,334.7,634.9,336.4z"/>
<g opacity="0.1">
	<path d="M642.7,290L642.7,290c-5.3-7.2-15.3-1.3-17-0.3l-2.6-0.3c-2.3-2.5-9.2-9-15.7-4.2l-0.3,0.2l-0.4,9.2l0.3,0.2
		c1.9,1.5,4,2.5,6.3,3.2c1.4,0.4,3,0.5,4.4,0.2c2.2-0.5,4.1-2,5.1-4l1.3,0.1l1-0.2c0.4,2.2,1.7,4,3.6,5.1c4.5,2.5,11,0,11.3,0
		l0.3-0.1l2.4-8.9L642.7,290z M639.3,298.1c-1.3,0.5-6.3,1.9-9.7,0c-1.7-1.1-2.8-2.9-3-4.9l-0.1-0.7l-2.2,0.5l-2.2-0.1l-0.2,0.4
		c-0.8,1.8-2.4,3.2-4.4,3.7c-3.8,0.8-8.1-2.1-9.3-2.9l0.3-7.8c5.7-3.8,11.9,2.4,13.7,4.4l0.2,0.2l3.7,0.4l0.2-0.1
		c0.1-0.1,9.2-6.1,14.3-1.2c0.3,0.2,0.5,0.5,0.7,0.8L639.3,298.1z"/>
	<path d="M659.1,294.7l-17-1.4l-1.4-0.3l0.6-2.4c-0.2-0.3-0.5-0.5-0.7-0.8l2.1,0.2l13.9,1.4L659.1,294.7z"/>
</g>
<path fill="#472727" d="M642.9,289.4L642.9,289.4c-5.3-7.2-15.3-1.3-17-0.3l-2.6-0.3c-2.3-2.5-9.2-9-15.7-4.2l-0.3,0.2l-0.4,9.2
	l0.3,0.2c1.9,1.5,4,2.5,6.3,3.2c1.4,0.4,3,0.5,4.4,0.2c2.2-0.5,4.1-2,5.1-4l1.3,0.1l1-0.2c0.4,2.2,1.7,4,3.6,5.1
	c4.5,2.5,11,0,11.3,0l0.3-0.1l2.4-8.9L642.9,289.4z M639.5,297.5c-1.3,0.5-6.3,1.9-9.7,0c-1.7-1.1-2.8-2.9-3-4.9l-0.1-0.7l-2.2,0.5
	l-2.2-0.1l-0.2,0.4c-0.8,1.9-2.4,3.2-4.4,3.7c-3.8,0.8-8.1-2.1-9.3-2.9l0.3-7.8c5.7-3.8,11.9,2.4,13.7,4.4l0.2,0.2l3.7,0.4l0.2-0.1
	c0.1-0.1,9.2-6.1,14.3-1.2c0.3,0.2,0.5,0.5,0.7,0.8L639.5,297.5z"/>
<path fill="#472727" d="M659.2,294l-16.9-1.4l-1.4-0.3l0.6-2.4c-0.2-0.3-0.5-0.5-0.7-0.8l2.1,0.2l13.9,1.4L659.2,294z"/>
<rect x="246.2" y="399.3" fill="#6F7D95" width="296.9" height="119.8"/>
<ellipse fill="#4B5C7A" cx="382.1" cy="506.9" rx="82.9" ry="90.7"/>
<ellipse opacity="5.000000e-02" cx="382.1" cy="506.9" rx="82.9" ry="90.7"/>
<ellipse fill="#4B5C7A" cx="400.5" cy="506.9" rx="82.9" ry="90.7"/>
<circle opacity="5.000000e-02" cx="398.6" cy="507.3" r="36.8"/>
<circle fill="none" stroke="#6F7D95" stroke-width="2" stroke-miterlimit="10" cx="398.6" cy="507.3" r="11"/>
<circle fill="#6F7D95" cx="398.6" cy="488" r="2.8"/>
<circle fill="#6F7D95" cx="413.7" cy="493.3" r="2.8"/>
<circle fill="#6F7D95" cx="419.4" cy="508.3" r="2.8"/>
<circle fill="#6F7D95" cx="411.5" cy="522.3" r="2.8"/>
<circle fill="#6F7D95" cx="395.7" cy="525.2" r="2.8"/>
<circle fill="#6F7D95" cx="383.4" cy="515.1" r="2.8"/>
<circle fill="#6F7D95" cx="383.2" cy="499" r="2.8"/>
<path fill="#FF4D52" d="M995.8,436.8L995.8,436.8c-2.8,19.5-10.7,40.9-10.7,40.9c0.1-1.3,0.1-2.7,0.1-4c0-1.7,0-3.3,0-5
	c-1-53.9-30.3-87.1-49.3-103c-4.9-4.2-10.2-7.9-15.8-11.2h51.4c0,0,20.2,41.3,24.5,61.6C997.2,421.9,996.9,429.2,995.8,436.8z"/>
<path opacity="5.000000e-02" d="M995.8,436.8L995.8,436.8c-2.8,19.5-10.7,40.9-10.7,40.9c0.1-1.3,0.1-2.7,0.1-4c0-1.7,0-3.3,0-5
	c-1-53.9-30.3-87.1-49.3-103c-4.9-4.2-10.2-7.9-15.8-11.2h51.4c0,0,20.2,41.3,24.5,61.6C997.2,421.9,996.9,429.2,995.8,436.8z"/>
<ellipse fill="#4B5C7A" cx="908.1" cy="438.6" rx="63" ry="69"/>
<ellipse opacity="5.000000e-02" cx="908.1" cy="438.6" rx="63" ry="69"/>
<ellipse fill="#4B5C7A" cx="922.1" cy="438.6" rx="63" ry="69"/>
<circle opacity="5.000000e-02" cx="920.7" cy="438.9" r="28"/>
<circle fill="none" stroke="#6F7D95" stroke-width="2" stroke-miterlimit="10" cx="920.7" cy="438.9" r="8.4"/>
<circle fill="#6F7D95" cx="920.7" cy="424.2" r="2.1"/>
<ellipse transform="matrix(0.766 -0.6428 0.6428 0.766 -57.2002 699.3661)" fill="#6F7D95" cx="932.1" cy="428.3" rx="2.1" ry="2.1"/>
<ellipse transform="matrix(0.1736 -0.9848 0.9848 0.1736 340.8235 1285.5345)" fill="#6F7D95" cx="936.4" cy="439.7" rx="2.1" ry="2.1"/>
<ellipse transform="matrix(0.866 -0.5 0.5 0.866 -100.4924 525.5484)" fill="#6F7D95" cx="930.4" cy="450.3" rx="2.1" ry="2.1"/>
<circle fill="#6F7D95" cx="918.5" cy="452.5" r="2.1"/>
<ellipse transform="matrix(0.9397 -0.342 0.342 0.9397 -97.3025 337.7347)" fill="#6F7D95" cx="909" cy="444.8" rx="2.1" ry="2.1"/>
<ellipse transform="matrix(0.5 -0.866 0.866 0.5 79.8284 1003.4579)" fill="#6F7D95" cx="908.9" cy="432.6" rx="2.1" ry="2.1"/>
<path fill="#FF4D52" d="M46.7,516.2l-7.6-59.9h90.2l46.4,41.3L153,550.7C153,550.7,61.1,535.6,46.7,516.2z"/>
<path opacity="5.000000e-02" d="M175.8,497.6L153,550.7c0,0-91.9-15.2-106.3-34.6l-0.3-2.6l-7-55.4l-0.1-0.5l-0.2-1.3h90.2
	L175.8,497.6z"/>
<path fill="#7597CE" d="M549.4,272.4v19.4c0,0-46.6,38-57.7,73.9c-1.9,5.8-2.7,12-2.2,18.1c4.2,39.6-121.4-32.1-121.4-32.1l5.6-2.7
	C402.6,335,534.4,271.6,549.4,272.4z"/>
<path fill="#FF4D52" d="M655.7,366c0,0,43.7-21.5,50.7-37.3c0.9-2.1,1.8-4.3,2.9-6.4c4.3-8.7,13.4-29.1,8.8-39
	c-5.9-12.6,14.3,1.7,14.3,1.7l-11.8,59.9l-28.7,16l-37.1,5.1"/>
<path opacity="5.000000e-02" d="M655.7,366c0,0,43.7-21.5,50.7-37.3c0.9-2.1,1.8-4.3,2.9-6.4c4.3-8.7,13.4-29.1,8.8-39
	c-5.9-12.6,14.3,1.7,14.3,1.7l-11.8,59.9l-28.7,16l-37.1,5.1"/>
<path opacity="5.000000e-02" d="M175.8,497.6L153,550.7c0,0-91.9-15.2-106.3-34.6l-0.3-2.6c0.4-0.2,0.8-0.5,1.2-0.8
	c0,0,27.8,21.9,91.1,27c0,0,38-30.4-23.6-64.1c0,0-53.6,1.7-75.7-17.5l-0.2-0.2l0.2-0.3c0.1-0.3,0.4-0.7,0.7-1.3h89.4L175.8,497.6z"
	/>
<path opacity="5.000000e-02" d="M489.5,383.7c4.2,39.6-121.4-32.1-121.4-32.1l5.6-2.7c3.7,3.9,18.5,17.2,48,15.8
	c19-0.9,47.9-0.1,70.1,0.9C489.8,371.5,489,377.6,489.5,383.7z"/>
<path opacity="5.000000e-02" d="M543.1,399.3v119.8h-55.2c3.6-27.9,1.5-68.5-33.8-91.8c-26.9-17.6-61.4-18.6-89.3-2.7
	c-23.2,13.2-49.1,40.2-65.6,94.4h-53V399.3H543.1z"/>
<path opacity="5.000000e-02" d="M995.8,436.8L995.8,436.8c-2.1,13.2-5.4,26.1-10.6,37c-0.7,1.5-1.4,2.9-2.2,4.3
	c0.1-0.5,1.1-3.9,2.2-9.3c5.4-26.2,14.5-98.7-46.9-102.8c-0.8,0-1.6-0.1-2.4-0.1c-4.9-4.2-10.2-8-15.8-11.2h51.4
	c0,0,20.2,41.3,24.5,61.6C997.2,421.9,996.9,429.2,995.8,436.8z"/>
<path fill="#FF4D52" d="M984.7,477.3c0.8-2.9,29.3-107.1-44.7-112.1c-75.1-5.1-84.3,51.5-92.8,128.2c0,0-237,17.7-364.4,54.8
	c0,0,30.6-83.8-27-121.7c-26.9-17.6-61.4-18.6-89.3-2.7c-28.4,16.2-60.9,53-75.2,135.3H149.6c0,0-27,1.7-36.3-11
	c0,0-38,0.8-61.6-19.4c0,0-25.3-5.1-5.1-17.7c0,0,28.7,21.9,91.9,27c0,0,38-30.4-23.6-64.1c0,0-54,1.7-75.9-17.7
	c0,0,7.7-15.9,25.2-35.2c24-26.4,54.6-46,88.6-56.7c22.9-7.1,46.8-10.5,70.9-10.2l148.9-4.6c0,0,14.4,18.6,48.9,16.9
	s102.1,2.5,102.1,2.5h0.7l138.9-6.3c4-0.6,7.9-1.4,11.8-2.5c20.1-5.5,58.3-22.1,51.5-68.4L945,305.3c8.2,0.4,16.4,1.5,24.4,3.5
	c11.2,2.9,21.5,8.1,18.6,17.6c-5.9,19.4,10.1,21.9,10.1,21.9s0.3,2.6,0.8,7.1C1000.9,376.6,1004.8,440.4,984.7,477.3z"/>
<path opacity="5.000000e-02" d="M316.6,384.6c0,0-91.1,0.8-151,54h33.7c0,0,94.5-24.5,117.2-43.9L316.6,384.6z"/>
<path fill="#FFEC9F" d="M315.8,383.7c0,0-91.1,0.8-151,54h33.7c0,0,94.5-24.5,117.2-43.9L315.8,383.7z"/>
<path opacity="5.000000e-02" d="M153.8,365.3v22.7l-76.7,35.4l-11.9-1.4C89.2,395.5,119.8,376,153.8,365.3z"/>
<path fill="#FFEC9F" d="M153,364.4v22.7l-76.8,35.4l-11.9-1.4C88.3,394.7,118.9,375.1,153,364.4z"/>
<path fill="none" d="M261.8,467.2c0,0-41.3,25.3-45.5,81h23.6c0,0,9.3-60.7,36.3-81H261.8z"/>
<path opacity="5.000000e-02" d="M261.8,467.2c0,0-41.3,25.3-45.5,81h23.6c0,0,9.3-60.7,36.3-81H261.8z"/>
<path fill="none" d="M750.2,468.9l-214.2,25.3c0,0-14.2-90.2-11.5-125.3l138.9-6.3c4-0.6,7.9-1.4,11.8-2.5v8.4l104.6-25.3
	C779.7,343.2,797.4,369.4,750.2,468.9z"/>
<path opacity="5.000000e-02" d="M750.2,468.9l-214.2,25.3c0,0-14.2-90.2-11.5-125.3l138.9-6.3c4-0.6,7.9-1.4,11.8-2.5v8.4
	l104.6-25.3C779.7,343.2,797.4,369.4,750.2,468.9z"/>
<path fill="#FF4D52" d="M726.5,267.3c0,0,45.5-5.9,65.8,32.9l-65.1-2.5L726.5,267.3z"/>
<path fill="none" d="M789.2,313.8c-1.8,5.6-0.4,11.8,9.9,16c8.6,3.6,18.8-0.6,21.7-9.4c1.7-5.2,0.5-11-8.8-15.8
	S792.3,304,789.2,313.8z"/>
<path opacity="5.000000e-02" d="M789.2,313.8c-1.8,5.6-0.4,11.8,9.9,16c8.6,3.6,18.8-0.6,21.7-9.4c1.7-5.2,0.5-11-8.8-15.8
	S792.3,304,789.2,313.8z"/>
<path fill="none" stroke="#FF4D52" stroke-miterlimit="10" d="M40.7,468.9c0,0,54.1,28,92.9,17.4"/>
<path fill="none" stroke="#FF4D52" stroke-miterlimit="10" d="M42.6,484c0,0,34.9,26.9,105.5,20.7"/>
<path fill="none" stroke="#FF4D52" stroke-miterlimit="10" d="M44.2,496.7c0,0,34.7,30.1,105.9,20.5"/>
<path opacity="5.000000e-02" d="M789.7,295.7c0,0-28.2,24.3-53.9,35.3C735.8,331,774.9,338,789.7,295.7z"/>
<path opacity="0.1" d="M491.2,367.3c0,0,133.7,12.6,184.3,0.8c0,0,2.7,1.8-13.4-5.4L491.2,367.3z"/>
<path opacity="5.000000e-02" d="M998.9,355.4c-8.3-5.5-21.5-16.8-19.7-29.5c0.9-6.3-3.6-12.2-9.7-17.2c11.2,2.9,21.5,8.1,18.6,17.6
	c-5.9,19.4,10.1,21.9,10.1,21.9S998.5,350.9,998.9,355.4z"/>
<linearGradient id="SVGID_3_" gradientUnits="userSpaceOnUse" x1="229.4626" y1="110.4417" x2="229.4626" y2="669.5219" gradientTransform="matrix(1 0 0 -1 16.25 827.89)">
	<stop  offset="0" style="stop-color:#808080;stop-opacity:0.25"/>
	<stop  offset="0.54" style="stop-color:#808080;stop-opacity:0.12"/>
	<stop  offset="1" style="stop-color:#808080;stop-opacity:0.1"/>
</linearGradient>
<path fill="url(#SVGID_3_)" d="M326.8,443.4c0.1-3.3,0-6.8-0.2-10c0-0.6-0.1-1.2-0.2-1.8c1.9,1.4,3,2.5,3,2.5l-1.6-86.8l-9.1-45.5
	c0-32.3-17.4-41.4-17.4-41.4s-9.1-4.1-11.6-9.9s-24.5-18-24.5-18c-0.2-2.1-0.2-4.2-0.2-6.3c0-0.5,0-1.1,0-1.7
	c11.4-7.6,15.4-22.4,9.5-34.7c1.2,0,2.2-0.5,2.7-2.3c1.5-5.7,0-14.4-3.3-18.9c-0.7-1-1.5-1.8-2.4-2.6c-1-1-2.1-2-3.2-2.9
	c-2.8-2.4-6-4.8-9.5-4.6c-2,0.3-3.9,0.9-5.6,2c-8.8,4.6-17.6,9.3-26.3,14c-3.2,1.8-6.6,3.6-8.8,6.7s-3.2,7.2-3.8,11.1
	c-0.5,2.7-0.7,5.4-0.4,8.1c0.3,2.5,1.4,4.8,3.2,6.5c0.4,0.4,0.8,0.8,1.2,1.2c1.8,1.3,4.1,1.6,5.9,2.7c1.4,4.1,3.8,7.8,6.9,10.8
	c0,0.5-0.1,1-0.1,1.6c-0.1,1.4-0.3,3-0.5,4.6l0,0c0,0-6.1-0.2-15.2,12.2s-29,14.1-29,14.1s-7.4-3.3-15.7,33.9s-10.8,62-6.6,66.2
	c1.8,1.5,3.7,2.7,5.9,3.7c7,3.5,14.6,5.9,22.3,7c0.1,0.3,0.3,0.6,0.5,0.8l0.6,7.2l0,0c0.5,15.2,1.1,45.8-2,52.5
	c-4.1,9.1,0.8,14.9,0.8,14.9l1-0.1c0.2,0.3,0.4,0.6,0.6,0.9l4-0.3c-0.3,17-1.1,40.6-3.1,45.8c-3.3,8.3,0,53.8,0,53.8l-5.8,81.9
	c0,0-3.2,42.7-0.2,47.7c-1.6,8.9-4.5,25.8-3.9,30c0.8,5.8,19.9,14.1,19.9,14.1s22.3,5,33.1,3.3c5.6-0.9,7.9-4.7,7.9-8
	c7.3,1.2,16.8,2.3,22.7,1.4c10.8-1.7,9.1-14.1,3.3-13.2s-12.4-10.8-17.3-16.6c-2.5-2.9-4.6-8.1-6-12.6c1-0.2,2-0.7,2.7-1.5
	c2.5-4.1,6.6-42.2,6.6-42.2l10.8-66.2c0,0,5.8-32.3,10.8-39.7c3.8-5.6,8.4-47.6,10.5-67.8h0.2h0.1l0.2-0.7l3.1-10
	c1.7,2.9,5.8,4.4,10.7,5c-0.5,2.1-1,3.9-1.2,4.8c-1.2,5,16.8,13.2,21.2,9.1c1.8-1.7,2.8-8,3-14.9h0.1L326.8,443.4z M218.2,669
	c-0.3,1.6-0.6,3.3-0.8,5c-0.6-2-1.1-3.8-1.5-5.1C216.7,668.9,217.4,668.9,218.2,669z"/>
<path fill="#53526B" d="M245.9,651.7c0,0,3.2,14.3,8,19.9s11.1,16.7,16.7,15.9s7.2,11.2-3.2,12.7s-31.9-3.2-31.9-3.2
	s-18.3-8-19.1-13.5s4.8-34.2,4.8-34.2L245.9,651.7z"/>
<path opacity="5.000000e-02" d="M245.9,651.7c0,0,3.2,14.3,8,19.9s11.1,16.7,16.7,15.9s7.2,11.2-3.2,12.7s-31.9-3.2-31.9-3.2
	s-18.3-8-19.1-13.5s4.8-34.2,4.8-34.2L245.9,651.7z"/>
<path fill="#53526B" d="M216.4,658.1c0,0,3.2,14.3,8,19.9s11.1,16.7,16.7,15.9s7.2,11.2-3.2,12.7s-31.9-3.2-31.9-3.2
	s-18.3-8-19.1-13.5s4.8-34.2,4.8-34.2L216.4,658.1z"/>
<path fill="#5F5D7E" d="M288.9,439.9c0,0-6.4,68.5-11.1,75.7s-10.4,38.2-10.4,38.2L257,617.5c0,0-4,36.6-6.4,40.6
	s-31.9,2.3-31.9,2.3l18.3-210.9L288.9,439.9z"/>
<path opacity="5.000000e-02" d="M288.9,439.9c0,0-6.4,68.5-11.1,75.7s-10.4,38.2-10.4,38.2L257,617.5c0,0-4,36.6-6.4,40.6
	s-31.9,2.3-31.9,2.3l18.3-210.9L288.9,439.9z"/>
<path fill="#5F5D7E" d="M301.6,407.2l-2.1,6.6l-11.2,35.7l-0.2,0.7H288c-1.5,0.3-33.4,7.7-40.3,9.9c-0.4,0.1-0.7,0.3-1.1,0.4
	c-3.2,1.6-7.2,58.9-7.2,58.9s-2.4,54.2-4,58.1s-8,86-12,83.6s-32.6,0-32.6,0c-3.2-3.2,0-46.2,0-46.2l5.6-78.8c0,0-3.2-43.8,0-51.8
	s3.2-61.3,3.2-61.3l65.2-10.1l6.3-1L301.6,407.2z"/>
<path opacity="2.000000e-02" d="M299.6,413.8l-11.2,35.7l-0.3,0.7c-1.5,0.3-33.4,7.7-40.3,9.9h-0.7l17.8-47.2l0.5-1.4l5.8,0.4
	L299.6,413.8z"/>
<path opacity="0.1" d="M225.2,248c0,0,29.5,31.9,47.8,5.6l17.5,12l-3.2,18.3l10.4,138.6c0,0-27.1-0.8-46.2,5.6
	c-10.9,3.9-23,1.1-31.1-7.2l3.2-121.9l-7.2-37.4L225.2,248z"/>
<path fill="#53526B" d="M225.2,245.6c0,0,29.5,31.9,47.8,5.6l17.5,12l-3.2,18.3L297.7,420c0,0-27.1-0.8-46.2,5.6
	c-10.9,3.9-23,1.1-31.1-7.2l3.2-121.9l-7.2-37.4L225.2,245.6z"/>
<g id="_x33_7ab880d-f64d-47ff-bc41-44a88d46e9d6">
	<g id="_x37_38c7584-cfdc-46df-a1d6-157774876219">
		<polyline id="_x31_360335b-f9b9-41f4-b547-721f530fb53c" fill="#E82127" points="284,387.4 284,392.5 285.6,392.5 285.6,389.1 
			291.5,389.1 291.5,392.5 293.1,392.5 293.1,387.5 284,387.4 		"/>
		<path id="_x33_7b4067c-1094-4318-a4b4-d5befe986a46-70" fill="#E82127" d="M285.4,385.8h6.2c0.8-0.2,1.5-0.8,1.7-1.7h-9.5
			C284,385,284.6,385.6,285.4,385.8"/>
	</g>
	<g id="b91f5cfc-1188-4bfc-a136-ce6baaf8b578">
		<path id="_x39_b1d3f19-25bc-4746-b3d7-b512ea849071-71" fill="#E82127" d="M279.1,392.5c0.7-0.3,1.2-0.9,1.4-1.6h-7.2v-6.7h-1.6
			v8.3H279.1"/>
	</g>
	<g id="f0b6def0-0db1-4d42-9c72-3add6bcfec75">
		<path id="_x35_9d3ad5d-2751-4b97-aa01-2f0d04d81291-72" fill="#E82127" d="M259.7,385.8h5.7c0.8-0.2,1.5-0.8,1.8-1.6h-9.1v4.9h7.4
			v1.7h-5.8c-0.9,0.2-1.7,0.8-2.1,1.7h9.5v-5h-7.4L259.7,385.8"/>
	</g>
	<g id="f5aa069e-af4a-4185-a9be-44f8314aa55d">
		<path id="_x38_469b87d-9cfc-4cf5-b98a-e8d4cd900d09-73" fill="#E82127" d="M245.6,385.8h6.2c0.8-0.2,1.5-0.8,1.7-1.7H244
			C244.2,385,244.8,385.6,245.6,385.8"/>
		<path id="_x38_4ef8e86-997e-480d-b1fa-ac0f245eaf0f-74" fill="#E82127" d="M245.6,389.1h6.2c0.8-0.2,1.5-0.8,1.7-1.7H244
			C244.2,388.3,244.8,388.9,245.6,389.1"/>
		<path id="dccfde93-1eb8-4437-b458-7de4f8c559a0-75" fill="#E82127" d="M245.6,392.5h6.2c0.8-0.2,1.5-0.8,1.7-1.7H244
			C244.2,391.6,244.8,392.3,245.6,392.5"/>
	</g>
	<g id="a108f4b8-96c8-4218-b56b-5c89101c02c8">
		<path id="b75889ef-9b37-4c0c-a9df-261161e8d369-76" fill="#E82127" d="M229.6,384.2c0.2,0.8,0.9,1.4,1.7,1.6h2.6l0.1,0v6.6h1.6
			v-6.6l0.1,0h2.6c0.8-0.2,1.4-0.8,1.7-1.6l0,0H229.6L229.6,384.2"/>
	</g>
</g>
<g id="_x32_bbf1d6e-b78e-4014-bfd9-2e859831827e">
	<path id="_x38_38b4d4a-faf1-4893-a58e-72a43d116e4d-77" fill="#E82127" d="M261.4,367.8l8.1-45.6c7.7,0,10.2,0.9,10.5,4.3
		c0,0,5.2-1.9,7.8-5.9c-6.5-2.9-13.4-4.6-20.5-5l-6,7.3l0,0l-6-7.3c-7.1,0.4-14,2.1-20.5,5c2.6,3.9,7.8,5.9,7.8,5.9
		c0.4-3.5,2.8-4.3,10.5-4.3L261.4,367.8"/>
	<path id="_x34_f686364-9558-435c-bd24-bcbef2ccf88c-78" fill="#E82127" d="M261.4,313.5c9.4-0.1,18.7,1.8,27.4,5.5
		c0.6-1.1,1.2-2.2,1.6-3.4c-18.6-7.5-39.4-7.5-58,0c0.5,1.2,1,2.3,1.7,3.4C242.7,315.3,252,313.4,261.4,313.5L261.4,313.5"/>
</g>
<path fill="#D39999" d="M286.5,410.4c0,0,0,20.7,4.8,29.5s32.6,4,32.6,4l-5.6-29.5L286.5,410.4z"/>
<path fill="#FDC2CC" d="M320.9,458.2c-4.2,4-21.6-4-20.4-8.8c0.8-3.4,3.8-15.4,5.5-22.3l1.2-4.8c0,0,10.2-3.2,13.8,0
	c1.3,1.2,2.2,5.7,2.7,11.2C324.3,443.2,323.6,455.7,320.9,458.2z"/>
<path fill="#FDC2CC" d="M282.5,259.9l-27.9,21.5c0,0-41.4-2.4-31.1-22.3c4.5-8.8,7.2-18.3,8-28.1c0.3-3.6,0.3-7.3,0-10.9
	c0,0,38.2-35,33.5,4.8c-0.4,3.1-0.6,6.1-0.7,9.2C263.8,263.9,282.5,259.9,282.5,259.9z"/>
<path opacity="0.1" d="M265,224.9c-0.4,3.1-0.6,6.1-0.7,9.2c-4.3,2.8-9.3,4.4-14.5,4.3c-7.1,0-12.4-6.9-17.1-11.5
	c0.5-6.6-1.2-6.8-1.2-6.8S269.8,185,265,224.9z"/>
<ellipse transform="matrix(0.1602 -0.9871 0.9871 0.1602 2.0384 423.4348)" fill="#FDC2CC" cx="249.9" cy="210.5" rx="26.3" ry="26.3"/>
<path opacity="0.1" d="M231.2,235.6c0,0-4.4,0.4-13.1,12.3s-27.9,13.5-27.9,13.5s-7.2-3.2-15.1,32.6s-10.4,59.7-6.4,63.7
	s19.9,9.6,27.9,9.6c0,0,2.4,50.2-1.6,58.9s0.8,14.3,0.8,14.3l35-2.4c0,0,12-15.1,14.3-41.4s10.4-101.1,6.4-109.9
	s-21.5-31.1-20.7-33.5S231.2,235.6,231.2,235.6z"/>
<path fill="#D39999" d="M231.1,235.4c0,0-5.9-0.2-14.6,11.8s-27.9,13.5-27.9,13.5s-7.2-3.2-15.1,32.6s-10.4,59.7-6.4,63.7
	s19.9,9.6,27.9,9.6c0,0,2.4,50.2-1.6,58.9s0.8,14.3,0.8,14.3l35-2.4c0,0,12-15.1,14.3-41.4s10.4-101.1,6.4-109.9
	s-21.5-31.1-20.7-33.5S231.1,235.4,231.1,235.4z"/>
<path fill="#FDC2CC" d="M210.1,337.9c0,0,39.9-45.7,34.2-14.3c-4,22.3-19.1,34.2-26.3,36.6S210.1,337.9,210.1,337.9z"/>
<path opacity="0.1" d="M323.6,433.6c-3.8-2.9-11-7.4-17.6-6.4l1.2-4.8c0,0,10.2-3.2,13.8,0C322.2,423.5,323.1,428.1,323.6,433.6z"/>
<path opacity="0.1" d="M264.6,240.4c0,0,20.3,13.1,22.7,18.7s11.1,9.6,11.1,9.6s16.7,8.8,16.7,39.8l8.8,43.8L284.1,408
	c0,0-4.8-55.8-7.2-69.3s-5.6-39-5.6-39s-12-15.1-10.4-19.1S264.6,240.4,264.6,240.4z"/>
<path fill="#D39999" d="M264.5,240.1c0,0,21.2,11.8,23.6,17.4s11.2,9.5,11.2,9.5s16.7,8.8,16.7,39.8l8.8,43.8l1.6,83.6
	c0,0-14.3-13.5-24.7-7.2s-16.7-20.7-16.7-20.7s-4.8-55.8-7.2-69.3s-5.6-39-5.6-39S260.2,283,261.8,279S264.5,240.1,264.5,240.1z"/>
<path opacity="0.1" d="M272.9,178.6c-1.3-1.7-2.9-3.3-4.6-4.6c-2.7-2.3-5.8-4.7-9.2-4.5c-1.9,0.3-3.8,0.9-5.4,1.9
	c-8.5,4.5-16.9,9-25.3,13.5c-3.1,1.7-6.3,3.5-8.5,6.5s-3,6.9-3.7,10.7c-0.5,2.6-0.6,5.2-0.4,7.8c0.2,2.6,1.5,4.9,3.5,6.6
	c2.3,1.6,5.4,1.7,7.3,3.8c1.1,1.2,1.6,3,2.4,4.5s2.1,3,3.7,2.7s2.5-1.9,2.7-3.5c0.1-1.7,0-3.4-0.3-5c-0.3-3,0.1-6.2,1.8-8.4
	c1.2-1.5,2.9-2.4,4.1-4c2.8-3.8,1.5-10,4.6-13.5c1.8-1.9,4.5-2.6,7-2c2.5,0.5,4.7,1.9,7,3c3.1,1.5,6.3,2.8,9.6,3.7
	c2.8,0.8,6,2.6,7-1.1C277.5,191.3,276.1,183,272.9,178.6z"/>
<path fill="#865A61" d="M272.1,177.8c-1.3-1.7-2.9-3.3-4.6-4.6c-2.7-2.3-5.8-4.7-9.2-4.5c-1.9,0.3-3.8,0.9-5.4,1.9
	c-8.5,4.5-15.5,0.2-25.3,13.5c-2.1,2.8-6.3,3.5-8.5,6.5s-3,6.9-3.7,10.7c-0.5,2.6-0.6,5.2-0.4,7.8c0.2,2.6,1.5,4.9,3.5,6.6
	c2.3,1.6,5.4,1.7,7.3,3.8c1.1,1.2,1.6,3,2.4,4.5s2.1,3,3.7,2.7s2.5-1.9,2.7-3.5c0.1-1.7,0-3.4-0.3-5c-0.3-3,0.1-6.2,1.8-8.4
	c1.2-1.5,2.9-2.4,4.1-4c2.8-3.8,1.5-10,4.6-13.5c1.8-1.9,4.5-2.6,7-2c2.5,0.5,4.7,1.9,7,3c3.1,1.5,6.3,2.8,9.6,3.7
	c2.8,0.8,6,2.6,7-1.1C276.7,190.5,275.3,182.2,272.1,177.8z"/>
<path fill="#D39999" d="M200.5,295.7c0,0-0.8,29.5-4.8,33.5s2.4,8.8,2.4,8.8l15.9-4c0,0-4,26.3,12.7,23.1c0,0-11.1,10.4-22.3,12
	s-10.4-2.4-10.4-2.4l-16.7-19.9L200.5,295.7z"/>
<path opacity="0.1" d="M200.4,299.3c0,0-10.6,27.1-2.6,38.2l17.5-4c0,0-15.9,4.8-13.5-4.8S200.4,299.3,200.4,299.3z"/>
<path opacity="0.1" d="M194.5,366.2c0,0,23.1,1.6,29.5-3.2c-8.4,6.4-18.3,10.6-28.8,12L194.5,366.2z"/>
<path opacity="0.1" d="M294.1,315.2c0,0,12,36.6,11.1,42.2s-2.4,66.9-2.4,66.9l-2.4-0.8l0.8-66.9L294.1,315.2z"/>
<path fill="none" stroke="#6C63FF" stroke-miterlimit="10" d="M797.2,418.9c0,0,17.5,34.4,3.2,53.1s1.3,70,1.3,70"/>
<path fill="#399D43" d="M802.4,408.2c0,6.6-4.9,12-4.9,12s-4.9-5.4-4.9-12s4.9-12,4.9-12S802.4,401.5,802.4,408.2z"/>
<path fill="none" stroke="#6C63FF" stroke-miterlimit="10" d="M806.3,418.9c0,0-17.5,34.4-3.2,53.1s-1.3,70-1.3,70"/>
<path fill="#399D43" d="M801.1,408.2c0,6.6,4.9,12,4.9,12s4.9-5.4,4.9-12s-4.9-12-4.9-12S801.1,401.5,801.1,408.2z"/>
<path opacity="0.1" d="M801.1,408.2c0,6.6,4.9,12,4.9,12s4.9-5.4,4.9-12s-4.9-12-4.9-12S801.1,401.5,801.1,408.2z"/>
<path fill="none" stroke="#6C63FF" stroke-miterlimit="10" d="M813.4,418.9c0,0,17.5,34.4,3.2,53.1s1.3,70,1.3,70"/>
<path fill="#399D43" d="M818.6,408.2c0,6.6-4.9,12-4.9,12s-4.9-5.4-4.9-12s4.9-12,4.9-12S818.6,401.5,818.6,408.2z"/>
<path fill="#399D43" d="M815.9,435.7c-4.6,4.8-11.8,5.3-11.8,5.3s0.2-7.2,4.8-12s11.8-5.3,11.8-5.3S820.5,430.9,815.9,435.7z"/>
<path fill="#399D43" d="M816.3,459.4c-4.6,4.8-11.8,5.3-11.8,5.3s0.2-7.2,4.8-12s11.8-5.3,11.8-5.3S820.9,454.6,816.3,459.4z"/>
<path fill="#399D43" d="M791.4,472.4c4.3,5,4.2,12.2,4.2,12.2s-7.2-0.9-11.5-5.9s-4.2-12.2-4.2-12.2S787.1,467.4,791.4,472.4z"/>
<path fill="#399D43" d="M795.5,421.9c5.5,3.7,7.3,10.7,7.3,10.7s-7.2,1.1-12.7-2.5s-7.3-10.7-7.3-10.7S789.9,418.2,795.5,421.9z"/>
<path opacity="0.1" d="M795.5,421.9c5.5,3.7,7.3,10.7,7.3,10.7s-7.2,1.1-12.7-2.5s-7.3-10.7-7.3-10.7S789.9,418.2,795.5,421.9z"/>
<path fill="none" stroke="#6C63FF" stroke-miterlimit="10" d="M822.5,418.9c0,0-17.5,34.4-3.2,53.1s-1.3,70-1.3,70"/>
<path fill="#399D43" d="M817.3,408.2c0,6.6,4.9,12,4.9,12s4.9-5.4,4.9-12s-4.9-12-4.9-12S817.3,401.5,817.3,408.2z"/>
<path opacity="0.1" d="M817.3,408.2c0,6.6,4.9,12,4.9,12s4.9-5.4,4.9-12s-4.9-12-4.9-12S817.3,401.5,817.3,408.2z"/>
<path fill="#399D43" d="M818.7,436.2c-4.7,4.7-5,12-5,12s7.2-0.4,11.9-5.1s5-12,5-12S823.3,431.5,818.7,436.2z"/>
<path opacity="0.1" d="M818.7,436.2c-4.7,4.7-5,12-5,12s7.2-0.4,11.9-5.1s5-12,5-12S823.3,431.5,818.7,436.2z"/>
<path fill="#399D43" d="M827.8,469c-4.7,4.7-5,12-5,12s7.2-0.4,11.9-5.1s5-12,5-12S832.5,464.3,827.8,469z"/>
<path fill="none" stroke="#6C63FF" stroke-miterlimit="10" d="M814.4,461.8c0,0,10.5-16.6,25.3-17"/>
<path fill="none" stroke="#6C63FF" stroke-miterlimit="10" d="M806.2,451.8c0,0-10.5-16.6-25.3-17"/>
<path fill="none" stroke="#6C63FF" stroke-miterlimit="10" d="M804.8,475.5c0,0,10.5-16.6,25.3-17"/>
<circle fill="#399D43" cx="839.2" cy="444.7" r="2.7"/>
<circle fill="#399D43" cx="781.1" cy="434.9" r="2.7"/>
<path fill="none" stroke="#6C63FF" stroke-miterlimit="10" d="M812.6,480.9c0,0-10.5-16.6-25.3-17"/>
<circle fill="#399D43" cx="787.5" cy="464.1" r="2.7"/>
<circle fill="#399D43" cx="830.3" cy="458.6" r="2.7"/>
<path fill="#A8A8A8" d="M870.8,522c0,0-25.4-5.1-32.2-11.8S801.4,491.6,798,500s-45.7,37.3-17,42.3s67.7,6.8,76.2,3.4
	S870.8,522,870.8,522z"/>
<path opacity="0.2" d="M781.1,539.2c28.8,5.1,67.7,6.8,76.2,3.4c6.4-2.6,10.9-15,12.7-20.7l0.8,0.2c0,0-5.1,20.3-13.5,23.7
	s-47.4,1.7-76.2-3.4c-8.3-1.5-10.7-4.9-9.8-9.3C772,535.9,774.9,538.1,781.1,539.2z"/>
<path fill="#399D43" d="M126.4,606.7c0,0,8.4,11-3.9,27.5s-22.4,30.5-18.3,40.8c0,0,18.5-30.7,33.5-31.2S142.9,625.2,126.4,606.7z"
	/>
<path opacity="0.1" d="M126.4,606.7c0.7,1.1,1.3,2.2,1.7,3.4c14.7,17.2,22.5,33.3,8.4,33.7c-13.1,0.4-28.9,23.9-32.7,29.8
	c0.1,0.5,0.3,0.9,0.4,1.3c0,0,18.5-30.7,33.5-31.2S142.9,625.2,126.4,606.7z"/>
<path fill="#FFD037" d="M141.9,620.6c0,3.9-0.4,7-1,7s-1-3.1-1-7s0.5-2,1.1-2S141.9,616.8,141.9,620.6z"/>
<path fill="#FFD037" d="M147.3,625.3c-3.4,1.8-6.3,3-6.6,2.5s2.3-2.3,5.7-4.2s2.1-0.5,2.3,0S150.7,623.4,147.3,625.3z"/>
<path fill="#399D43" d="M82.1,606.7c0,0-8.4,11,3.9,27.5s22.4,30.5,18.3,40.8c0,0-18.5-30.7-33.5-31.2S65.5,625.2,82.1,606.7z"/>
<path opacity="0.1" d="M82.1,606.7c-0.7,1.1-1.3,2.2-1.7,3.4c-14.7,17.2-22.5,33.3-8.4,33.7c13.1,0.4,28.9,23.9,32.7,29.8
	c-0.1,0.5-0.3,0.9-0.4,1.3c0,0-18.5-30.7-33.5-31.2S65.5,625.2,82.1,606.7z"/>
<path fill="#FFD037" d="M66.5,620.6c0,3.9,0.4,7,1,7s1-3.1,1-7s-0.5-2-1.1-2S66.5,616.8,66.5,620.6z"/>
<path fill="#FFD037" d="M61.2,625.3c3.4,1.8,6.3,3,6.6,2.5s-2.3-2.3-5.7-4.2c-3.4-1.8-2.1-0.5-2.3,0S57.8,623.4,61.2,625.3z"/>
<path fill="#A8A8A8" d="M69.2,673.6c0,0,23.4-0.7,30.5-5.8s36-11,37.8-3s35.2,40.1,8.8,40.3s-61.5-4.1-68.5-8.4
	S69.2,673.6,69.2,673.6z"/>
<path opacity="0.2" d="M146.7,702.4c-26.4,0.2-61.5-4.1-68.5-8.4c-5.4-3.3-7.5-15-8.2-20.4h-0.8c0,0,1.5,18.9,8.5,23.2
	s42.1,8.6,68.5,8.4c7.6-0.1,10.3-2.8,10.1-6.8C155.3,700.8,152.4,702.3,146.7,702.4z"/>
</svg>
