<?xml version="1.0" encoding="utf-8"?>
<!-- Generator: Adobe Illustrator 25.0.0, SVG Export Plug-In . SVG Version: 6.00 Build 0)  -->
<svg version="1.1" baseProfile="basic" id="Layer_1"
	 xmlns="http://www.w3.org/2000/svg" xmlns:xlink="http://www.w3.org/1999/xlink" x="0px" y="0px" viewBox="0 0 920.4 560.8"
	 xml:space="preserve">
<rect x="88.4" y="344" fill="#C6C6C6" width="209.8" height="7.7"/>
<rect x="563.4" y="344" fill="#C6C6C6" width="209.8" height="7.7"/>
<rect x="886.4" y="344" fill="#C6C6C6" width="209.8" height="7.7"/>
<path fill="#F2F2F2" d="M1097.5,227.1c-1.9,1-3.7,2.2-5.3,3.7c-1.6-1.5-3.5-2.7-5.4-3.7c-1.9,1-3.7,2.2-5.3,3.7
	c-1.6-1.5-3.5-2.7-5.4-3.7c0,0-8.4,4.1-8.3,9.1c0,0.1,0,0.3,0,0.4c0.3,3.3,8.9,4.1,13.7,2.6c3.5,1,7.2,1,10.8,0
	c4.7,1.6,13.6,0.7,13.8-2.7c0-0.1,0-0.2,0-0.4C1105.9,231.1,1097.5,227.1,1097.5,227.1z"/>
<circle fill="#FF6584" cx="136.7" cy="-124.2" r="36.9"/>
<rect x="264.9" y="98.4" fill="#3F3D56" width="3.6" height="142"/>
<path fill="#399D43" d="M303.6,139.7c0,1.6,0,3.1,0,4.7c-1.3,55.9-68.3,56.2-70.1,0.3c0-1.5-0.1-3.1-0.1-4.7
	C233.1,77.6,268,26.8,268,26.8S303.3,77.2,303.6,139.7z"/>
<path fill="#399D43" d="M360.5,227.8c-1.9,1-3.7,2.2-5.3,3.7c-1.6-1.5-3.5-2.7-5.4-3.7c-1.9,1-3.7,2.2-5.3,3.7
	c-1.6-1.5-3.5-2.7-5.4-3.7c0,0-8.4,4.1-8.3,9.1c0,0.1,0,0.3,0,0.4c0.3,3.3,8.9,4.1,13.7,2.6c3.5,1,7.2,1,10.8,0
	c4.7,1.6,13.6,0.7,13.8-2.7c0-0.1,0-0.2,0-0.4C368.9,231.9,360.5,227.8,360.5,227.8z"/>
<polygon fill="#3F3D56" points="461.1,178.8 456.6,171.3 498.2,103.4 605.1,103.4 605.1,113.8 566.5,187.7 521.9,196.6 "/>
<polygon fill="#CCCCCC" points="623.5,156.6 623.5,101.1 609.5,101.1 609.5,108.4 605.1,103.4 569.5,171.3 563.5,177.3 556.1,207 
	569.5,239.6 637.8,239.6 637.8,172.8 "/>
<rect x="456.6" y="171.3" fill="#F2F2F2" width="112.8" height="68.3"/>
<rect x="530.1" y="192.9" fill="#3F3D56" width="23.8" height="20.8"/>
<rect x="499.7" y="192.1" fill="#CCCCCC" width="20.8" height="47.5"/>
<polygon fill="#3F3D56" points="475.9,199.5 475.9,192.1 467,192.1 467,199.5 475.2,199.5 "/>
<polygon fill="#3F3D56" points="475.2,205.5 467,205.5 467,212.9 475.9,212.9 475.9,205.5 "/>
<rect x="481.9" y="192.1" fill="#3F3D56" width="8.9" height="7.4"/>
<rect x="481.9" y="205.5" fill="#3F3D56" width="8.9" height="7.4"/>
<polygon fill="#3F3D56" points="601.4,201.4 601.4,193.9 592.5,193.9 592.5,201.4 600.6,201.4 "/>
<polygon fill="#3F3D56" points="600.6,207.3 592.5,207.3 592.5,214.7 601.4,214.7 601.4,207.3 "/>
<rect x="607.3" y="193.9" fill="#3F3D56" width="8.9" height="7.4"/>
<rect x="607.3" y="207.3" fill="#3F3D56" width="8.9" height="7.4"/>
<polygon fill="#3F3D56" points="507.8,131.3 506.6,129.4 517.6,111.5 545.7,111.5 545.7,114.2 535.5,133.7 523.8,136 "/>
<polygon fill="#CCCCCC" points="545.7,111.5 536.3,129.4 534.7,130.9 532.8,138.8 536.3,147.3 554.3,147.3 554.3,129.8 "/>
<rect x="506.6" y="129.4" fill="#F2F2F2" width="29.7" height="18"/>
<polygon fill="#3F3D56" points="519.2,137.1 519.2,133.6 514.9,133.6 514.9,137.1 518.8,137.1 "/>
<polygon fill="#3F3D56" points="518.8,140 514.9,140 514.9,143.5 519.2,143.5 519.2,140 "/>
<rect x="522" y="133.6" fill="#3F3D56" width="4.3" height="3.5"/>
<rect x="522" y="140" fill="#3F3D56" width="4.3" height="3.5"/>
<polygon fill="#3F3D56" points="595.6,178.8 591.2,171.3 632.8,103.4 739.7,103.4 739.7,113.8 701.1,187.7 656.5,196.6 "/>
<polygon fill="#CCCCCC" points="758.1,156.6 758.1,101.1 744.1,101.1 744.1,108.4 739.7,103.4 704,171.3 698.1,177.3 690.7,207 
	704,239.6 772.3,239.6 772.3,172.8 "/>
<rect x="591.2" y="171.3" fill="#F2F2F2" width="112.8" height="68.3"/>
<rect x="664.7" y="192.9" fill="#3F3D56" width="23.8" height="20.8"/>
<rect x="634.2" y="192.1" fill="#CCCCCC" width="20.8" height="47.5"/>
<polygon fill="#3F3D56" points="610.5,199.5 610.5,192.1 601.6,192.1 601.6,199.5 609.8,199.5 "/>
<polygon fill="#3F3D56" points="609.8,205.5 601.6,205.5 601.6,212.9 610.5,212.9 610.5,205.5 "/>
<rect x="616.4" y="192.1" fill="#3F3D56" width="8.9" height="7.4"/>
<rect x="616.4" y="205.5" fill="#3F3D56" width="8.9" height="7.4"/>
<polygon fill="#3F3D56" points="736,200.3 736,192.9 727,192.9 727,200.3 735.2,200.3 "/>
<polygon fill="#3F3D56" points="735.2,206.2 727,206.2 727,213.7 736,213.7 736,206.2 "/>
<rect x="741.9" y="192.9" fill="#3F3D56" width="8.9" height="7.4"/>
<rect x="741.9" y="206.2" fill="#3F3D56" width="8.9" height="7.4"/>
<polygon fill="#3F3D56" points="725.9,178.8 721.5,171.3 763,103.4 869.9,103.4 869.9,113.8 831.3,187.7 786.8,196.6 "/>
<polygon fill="#CCCCCC" points="888.3,156.6 888.3,101.1 874.3,101.1 874.3,108.4 869.9,103.4 834.3,171.3 828.4,177.3 820.9,207 
	834.3,239.6 902.6,239.6 902.6,172.8 "/>
<rect x="721.5" y="171.3" fill="#F2F2F2" width="112.8" height="68.3"/>
<rect x="795" y="192.9" fill="#3F3D56" width="23.8" height="20.8"/>
<rect x="764.5" y="192.1" fill="#CCCCCC" width="20.8" height="47.5"/>
<polygon fill="#3F3D56" points="740.8,199.5 740.8,192.1 731.9,192.1 731.9,199.5 740,199.5 "/>
<polygon fill="#3F3D56" points="740,205.5 731.9,205.5 731.9,212.9 740.8,212.9 740.8,205.5 "/>
<rect x="746.7" y="192.1" fill="#3F3D56" width="8.9" height="7.4"/>
<rect x="746.7" y="205.5" fill="#3F3D56" width="8.9" height="7.4"/>
<polygon fill="#3F3D56" points="866.2,200.3 866.2,192.9 857.3,192.9 857.3,200.3 865.5,200.3 "/>
<polygon fill="#3F3D56" points="865.5,206.2 857.3,206.2 857.3,213.7 866.2,213.7 866.2,206.2 "/>
<rect x="55.6" y="193.8" fill="#3F3D56" width="8.9" height="7.4"/>
<rect x="55.6" y="207.2" fill="#3F3D56" width="8.9" height="7.4"/>
<polygon fill="#3F3D56" points="639.1,132.4 638,130.5 648.9,112.6 677,112.6 677,115.3 666.9,134.7 655.2,137.1 "/>
<polygon fill="#CCCCCC" points="677,112.6 667.7,130.5 666.1,132 664.1,139.8 667.7,148.4 685.6,148.4 685.6,130.8 "/>
<rect x="638" y="130.5" fill="#F2F2F2" width="29.7" height="18"/>
<polygon fill="#3F3D56" points="650.5,138.2 650.5,134.7 646.3,134.7 646.3,138.2 650.2,138.2 "/>
<polygon fill="#3F3D56" points="650.2,141 646.3,141 646.3,144.6 650.5,144.6 650.5,141 "/>
<rect x="653.4" y="134.7" fill="#3F3D56" width="4.3" height="3.5"/>
<rect x="653.4" y="141" fill="#3F3D56" width="4.3" height="3.5"/>
<polygon fill="#3F3D56" points="770.5,131.3 769.3,129.4 780.2,111.5 808.4,111.5 808.4,114.2 798.2,133.7 786.5,136 "/>
<polygon fill="#CCCCCC" points="808.4,111.5 799,129.4 797.4,130.9 795.5,138.8 799,147.3 817,147.3 817,129.8 "/>
<rect x="769.3" y="129.4" fill="#F2F2F2" width="29.7" height="18"/>
<polygon fill="#3F3D56" points="781.9,137.1 781.9,133.6 777.6,133.6 777.6,137.1 781.5,137.1 "/>
<polygon fill="#3F3D56" points="781.5,140 777.6,140 777.6,143.5 781.9,143.5 781.9,140 "/>
<rect x="784.7" y="133.6" fill="#3F3D56" width="4.3" height="3.5"/>
<rect x="784.7" y="140" fill="#3F3D56" width="4.3" height="3.5"/>
<polygon fill="#3F3D56" points="44,179.7 39.5,172.3 81.1,104.4 188,104.4 188,114.8 149.4,188.6 104.9,197.6 "/>
<polygon fill="#CCCCCC" points="206.4,113.9 206.4,102.1 192.4,102.1 192.4,109.4 188,104.4 152.4,172.3 146.4,178.3 139,207.9 
	152.4,240.6 220.7,240.6 220.7,173.8 "/>
<rect x="39.5" y="172.3" fill="#F2F2F2" width="112.8" height="68.3"/>
<rect x="113" y="193.8" fill="#3F3D56" width="23.8" height="20.8"/>
<rect x="82.6" y="193.1" fill="#CCCCCC" width="20.8" height="47.5"/>
<polygon fill="#3F3D56" points="58.8,200.5 58.8,193.1 49.9,193.1 49.9,200.5 58.1,200.5 "/>
<polygon fill="#3F3D56" points="58.1,206.5 49.9,206.5 49.9,213.9 58.8,213.9 58.8,206.5 "/>
<rect x="64.8" y="193.1" fill="#3F3D56" width="8.9" height="7.4"/>
<rect x="64.8" y="206.5" fill="#3F3D56" width="8.9" height="7.4"/>
<polygon fill="#3F3D56" points="184.3,201.3 184.3,193.8 175.4,193.8 175.4,201.3 183.5,201.3 "/>
<polygon fill="#3F3D56" points="183.5,207.2 175.4,207.2 175.4,214.6 184.3,214.6 184.3,207.2 "/>
<rect x="190.2" y="193.8" fill="#3F3D56" width="8.9" height="7.4"/>
<rect x="190.2" y="207.2" fill="#3F3D56" width="8.9" height="7.4"/>
<polygon fill="#3F3D56" points="85.3,133.4 84.1,131.4 95.1,113.6 123.2,113.6 123.2,116.3 113.1,135.7 101.3,138.1 "/>
<polygon fill="#CCCCCC" points="123.2,113.6 113.8,131.4 112.3,133 110.3,140.8 113.8,149.4 131.8,149.4 131.8,131.8 "/>
<rect x="84.1" y="131.4" fill="#F2F2F2" width="29.7" height="18"/>
<polygon fill="#3F3D56" points="96.7,139.2 96.7,135.6 92.5,135.6 92.5,139.2 96.4,139.2 "/>
<polygon fill="#3F3D56" points="96.4,142 92.5,142 92.5,145.6 96.7,145.6 96.7,142 "/>
<rect x="99.6" y="135.6" fill="#3F3D56" width="4.3" height="3.5"/>
<rect x="99.6" y="142" fill="#3F3D56" width="4.3" height="3.5"/>
<rect x="-18.9" y="238.9" fill="#3F3D56" width="1183.7" height="2.2"/>
<rect x="-20" y="440.2" fill="#3F3D56" width="1183.7" height="2.2"/>
<rect x="1083.7" y="96.9" fill="#3F3D56" width="3.6" height="142"/>
<path fill="#E6E6E6" d="M1122.4,138.3c0,1.6,0,3.1,0,4.7c-1.3,55.9-68.3,56.2-70.1,0.3c-0.1-1.5-0.1-3.1-0.1-4.7
	c-0.3-62.5,34.6-113.3,34.6-113.3S1122.1,75.8,1122.4,138.3z"/>
<rect x="337.9" y="377.9" fill="#3F3D56" width="37.9" height="6"/>
<path fill="#399D43" d="M649.7,379.3l-7.8,1.8l-297,0.2l-2.7-6.2c-4.7-10.7-6.3-22.4-4.6-34c1.3-8.6,4.5-17.1,11.8-20.8l13.2-87.8
	l164.3-0.3l63.6,51.3c0,0,30-0.5,46.3,19.7c5.2,6.4,8.9,14.9,10,26.2l0.6,10.6L649.7,379.3z"/>
<circle fill="#3F3D56" cx="584.4" cy="377.8" r="36.7"/>
<circle fill="#CCCCCC" cx="584.4" cy="377.8" r="19.3"/>
<circle fill="#3F3D56" cx="403.4" cy="377.9" r="36.7"/>
<circle fill="#CCCCCC" cx="403.4" cy="377.9" r="19.3"/>
<polygon fill="#FFFFFF" points="565.1,277.4 476.4,277.4 465.6,277.4 447.3,277.5 447.3,276.1 447.3,260 447.3,242 459.4,242 
	470.3,242 489.4,242 500.3,242 522.4,241.9 "/>
<polygon fill="#FFFFFF" points="432.9,277.5 386,277.5 385.9,268.3 385.9,252.2 385.9,242 392.8,242 403.6,242 432.8,242 "/>
<rect x="447.3" y="303.9" fill="#3F3D56" width="6" height="11.4"/>
<rect x="541.1" y="287.6" fill="#3F3D56" width="11.4" height="6"/>
<path fill="#3F3D56" d="M545.3,265.1h0.7c6.9,0,12.6,5.6,12.6,12.6l0,0c0,6.9-5.6,12.6-12.6,12.6h-0.7l0,0V265.1L545.3,265.1z"/>
<path fill="#3F3D56" d="M647.3,339.9c-10.7,1.2-20.2-6.5-21.4-17.2c-0.9-8.1,3.4-16,10.8-19.6c5.2,6.4,8.9,14.9,10,26.2L647.3,339.9
	z"/>
<polygon fill="#F2F2F2" points="470.3,242 447.3,276.1 447.3,260 459.4,242 "/>
<polygon fill="#F2F2F2" points="403.6,242 385.9,268.3 385.9,252.2 392.8,242 "/>
<polygon fill="#F2F2F2" points="500.3,242 476.4,277.4 465.6,277.4 489.4,242 "/>
<rect x="857.6" y="298.7" fill="#3F3D56" width="23" height="3.7"/>
<path fill="#3F3D56" d="M691.3,299.5l4.7,1.1l180.4,0.1l1.6-3.8c2.8-6.5,3.8-13.6,2.8-20.6c-0.8-5.2-2.7-10.4-7.1-12.7l-8-53.3
	l-99.8-0.2l-38.6,31.1c0,0-18.2-0.3-28.1,12c-3.6,4.6-5.7,10.1-6,15.9l-0.4,6.4L691.3,299.5z"/>
<circle fill="#3F3D56" cx="730.9" cy="298.6" r="22.3"/>
<circle fill="#CCCCCC" cx="730.9" cy="298.6" r="11.7"/>
<circle fill="#3F3D56" cx="840.8" cy="298.7" r="22.3"/>
<circle fill="#CCCCCC" cx="840.8" cy="298.7" r="11.7"/>
<polygon fill="#FFFFFF" points="742.6,237.7 796.5,237.7 803.1,237.7 814.2,237.7 814.2,236.9 814.2,227.1 814.2,216.1 806.8,216.1 
	800.3,216.1 788.6,216.1 782,216.1 768.6,216.1 "/>
<polygon fill="#FFFFFF" points="823,237.7 851.5,237.7 851.5,232.1 851.5,222.4 851.5,216.2 847.3,216.2 840.7,216.2 823,216.1 "/>
<rect x="810.6" y="253.8" fill="#3F3D56" width="3.7" height="6.9"/>
<rect x="750.3" y="243.9" fill="#3F3D56" width="6.9" height="3.7"/>
<path fill="#3F3D56" d="M754.7,245.5l-0.4,0c-4.2,0-7.6-3.4-7.6-7.6l0,0c0-4.2,3.4-7.6,7.6-7.6l0.4,0l0,0L754.7,245.5L754.7,245.5z"
	/>
<path fill="#3F3D56" d="M692.7,275.6c6.5,0.7,12.3-4,13-10.5c0.5-4.9-2.1-9.7-6.6-11.9c-3.6,4.6-5.7,10.1-6,15.9L692.7,275.6z"/>
<polygon fill="#F2F2F2" points="800.3,216.1 814.2,236.9 814.2,227.1 806.8,216.1 "/>
<polygon fill="#F2F2F2" points="840.7,216.2 851.5,232.1 851.5,222.4 847.3,216.2 "/>
<polygon fill="#F2F2F2" points="782,216.1 796.5,237.7 803.1,237.7 788.6,216.1 "/>
<path fill="#2F2E41" d="M186.1,465.8c0,0,0,40.8,9.4,51.5c0,0,2,5.4,2.7,7.4c0.4,1.1,0.8,2.3,1.3,3.3v2.7c0,0,18.1-2,20.1-6.7
	l-3.3-4c0,0-0.7-0.7,0-2.7c0.4-0.7,0.1-1.5-0.6-1.9c-0.2-0.1-0.5-0.2-0.8-0.2l-4.7-10.7l0.7-44.2l-3.3-60.9l-28.8-1.3L186.1,465.8z"
	/>
<path fill="#2F2E41" d="M200.9,526.7c0,0-4.7,14.1,0,14.7c4.7,0.7,45.5,1.3,44.8-4c-0.7-5.4-14.1-4.7-14.1-4.7l-14.1-8.7
	L200.9,526.7z"/>
<path fill="#2F2E41" d="M159.4,399.5c-0.6,6.3,0.8,12.6,4,18.1c5.4,9.4,2,40.8,2,40.8l-47.5,41.5c0,0,9.4,16.1,12.7,15.4
	c3.3-0.7,56.2-43.5,56.2-43.5l20.7-69.6L159.4,399.5z"/>
<path fill="#2F2E41" d="M118.5,498.1c0,0-14.4,3.6-12.4,7.9c1.9,4.3,23.2,39.2,27.4,35.7c4.2-3.4-3.6-14.4-3.6-14.4l-0.2-16.5
	L118.5,498.1z"/>
<circle fill="#FFB8B8" cx="185.5" cy="275" r="15.4"/>
<path fill="#FFB8B8" d="M173.3,280.4l0.7,19.8l13,5.1c0,0,1.3-20.3,3.1-21.4C191.8,282.8,173.3,280.4,173.3,280.4z"/>
<path fill="#575A89" d="M190.1,307.8c0,0-18.1-18.1-22.8-17.4s-4.7,2.7-4.7,4c0,1.3,1.3,2,0,2.7s-2.7,0-2.7,2c0,2-12,22.1-8,44.2
	c4,22.1,8.7,32.8,6.7,44.8c-2,12-0.7,14.7-0.7,14.7s50.2,4,50.9-0.7s-2-2,1.3-5.4c3.3-3.3,2-3.3,2-5.4
	C212.2,389.5,197.5,307.8,190.1,307.8z"/>
<path fill="#FFB8B8" d="M180.8,398.8c0,0,8,19.4,14.1,14.7c6-4.7-2.7-20.7-2.7-20.7L180.8,398.8z"/>
<path fill="#575A89" d="M161.4,309.1c0,0-15.7,1.8-9.9,30.7c5.9,28.9,28.6,62.3,28.6,62.3l15.4-7.4l-20.1-39.5l4.7-24.8
	C180.1,330.6,182.8,307.1,161.4,309.1z"/>
<polygon opacity="0.2" points="175.1,355.7 197.2,392.5 195.2,394.5 "/>
<polygon opacity="0.2" points="163.4,372.8 181.1,401.8 175.1,401.8 "/>
<path fill="#2F2E41" d="M178.5,284.3c1.3-0.5,2.7-0.9,4-1.2c4.9-1.7,7.9-6.7,7-11.9c-0.2-0.6-0.3-1.3-0.3-2c0.4-1.5,1.6-2.5,3.1-2.7
	c1.5-0.2,2.9-0.4,4.3-0.8c2.1-1,3.6-3,3.8-5.3c0.2-2.3-0.3-4.6-1.5-6.6l-0.5,1.5c-0.8-0.7-1.4-1.5-1.7-2.5c-1.2,0.2-2.2,1-2.7,2.1
	c-0.8,0.5-1-1.5-1.9-1.8c-0.4-0.1-0.8,0.1-1.1,0.3c-1.9,0.9-4,0.1-6-0.4c-3.4-0.8-7-0.8-10.5,0c-2.3,0.5-4.5,1.6-6.2,3.2
	c-1.3,1.5-2.3,3.1-2.9,5c-1.9,4.4-2.7,9.2-2.3,13.9c0.5,3.9,2.1,7.5,4.6,10.4c1.3,1.5,5.6,6.9,8,5.9
	C179,290.3,175,286.1,178.5,284.3z"/>
<rect x="170.3" y="448.3" transform="matrix(0.3564 -0.9343 0.9343 0.3564 -293.8088 471.1201)" opacity="0.2" width="49.4" height="1"/>
<circle fill="#D0CDE1" cx="190.1" cy="310.5" r="1"/>
<line fill="none" x1="190.1" y1="310.5" x2="198.1" y2="336.7"/>
<path fill="#D0CDE1" d="M198.1,337.2c-0.2,0-0.4-0.1-0.5-0.3l-8.1-26.2c-0.1-0.3,0.1-0.5,0.3-0.6c0.3-0.1,0.5,0.1,0.6,0.3l8.1,26.2
	c0.1,0.3-0.1,0.5-0.3,0.6C198.2,337.2,198.2,337.2,198.1,337.2z"/>
<circle fill="#2F2E41" cx="1053.3" cy="283.9" r="16.1"/>
<path fill="#A0616A" d="M1030.4,381.3l-2.4,4.9c0,0-7.8,12.7-2.4,14.1c5.4,1.5,7.1-9.5,7.1-9.5l1-5.8L1030.4,381.3z"/>
<polygon fill="#D0CDE1" points="1040.2,356.4 1034.1,372.5 1028,383.7 1035.6,388.6 1041.7,377.9 1049,361.1 "/>
<path fill="#A0616A" d="M1057.5,431.7l12.2,12.9l21.4,36.3l9.3-2.9l-11-21.7c0,0-6.3-16.6-9.5-18.8s-8.5-16.6-8.5-16.6l-5.8-4.6
	L1057.5,431.7z"/>
<path fill="#A0616A" d="M1032.4,438.8l-1,4.1c0,0-3.2,12.9-8,18.8l-11.7,20.2l-8.8-2.9l17.3-40.9L1032.4,438.8z"/>
<circle fill="#A0616A" cx="1050.6" cy="289.5" r="13.2"/>
<path fill="#A0616A" d="M1060.9,296l1.7,14.1l-11,5.4c0,0,0-12.2-2.9-15.4L1060.9,296z"/>
<path fill="#A0616A" d="M1095.3,387.1l1.2,4.1c0,0,8,15.8,1.2,15.8c-6.8,0-8-14.6-8-14.6l-0.7-3.7L1095.3,387.1z"/>
<path fill="#2F2E41" d="M1039.2,370.6l1.7,11.9l-20.7,43.6l-1.2,12.7l38.8,4.9l8.5-23.6l13.6,17.5l-7.8-18c0,0-2.4-12.2-1.7-15.4
	s-0.5-19-2.7-22.9C1065.5,377.4,1039.2,370.6,1039.2,370.6z"/>
<path fill="#2F2E41" d="M1089.7,481l11.7-3.9l3.7,5.8c0,0,7.1,1.9,6.8,7.1c0,4.7,0.4,9.3,1.2,13.9l-5.1,0.5l-1.9-10l-10,11.9
	c0,0-17.8,1-18.5-1.9c-0.7-2.9,12.7-6.1,12.7-6.1l2.2-10.5L1089.7,481z"/>
<path fill="#2F2E41" d="M1002.2,477.6l10.7,3.4v2.4c0,0,3.2,4.9,2.7,9c-0.5,4.1-2.7,14.1-2.7,14.1h-5.6l0.2-9.3l-11.2,9.3
	c0,0-20-1.5-20-4.6c0-3.2,15.4-5.4,15.4-5.4L1002.2,477.6z"/>
<path fill="#D0CDE1" d="M1050.9,312.6c0,0,10-10,14.6-7.6v4.4c0,0,6.8,3.2,7.1,8c0.2,4.9,7.3,49.2,7.3,49.2l16.6,57.8
	c0,0-5.1,8-23.9-1l-11.7-39.7c0,0,12.4,44.8,6.3,44.1c-6.1-0.7-30-56.3-30-56.3l1.7-26.3c0,0-3.9-11.5,3.9-19.3L1050.9,312.6z"/>
<path fill="#D0CDE1" d="M1068,314c0,0,4.1,1.5,7.1,7.8c2.9,6.3,17.5,50.9,17.5,50.9l3.9,15.8l-11,2.7l-5.4-16.3l-20-37
	C1060.2,337.9,1057,318.4,1068,314z"/>
<path fill="#2F2E41" d="M1067,279c-0.1-3.1-1.7-5.9-4.4-7.5c1.3-2.7,2.5-5.8,1.7-8.6c-0.7-2.3-2.6-4-5-4.4c-1.3-0.2-2.6-0.2-3.9,0
	l-6,0.7c-2,0.1-3.9,0.6-5.6,1.5c-3,1.9-3.9,6-2,9c0.3,0.6,0.8,1,1.3,1.5c-4.2,3.4-7,5.9-8.9,10.9c3.2-2.6,7.2-4,11.3-4.1
	c5.8-0.3,10.9,4.1,11.4,9.9c0,1.4,0.1,2.8,0.4,4.2c0.3,1.4,1.6,2.4,3,2.4c-0.2,0-1.4-3.5-0.5-5.2l0,0c0.2-0.3,0.5-0.6,0.9-0.7
	c1.3-0.5,2.7,0.1,3.2,1.4c0,0.1,0.1,0.2,0.1,0.3c0.5,1.8,1.2,4.1,1.9,3.5c0.9-0.8,0.5-7.8,0.7-8.9C1067,283,1067.1,281,1067,279z"/>
<path fill="#D0CDE1" d="M1062.6,271.5c0,0-13.2,0.9-19.5-0.3"/>
<path fill="#2F2E41" d="M1061.8,269.7c1.3-2.7,2.5-5.8,1.7-8.6c-0.4-1.3-1.2-2.4-2.3-3.2c1.7,0.8,3,2.2,3.5,4
	c0.9,2.9-0.3,5.9-1.7,8.6C1062,270.3,1064.5,271.1,1061.8,269.7z"/>
<polygon opacity="0.2" points="1057.6,338 1076.6,371.7 1083.9,389.9 1073.7,372.4 "/>
<path fill="#399D43" d="M159,529.2c0,0-6,13-10.8,16.6c-4.9-3.6-11-16.6-11-16.6s-6,13-10.8,16.6c-4.9-3.6-11-16.6-11-16.6
	s-16.9,17.3-16.9,25.5c0,0.2,0,0.4,0,0.6c0.6,5.4,18.1,6.7,27.7,4.2c7.2,1.6,14.6,1.6,21.8,0c9.6,2.6,27.4,1.1,27.9-4.3
	c0-0.2,0-0.4,0-0.6C176,546.4,159,529.2,159,529.2z"/>
<path fill="#399D43" d="M514.5,529.2c0,0-6,13-10.8,16.6c-4.9-3.6-11-16.6-11-16.6s-6,13-10.8,16.6c-4.9-3.6-11-16.6-11-16.6
	s-16.9,17.3-16.9,25.5c0,0.2,0,0.4,0,0.6c0.6,5.4,18.1,6.7,27.7,4.2c7.2,1.6,14.6,1.6,21.8,0c9.6,2.6,27.4,1.1,27.9-4.3
	c0-0.2,0-0.4,0-0.6C531.5,546.4,514.5,529.2,514.5,529.2z"/>
<path fill="#399D43" d="M867.8,529.2c0,0-6,13-10.8,16.6c-4.9-3.6-11-16.6-11-16.6s-6,13-10.8,16.6c-4.9-3.6-11-16.6-11-16.6
	s-16.9,17.3-16.9,25.5c0,0.2,0,0.4,0,0.6c0.6,5.4,18.1,6.7,27.7,4.2c7.2,1.6,14.6,1.6,21.8,0c9.6,2.6,27.4,1.1,27.9-4.3
	c0-0.2,0-0.4,0-0.6C884.8,546.4,867.8,529.2,867.8,529.2z"/>
<path fill="#939393" d="M178.4-56.9l-0.2,0.1c-3.4,1.9-7.6,1.9-11,0c-0.1-0.1-0.2-0.1-0.3-0.2c-3.4-1.8-7.6-1.8-11,0l-0.1,0.1
	c-3.4,1.9-7.6,1.9-11,0c-0.1-0.1-0.2-0.1-0.3-0.2c-3.4-1.8-7.5-1.8-10.9,0c-5.1,2.8-12,7.5-12,12.8c0,0.2,0,0.4,0,0.6
	c0.6,5.5,18.6,6.9,28.5,4.3c7.4,1.7,15,1.7,22.4,0c9.9,2.6,28.2,1.1,28.8-4.5c0-0.2,0-0.4,0-0.6c0-5.3-7-10-12.2-12.7
	C185.9-58.8,181.8-58.8,178.4-56.9z"/>
<path fill="#939393" d="M436.4-36.6l-0.2,0.1c-3.4,1.9-7.6,1.9-11,0c-0.1-0.1-0.2-0.1-0.3-0.2c-3.4-1.8-7.6-1.8-11,0l-0.1,0.1
	c-3.4,1.9-7.6,1.9-11,0c-0.1-0.1-0.2-0.1-0.3-0.2c-3.4-1.8-7.5-1.8-10.9,0c-5.1,2.8-12,7.5-12,12.8c0,0.2,0,0.4,0,0.6
	c0.6,5.5,18.6,6.9,28.5,4.3c7.4,1.7,15,1.7,22.4,0c9.9,2.6,28.2,1.1,28.8-4.5c0-0.2,0-0.4,0-0.6c0-5.3-7-10-12.2-12.7
	C443.8-38.5,439.7-38.4,436.4-36.6z"/>
<path fill="#939393" d="M735.5-65.7l-0.2,0.1c-3.4,1.9-7.6,1.9-11,0c-0.1-0.1-0.2-0.1-0.3-0.2c-3.4-1.8-7.6-1.8-11,0l-0.1,0.1
	c-3.4,1.9-7.6,1.9-11,0c-0.1-0.1-0.2-0.1-0.3-0.2c-3.4-1.8-7.5-1.8-10.9,0c-5.1,2.8-12,7.5-12,12.8c0,0.2,0,0.4,0,0.6
	c0.6,5.5,18.6,6.9,28.5,4.3c7.4,1.7,15,1.7,22.4,0c9.9,2.6,28.2,1.1,28.8-4.5c0-0.2,0-0.4,0-0.6c0-5.3-7-10-12.2-12.7
	C742.9-67.6,738.8-67.5,735.5-65.7z"/>
<rect x="-20" y="558.7" fill="#3F3D56" width="1183.7" height="2.2"/>
<path fill="#399D43" d="M157.9,228.1c-1.9,1-3.7,2.2-5.3,3.7c-1.6-1.5-3.5-2.7-5.4-3.7c-1.9,1-3.7,2.2-5.3,3.7
	c-1.6-1.5-3.5-2.7-5.4-3.7c0,0-8.4,4.1-8.3,9.1c0,0.1,0,0.3,0,0.4c0.3,3.3,8.9,4.1,13.7,2.6c3.5,1,7.2,1,10.8,0
	c4.7,1.6,13.6,0.7,13.8-2.7c0-0.1,0-0.2,0-0.4C166.3,232.2,157.9,228.1,157.9,228.1z"/>
<polygon fill="#3F3D56" points="866.2,200.3 866.2,192.9 857.3,192.9 857.3,200.3 865.5,200.3 "/>
<polygon fill="#3F3D56" points="865.5,206.2 857.3,206.2 857.3,213.7 866.2,213.7 866.2,206.2 "/>
<rect x="872.2" y="192.9" fill="#3F3D56" width="8.9" height="7.4"/>
<rect x="872.2" y="206.2" fill="#3F3D56" width="8.9" height="7.4"/>
</svg>
